<ttFont>
    <TTGlyph name="A" xMin="-28" yMin="-39" xMax="1017" yMax="1120">
      <contour>
        <pt x="1013" y="59" on="1"/>
        <pt x="1017" y="51" on="0"/>
        <pt x="1017" y="44" on="1"/>
        <pt x="1017" y="29" on="0"/>
        <pt x="983" y="21" on="0"/>
        <pt x="937" y="20" on="0"/>
        <pt x="891" y="20" on="0"/>
        <pt x="878" y="14" on="1"/>
        <pt x="876" y="13" on="0"/>
        <pt x="858" y="5" on="0"/>
        <pt x="836" y="-5" on="0"/>
        <pt x="819" y="-14" on="0"/>
        <pt x="819" y="-15" on="1"/>
        <pt x="817" y="-15" on="1"/>
        <pt x="807" y="-15" on="0"/>
        <pt x="775" y="-1" on="0"/>
        <pt x="755" y="-1" on="1"/>
        <pt x="740" y="-1" on="0"/>
        <pt x="699" y="-15" on="0"/>
        <pt x="677" y="-15" on="1"/>
        <pt x="654" y="-15" on="0"/>
        <pt x="623" y="4" on="0"/>
        <pt x="623" y="15" on="1"/>
        <pt x="623" y="31" on="0"/>
        <pt x="659" y="37" on="0"/>
        <pt x="681" y="37" on="1"/>
        <pt x="697" y="37" on="1"/>
        <pt x="710" y="37" on="0"/>
        <pt x="727" y="36" on="0"/>
        <pt x="737" y="44" on="0"/>
        <pt x="741" y="65" on="0"/>
        <pt x="741" y="87" on="1"/>
        <pt x="741" y="104" on="0"/>
        <pt x="739" y="140" on="0"/>
        <pt x="737" y="156" on="1"/>
        <pt x="735" y="170" on="0"/>
        <pt x="723" y="198" on="0"/>
        <pt x="721" y="209" on="1"/>
        <pt x="719" y="221" on="0"/>
        <pt x="719" y="256" on="0"/>
        <pt x="715" y="289" on="0"/>
        <pt x="703" y="312" on="0"/>
        <pt x="689" y="312" on="1"/>
        <pt x="681" y="312" on="0"/>
        <pt x="657" y="308" on="0"/>
        <pt x="640" y="306" on="1"/>
        <pt x="589" y="301" on="0"/>
        <pt x="487" y="297" on="0"/>
        <pt x="430" y="290" on="1"/>
        <pt x="384" y="284" on="0"/>
        <pt x="328" y="276" on="0"/>
        <pt x="288" y="248" on="0"/>
        <pt x="257" y="186" on="0"/>
        <pt x="237" y="126" on="1"/>
        <pt x="235" y="121" on="0"/>
        <pt x="218" y="101" on="0"/>
        <pt x="218" y="87" on="1"/>
        <pt x="218" y="72" on="0"/>
        <pt x="242" y="58" on="0"/>
        <pt x="275" y="51" on="0"/>
        <pt x="308" y="45" on="0"/>
        <pt x="318" y="37" on="1"/>
        <pt x="318" y="21" on="0"/>
        <pt x="280" y="3" on="0"/>
        <pt x="227" y="-7" on="0"/>
        <pt x="172" y="-12" on="0"/>
        <pt x="154" y="-15" on="1"/>
        <pt x="151" y="-16" on="0"/>
        <pt x="119" y="-23" on="0"/>
        <pt x="76" y="-32" on="0"/>
        <pt x="29" y="-39" on="0"/>
        <pt x="10" y="-39" on="1"/>
        <pt x="-8" y="-39" on="0"/>
        <pt x="-28" y="-31" on="0"/>
        <pt x="-28" y="-20" on="1"/>
        <pt x="-28" y="3" on="0"/>
        <pt x="0" y="22" on="0"/>
        <pt x="37" y="28" on="0"/>
        <pt x="72" y="27" on="0"/>
        <pt x="80" y="30" on="1"/>
        <pt x="82" y="31" on="0"/>
        <pt x="94" y="38" on="0"/>
        <pt x="107" y="47" on="0"/>
        <pt x="117" y="57" on="0"/>
        <pt x="117" y="60" on="1"/>
        <pt x="117" y="62" on="0"/>
        <pt x="116" y="68" on="0"/>
        <pt x="116" y="70" on="1"/>
        <pt x="116" y="74" on="0"/>
        <pt x="130" y="86" on="0"/>
        <pt x="148" y="99" on="0"/>
        <pt x="162" y="111" on="0"/>
        <pt x="162" y="114" on="1"/>
        <pt x="162" y="116" on="0"/>
        <pt x="160" y="122" on="0"/>
        <pt x="160" y="124" on="1"/>
        <pt x="161" y="126" on="0"/>
        <pt x="161" y="126" on="1"/>
        <pt x="165" y="130" on="0"/>
        <pt x="175" y="149" on="0"/>
        <pt x="184" y="173" on="0"/>
        <pt x="194" y="198" on="0"/>
        <pt x="199" y="209" on="1"/>
        <pt x="207" y="227" on="0"/>
        <pt x="229" y="259" on="0"/>
        <pt x="237" y="276" on="1"/>
        <pt x="257" y="315" on="0"/>
        <pt x="292" y="399" on="0"/>
        <pt x="318" y="440" on="1"/>
        <pt x="323" y="448" on="0"/>
        <pt x="329" y="455" on="0"/>
        <pt x="333" y="470" on="1"/>
        <pt x="335" y="479" on="0"/>
        <pt x="356" y="504" on="0"/>
        <pt x="356" y="515" on="1"/>
        <pt x="356" y="518" on="0"/>
        <pt x="355" y="524" on="0"/>
        <pt x="355" y="527" on="1"/>
        <pt x="355" y="526" on="0"/>
        <pt x="368" y="554" on="0"/>
        <pt x="389" y="596" on="0"/>
        <pt x="412" y="645" on="0"/>
        <pt x="423" y="664" on="1"/>
        <pt x="423" y="666" on="1"/>
        <pt x="423" y="668" on="0"/>
        <pt x="422" y="675" on="0"/>
        <pt x="422" y="677" on="1"/>
        <pt x="422" y="678" on="0"/>
        <pt x="423" y="679" on="1"/>
        <pt x="430" y="684" on="0"/>
        <pt x="431" y="709" on="0"/>
        <pt x="438" y="724" on="1"/>
        <pt x="440" y="729" on="0"/>
        <pt x="457" y="740" on="0"/>
        <pt x="461" y="746" on="1"/>
        <pt x="465" y="755" on="0"/>
        <pt x="464" y="769" on="0"/>
        <pt x="468" y="776" on="1"/>
        <pt x="471" y="782" on="0"/>
        <pt x="491" y="818" on="0"/>
        <pt x="515" y="865" on="0"/>
        <pt x="537" y="917" on="0"/>
        <pt x="542" y="940" on="1"/>
        <pt x="535" y="945" on="0"/>
        <pt x="531" y="945" on="1"/>
        <pt x="525" y="945" on="0"/>
        <pt x="513" y="937" on="0"/>
        <pt x="499" y="926" on="0"/>
        <pt x="485" y="918" on="0"/>
        <pt x="478" y="918" on="1"/>
        <pt x="473" y="918" on="0"/>
        <pt x="458" y="926" on="0"/>
        <pt x="458" y="936" on="1"/>
        <pt x="458" y="942" on="0"/>
        <pt x="467" y="952" on="0"/>
        <pt x="479" y="961" on="0"/>
        <pt x="489" y="971" on="0"/>
        <pt x="490" y="978" on="1"/>
        <pt x="491" y="988" on="0"/>
        <pt x="515" y="1006" on="0"/>
        <pt x="543" y="1020" on="0"/>
        <pt x="565" y="1030" on="0"/>
        <pt x="565" y="1032" on="1"/>
        <pt x="565" y="1034" on="0"/>
        <pt x="564" y="1039" on="0"/>
        <pt x="564" y="1042" on="1"/>
        <pt x="564" y="1047" on="0"/>
        <pt x="585" y="1052" on="0"/>
        <pt x="595" y="1060" on="1"/>
        <pt x="604" y="1068" on="0"/>
        <pt x="620" y="1087" on="0"/>
        <pt x="625" y="1090" on="1"/>
        <pt x="636" y="1095" on="0"/>
        <pt x="659" y="1092" on="0"/>
        <pt x="669" y="1097" on="1"/>
        <pt x="675" y="1100" on="0"/>
        <pt x="684" y="1120" on="0"/>
        <pt x="698" y="1120" on="1"/>
        <pt x="712" y="1120" on="0"/>
        <pt x="723" y="1116" on="0"/>
        <pt x="726" y="1107" on="0"/>
        <pt x="726" y="1092" on="0"/>
        <pt x="729" y="1082" on="1"/>
        <pt x="730" y="1079" on="0"/>
        <pt x="739" y="1066" on="0"/>
        <pt x="749" y="1052" on="0"/>
        <pt x="758" y="1036" on="0"/>
        <pt x="759" y="1030" on="1"/>
        <pt x="761" y="1018" on="0"/>
        <pt x="762" y="979" on="0"/>
        <pt x="762" y="936" on="0"/>
        <pt x="763" y="895" on="0"/>
        <pt x="766" y="881" on="1"/>
        <pt x="769" y="864" on="0"/>
        <pt x="775" y="839" on="0"/>
        <pt x="775" y="823" on="1"/>
        <pt x="775" y="811" on="0"/>
        <pt x="769" y="802" on="0"/>
        <pt x="769" y="798" on="1"/>
        <pt x="769" y="796" on="0"/>
        <pt x="775" y="766" on="0"/>
        <pt x="781" y="746" on="1"/>
        <pt x="792" y="723" on="0"/>
        <pt x="804" y="666" on="0"/>
        <pt x="811" y="606" on="0"/>
        <pt x="816" y="547" on="0"/>
        <pt x="819" y="522" on="1"/>
        <pt x="821" y="505" on="0"/>
        <pt x="833" y="474" on="0"/>
        <pt x="834" y="458" on="1"/>
        <pt x="834" y="451" on="0"/>
        <pt x="832" y="438" on="0"/>
        <pt x="832" y="432" on="1"/>
        <pt x="832" y="419" on="0"/>
        <pt x="847" y="392" on="0"/>
        <pt x="849" y="380" on="1"/>
        <pt x="852" y="351" on="0"/>
        <pt x="850" y="284" on="0"/>
        <pt x="856" y="254" on="1"/>
        <pt x="859" y="239" on="0"/>
        <pt x="872" y="212" on="0"/>
        <pt x="872" y="194" on="1"/>
        <pt x="872" y="184" on="0"/>
        <pt x="870" y="164" on="0"/>
        <pt x="870" y="155" on="1"/>
        <pt x="870" y="146" on="0"/>
        <pt x="871" y="142" on="1"/>
        <pt x="871" y="139" on="0"/>
        <pt x="879" y="116" on="0"/>
        <pt x="890" y="89" on="0"/>
        <pt x="899" y="67" on="0"/>
        <pt x="901" y="66" on="1"/>
        <pt x="908" y="61" on="0"/>
        <pt x="924" y="61" on="1"/>
        <pt x="940" y="61" on="0"/>
        <pt x="977" y="69" on="0"/>
        <pt x="991" y="69" on="1"/>
        <pt x="1008" y="69" on="0"/>
      </contour>
      <contour>
        <pt x="692" y="395" on="1"/>
        <pt x="695" y="399" on="0"/>
        <pt x="695" y="405" on="1"/>
        <pt x="695" y="415" on="0"/>
        <pt x="685" y="434" on="0"/>
        <pt x="685" y="433" on="1"/>
        <pt x="685" y="435" on="0"/>
        <pt x="692" y="439" on="0"/>
        <pt x="692" y="447" on="1"/>
        <pt x="690" y="462" on="0"/>
        <pt x="679" y="493" on="0"/>
        <pt x="677" y="507" on="1"/>
        <pt x="670" y="548" on="0"/>
        <pt x="661" y="626" on="0"/>
        <pt x="654" y="649" on="1"/>
        <pt x="654" y="671" on="1"/>
        <pt x="652" y="688" on="0"/>
        <pt x="648" y="738" on="0"/>
        <pt x="642" y="793" on="0"/>
        <pt x="635" y="848" on="0"/>
        <pt x="626" y="891" on="0"/>
        <pt x="616" y="918" on="0"/>
        <pt x="611" y="918" on="1"/>
        <pt x="609" y="918" on="1"/>
        <pt x="596" y="901" on="0"/>
        <pt x="578" y="862" on="0"/>
        <pt x="561" y="821" on="0"/>
        <pt x="545" y="780" on="0"/>
        <pt x="535" y="761" on="1"/>
        <pt x="518" y="729" on="0"/>
        <pt x="477" y="667" on="0"/>
        <pt x="461" y="634" on="1"/>
        <pt x="444" y="600" on="0"/>
        <pt x="417" y="527" on="0"/>
        <pt x="401" y="492" on="1"/>
        <pt x="384" y="457" on="0"/>
        <pt x="346" y="389" on="0"/>
        <pt x="341" y="350" on="1"/>
        <pt x="407" y="350" on="0"/>
        <pt x="542" y="372" on="0"/>
        <pt x="602" y="380" on="1"/>
        <pt x="615" y="382" on="0"/>
        <pt x="643" y="382" on="0"/>
        <pt x="667" y="383" on="0"/>
        <pt x="686" y="388" on="0"/>
      </contour>
    </TTGlyph>
    <TTGlyph name="AE" xMin="-42" yMin="-49" xMax="1457" yMax="1131">
      <contour>
        <pt x="1423" y="256" on="1"/>
        <pt x="1420" y="232" on="0"/>
        <pt x="1386" y="199" on="0"/>
        <pt x="1371" y="180" on="1"/>
        <pt x="1353" y="160" on="0"/>
        <pt x="1330" y="133" on="0"/>
        <pt x="1312" y="107" on="0"/>
        <pt x="1297" y="77" on="0"/>
        <pt x="1288" y="54" on="1"/>
        <pt x="1286" y="50" on="0"/>
        <pt x="1281" y="46" on="0"/>
        <pt x="1281" y="39" on="1"/>
        <pt x="1279" y="17" on="0"/>
        <pt x="1232" y="-5" on="0"/>
        <pt x="1165" y="-14" on="0"/>
        <pt x="1090" y="-14" on="0"/>
        <pt x="1061" y="-14" on="1"/>
        <pt x="1041" y="-14" on="0"/>
        <pt x="998" y="-13" on="0"/>
        <pt x="978" y="-13" on="1"/>
        <pt x="958" y="-13" on="0"/>
        <pt x="927" y="-21" on="0"/>
        <pt x="915" y="-21" on="1"/>
        <pt x="903" y="-21" on="0"/>
        <pt x="883" y="-22" on="0"/>
        <pt x="873" y="-22" on="1"/>
        <pt x="841" y="-22" on="0"/>
        <pt x="800" y="-19" on="0"/>
        <pt x="773" y="-14" on="0"/>
        <pt x="756" y="-11" on="0"/>
        <pt x="747" y="-11" on="1"/>
        <pt x="732" y="-11" on="0"/>
        <pt x="687" y="-25" on="0"/>
        <pt x="665" y="-25" on="1"/>
        <pt x="644" y="-25" on="0"/>
        <pt x="618" y="-9" on="0"/>
        <pt x="618" y="1" on="1"/>
        <pt x="618" y="10" on="0"/>
        <pt x="630" y="20" on="0"/>
        <pt x="650" y="26" on="0"/>
        <pt x="673" y="27" on="0"/>
        <pt x="684" y="27" on="1"/>
        <pt x="700" y="27" on="1"/>
        <pt x="714" y="27" on="0"/>
        <pt x="735" y="28" on="0"/>
        <pt x="752" y="48" on="0"/>
        <pt x="767" y="97" on="0"/>
        <pt x="774" y="146" on="1"/>
        <pt x="774" y="154" on="1"/>
        <pt x="774" y="163" on="0"/>
        <pt x="772" y="181" on="0"/>
        <pt x="772" y="189" on="1"/>
        <pt x="772" y="195" on="0"/>
        <pt x="777" y="216" on="0"/>
        <pt x="784" y="241" on="0"/>
        <pt x="789" y="267" on="0"/>
        <pt x="789" y="278" on="1"/>
        <pt x="789" y="289" on="0"/>
        <pt x="781" y="302" on="0"/>
        <pt x="770" y="302" on="1"/>
        <pt x="762" y="302" on="0"/>
        <pt x="737" y="298" on="0"/>
        <pt x="719" y="296" on="1"/>
        <pt x="671" y="291" on="0"/>
        <pt x="557" y="288" on="0"/>
        <pt x="448" y="275" on="0"/>
        <pt x="356" y="244" on="0"/>
        <pt x="329" y="213" on="1"/>
        <pt x="316" y="196" on="0"/>
        <pt x="288" y="154" on="0"/>
        <pt x="265" y="116" on="1"/>
        <pt x="263" y="113" on="0"/>
        <pt x="252" y="103" on="0"/>
        <pt x="242" y="91" on="0"/>
        <pt x="234" y="77" on="0"/>
        <pt x="234" y="69" on="1"/>
        <pt x="234" y="57" on="0"/>
        <pt x="256" y="46" on="0"/>
        <pt x="285" y="40" on="0"/>
        <pt x="314" y="34" on="0"/>
        <pt x="321" y="27" on="1"/>
        <pt x="316" y="11" on="0"/>
        <pt x="273" y="-7" on="0"/>
        <pt x="217" y="-17" on="0"/>
        <pt x="161" y="-22" on="0"/>
        <pt x="142" y="-25" on="1"/>
        <pt x="138" y="-26" on="0"/>
        <pt x="104" y="-33" on="0"/>
        <pt x="59" y="-42" on="0"/>
        <pt x="11" y="-49" on="0"/>
        <pt x="-8" y="-49" on="1"/>
        <pt x="-42" y="-49" on="0"/>
        <pt x="-42" y="-35" on="1"/>
        <pt x="-42" y="-11" on="0"/>
        <pt x="-7" y="11" on="0"/>
        <pt x="37" y="19" on="0"/>
        <pt x="77" y="18" on="0"/>
        <pt x="82" y="20" on="1"/>
        <pt x="84" y="21" on="0"/>
        <pt x="98" y="28" on="0"/>
        <pt x="113" y="37" on="0"/>
        <pt x="125" y="47" on="0"/>
        <pt x="126" y="50" on="1"/>
        <pt x="128" y="60" on="1"/>
        <pt x="129" y="64" on="0"/>
        <pt x="147" y="76" on="0"/>
        <pt x="168" y="89" on="0"/>
        <pt x="186" y="101" on="0"/>
        <pt x="187" y="104" on="1"/>
        <pt x="187" y="114" on="1"/>
        <pt x="189" y="116" on="1"/>
        <pt x="195" y="120" on="0"/>
        <pt x="209" y="139" on="0"/>
        <pt x="226" y="163" on="0"/>
        <pt x="243" y="188" on="0"/>
        <pt x="251" y="199" on="1"/>
        <pt x="265" y="217" on="0"/>
        <pt x="295" y="249" on="0"/>
        <pt x="308" y="266" on="1"/>
        <pt x="340" y="305" on="0"/>
        <pt x="398" y="389" on="0"/>
        <pt x="436" y="430" on="1"/>
        <pt x="443" y="437" on="0"/>
        <pt x="451" y="445" on="0"/>
        <pt x="459" y="460" on="1"/>
        <pt x="461" y="464" on="0"/>
        <pt x="472" y="475" on="0"/>
        <pt x="484" y="487" on="0"/>
        <pt x="494" y="499" on="0"/>
        <pt x="495" y="505" on="1"/>
        <pt x="496" y="508" on="0"/>
        <pt x="496" y="514" on="0"/>
        <pt x="498" y="517" on="1"/>
        <pt x="498" y="516" on="0"/>
        <pt x="519" y="544" on="0"/>
        <pt x="551" y="586" on="0"/>
        <pt x="589" y="635" on="0"/>
        <pt x="605" y="654" on="1"/>
        <pt x="608" y="667" on="1"/>
        <pt x="608" y="668" on="0"/>
        <pt x="609" y="669" on="1"/>
        <pt x="617" y="674" on="0"/>
        <pt x="626" y="699" on="0"/>
        <pt x="637" y="714" on="1"/>
        <pt x="641" y="719" on="0"/>
        <pt x="661" y="730" on="0"/>
        <pt x="666" y="736" on="1"/>
        <pt x="673" y="745" on="0"/>
        <pt x="676" y="759" on="0"/>
        <pt x="682" y="766" on="1"/>
        <pt x="686" y="772" on="0"/>
        <pt x="717" y="808" on="0"/>
        <pt x="754" y="855" on="0"/>
        <pt x="791" y="907" on="0"/>
        <pt x="803" y="930" on="1"/>
        <pt x="832" y="956" on="0"/>
        <pt x="867" y="993" on="0"/>
        <pt x="878" y="1007" on="1"/>
        <pt x="871" y="1021" on="0"/>
        <pt x="859" y="1028" on="0"/>
        <pt x="853" y="1028" on="1"/>
        <pt x="839" y="1028" on="0"/>
        <pt x="808" y="1024" on="0"/>
        <pt x="794" y="1024" on="1"/>
        <pt x="783" y="1024" on="0"/>
        <pt x="764" y="1030" on="0"/>
        <pt x="758" y="1040" on="1"/>
        <pt x="763" y="1056" on="0"/>
        <pt x="792" y="1070" on="0"/>
        <pt x="831" y="1074" on="0"/>
        <pt x="874" y="1074" on="0"/>
        <pt x="892" y="1076" on="1"/>
        <pt x="910" y="1078" on="0"/>
        <pt x="927" y="1080" on="0"/>
        <pt x="932" y="1080" on="1"/>
        <pt x="935" y="1080" on="0"/>
        <pt x="938" y="1079" on="0"/>
        <pt x="940" y="1079" on="1"/>
        <pt x="966" y="1080" on="0"/>
        <pt x="1016" y="1082" on="0"/>
        <pt x="1042" y="1084" on="1"/>
        <pt x="1065" y="1086" on="0"/>
        <pt x="1110" y="1099" on="0"/>
        <pt x="1135" y="1099" on="1"/>
        <pt x="1145" y="1099" on="0"/>
        <pt x="1164" y="1098" on="0"/>
        <pt x="1175" y="1098" on="1"/>
        <pt x="1206" y="1098" on="0"/>
        <pt x="1257" y="1114" on="0"/>
        <pt x="1290" y="1114" on="1"/>
        <pt x="1297" y="1114" on="0"/>
        <pt x="1302" y="1112" on="0"/>
        <pt x="1304" y="1109" on="0"/>
        <pt x="1306" y="1107" on="0"/>
        <pt x="1309" y="1107" on="1"/>
        <pt x="1311" y="1107" on="0"/>
        <pt x="1312" y="1109" on="0"/>
        <pt x="1314" y="1112" on="0"/>
        <pt x="1319" y="1114" on="0"/>
        <pt x="1327" y="1114" on="1"/>
        <pt x="1335" y="1114" on="0"/>
        <pt x="1350" y="1113" on="0"/>
        <pt x="1358" y="1113" on="1"/>
        <pt x="1367" y="1113" on="0"/>
        <pt x="1381" y="1119" on="0"/>
        <pt x="1394" y="1125" on="0"/>
        <pt x="1409" y="1131" on="0"/>
        <pt x="1420" y="1131" on="1"/>
        <pt x="1440" y="1131" on="0"/>
        <pt x="1457" y="1111" on="0"/>
        <pt x="1457" y="1096" on="1"/>
        <pt x="1457" y="1081" on="0"/>
        <pt x="1445" y="1044" on="0"/>
        <pt x="1429" y="1007" on="0"/>
        <pt x="1412" y="974" on="0"/>
        <pt x="1407" y="964" on="1"/>
        <pt x="1403" y="956" on="0"/>
        <pt x="1398" y="935" on="0"/>
        <pt x="1393" y="928" on="1"/>
        <pt x="1388" y="922" on="0"/>
        <pt x="1374" y="911" on="0"/>
        <pt x="1371" y="905" on="1"/>
        <pt x="1368" y="902" on="0"/>
        <pt x="1365" y="885" on="0"/>
        <pt x="1361" y="868" on="0"/>
        <pt x="1353" y="855" on="0"/>
        <pt x="1346" y="855" on="1"/>
        <pt x="1337" y="855" on="0"/>
        <pt x="1327" y="868" on="0"/>
        <pt x="1327" y="877" on="1"/>
        <pt x="1327" y="897" on="0"/>
        <pt x="1341" y="946" on="0"/>
        <pt x="1341" y="975" on="1"/>
        <pt x="1341" y="992" on="0"/>
        <pt x="1332" y="1025" on="0"/>
        <pt x="1317" y="1025" on="1"/>
        <pt x="1305" y="1025" on="0"/>
        <pt x="1267" y="1017" on="0"/>
        <pt x="1259" y="1017" on="1"/>
        <pt x="1240" y="1017" on="0"/>
        <pt x="1173" y="1023" on="0"/>
        <pt x="1138" y="1023" on="1"/>
        <pt x="1105" y="1023" on="0"/>
        <pt x="1060" y="1010" on="0"/>
        <pt x="1030" y="975" on="0"/>
        <pt x="1015" y="911" on="0"/>
        <pt x="1012" y="860" on="1"/>
        <pt x="1012" y="848" on="1"/>
        <pt x="1013" y="834" on="0"/>
        <pt x="997" y="775" on="0"/>
        <pt x="997" y="740" on="1"/>
        <pt x="997" y="725" on="1"/>
        <pt x="997" y="715" on="0"/>
        <pt x="990" y="702" on="0"/>
        <pt x="990" y="703" on="1"/>
        <pt x="990" y="698" on="0"/>
        <pt x="997" y="679" on="0"/>
        <pt x="997" y="666" on="1"/>
        <pt x="997" y="664" on="0"/>
        <pt x="988" y="649" on="0"/>
        <pt x="988" y="642" on="1"/>
        <pt x="988" y="637" on="0"/>
        <pt x="1021" y="629" on="0"/>
        <pt x="1067" y="624" on="0"/>
        <pt x="1115" y="621" on="0"/>
        <pt x="1131" y="621" on="1"/>
        <pt x="1145" y="621" on="0"/>
        <pt x="1176" y="629" on="0"/>
        <pt x="1197" y="629" on="1"/>
        <pt x="1207" y="629" on="0"/>
        <pt x="1226" y="627" on="0"/>
        <pt x="1234" y="627" on="1"/>
        <pt x="1240" y="627" on="0"/>
        <pt x="1243" y="628" on="1"/>
        <pt x="1271" y="635" on="0"/>
        <pt x="1300" y="659" on="0"/>
        <pt x="1324" y="683" on="0"/>
        <pt x="1355" y="702" on="0"/>
        <pt x="1385" y="704" on="1"/>
        <pt x="1389" y="699" on="0"/>
        <pt x="1389" y="692" on="1"/>
        <pt x="1389" y="681" on="0"/>
        <pt x="1370" y="661" on="0"/>
        <pt x="1363" y="651" on="1"/>
        <pt x="1361" y="649" on="0"/>
        <pt x="1358" y="631" on="0"/>
        <pt x="1355" y="628" on="1"/>
        <pt x="1350" y="623" on="0"/>
        <pt x="1332" y="626" on="0"/>
        <pt x="1326" y="621" on="1"/>
        <pt x="1321" y="619" on="0"/>
        <pt x="1316" y="610" on="0"/>
        <pt x="1311" y="606" on="1"/>
        <pt x="1280" y="588" on="0"/>
        <pt x="1246" y="556" on="0"/>
        <pt x="1220" y="533" on="0"/>
        <pt x="1192" y="520" on="0"/>
        <pt x="1168" y="520" on="1"/>
        <pt x="1123" y="520" on="0"/>
        <pt x="1034" y="536" on="0"/>
        <pt x="996" y="536" on="1"/>
        <pt x="976" y="536" on="0"/>
        <pt x="959" y="513" on="0"/>
        <pt x="959" y="496" on="1"/>
        <pt x="959" y="454" on="1"/>
        <pt x="959" y="446" on="0"/>
        <pt x="950" y="414" on="0"/>
        <pt x="947" y="400" on="1"/>
        <pt x="948" y="393" on="0"/>
        <pt x="950" y="380" on="0"/>
        <pt x="950" y="374" on="1"/>
        <pt x="950" y="360" on="0"/>
        <pt x="938" y="328" on="0"/>
        <pt x="935" y="313" on="1"/>
        <pt x="931" y="293" on="0"/>
        <pt x="922" y="236" on="0"/>
        <pt x="922" y="201" on="1"/>
        <pt x="922" y="177" on="0"/>
        <pt x="909" y="134" on="0"/>
        <pt x="903" y="120" on="1"/>
        <pt x="903" y="113" on="0"/>
        <pt x="905" y="95" on="0"/>
        <pt x="907" y="77" on="0"/>
        <pt x="910" y="62" on="0"/>
        <pt x="911" y="58" on="1"/>
        <pt x="945" y="68" on="1"/>
        <pt x="951" y="72" on="0"/>
        <pt x="957" y="76" on="1"/>
        <pt x="962" y="79" on="0"/>
        <pt x="972" y="84" on="0"/>
        <pt x="977" y="84" on="1"/>
        <pt x="980" y="84" on="0"/>
        <pt x="992" y="82" on="0"/>
        <pt x="997" y="82" on="1"/>
        <pt x="1003" y="82" on="0"/>
        <pt x="1008" y="87" on="0"/>
        <pt x="1014" y="87" on="1"/>
        <pt x="1026" y="87" on="0"/>
        <pt x="1096" y="80" on="0"/>
        <pt x="1144" y="80" on="1"/>
        <pt x="1163" y="80" on="0"/>
        <pt x="1198" y="83" on="0"/>
        <pt x="1214" y="91" on="1"/>
        <pt x="1216" y="93" on="0"/>
        <pt x="1225" y="103" on="0"/>
        <pt x="1235" y="115" on="0"/>
        <pt x="1246" y="125" on="0"/>
        <pt x="1251" y="128" on="1"/>
        <pt x="1257" y="132" on="0"/>
        <pt x="1275" y="131" on="0"/>
        <pt x="1281" y="136" on="1"/>
        <pt x="1289" y="142" on="0"/>
        <pt x="1301" y="163" on="0"/>
        <pt x="1311" y="173" on="1"/>
        <pt x="1363" y="225" on="1"/>
        <pt x="1367" y="229" on="0"/>
        <pt x="1375" y="240" on="0"/>
        <pt x="1386" y="250" on="0"/>
        <pt x="1402" y="256" on="0"/>
        <pt x="1414" y="256" on="1"/>
      </contour>
      <contour>
        <pt x="797" y="385" on="1"/>
        <pt x="802" y="390" on="0"/>
        <pt x="804" y="399" on="0"/>
        <pt x="804" y="404" on="1"/>
        <pt x="804" y="412" on="0"/>
        <pt x="801" y="424" on="0"/>
        <pt x="801" y="423" on="1"/>
        <pt x="802" y="425" on="0"/>
        <pt x="806" y="427" on="0"/>
        <pt x="810" y="433" on="0"/>
        <pt x="813" y="444" on="0"/>
        <pt x="813" y="455" on="1"/>
        <pt x="813" y="460" on="0"/>
        <pt x="812" y="469" on="0"/>
        <pt x="812" y="474" on="1"/>
        <pt x="812" y="496" on="0"/>
        <pt x="818" y="544" on="0"/>
        <pt x="826" y="588" on="0"/>
        <pt x="832" y="626" on="0"/>
        <pt x="832" y="639" on="1"/>
        <pt x="838" y="661" on="1"/>
        <pt x="841" y="675" on="0"/>
        <pt x="848" y="713" on="0"/>
        <pt x="856" y="757" on="0"/>
        <pt x="863" y="802" on="0"/>
        <pt x="866" y="823" on="1"/>
        <pt x="868" y="905" on="1"/>
        <pt x="866" y="908" on="0"/>
        <pt x="865" y="908" on="1"/>
        <pt x="863" y="908" on="1"/>
        <pt x="828" y="873" on="0"/>
        <pt x="776" y="790" on="0"/>
        <pt x="745" y="751" on="1"/>
        <pt x="719" y="719" on="0"/>
        <pt x="660" y="657" on="0"/>
        <pt x="634" y="624" on="1"/>
        <pt x="607" y="589" on="0"/>
        <pt x="560" y="516" on="0"/>
        <pt x="534" y="482" on="1"/>
        <pt x="508" y="447" on="0"/>
        <pt x="449" y="379" on="0"/>
        <pt x="433" y="340" on="1"/>
        <pt x="466" y="340" on="0"/>
        <pt x="536" y="347" on="0"/>
        <pt x="605" y="356" on="0"/>
        <pt x="672" y="366" on="0"/>
        <pt x="703" y="370" on="1"/>
        <pt x="717" y="372" on="0"/>
        <pt x="744" y="372" on="0"/>
        <pt x="769" y="373" on="0"/>
        <pt x="789" y="378" on="0"/>
      </contour>
    </TTGlyph>
    <TTGlyph name="AEacute" xMin="-42" yMin="-49" xMax="1457" yMax="1417">
      <component glyphName="AE" x="0" y="0" flags="0x204"/>
      <component glyphName="acute" x="1065" y="333" flags="0x4"/>
    </TTGlyph>
    <TTGlyph name="Aacute" xMin="-28" yMin="-39" xMax="1017" yMax="1422">
      <component glyphName="A" x="0" y="0" flags="0x204"/>
      <component glyphName="acute" x="613" y="338" flags="0x4"/>
    </TTGlyph>
    <TTGlyph name="Abreve" xMin="-28" yMin="-39" xMax="1017" yMax="1419">
      <component glyphName="A" x="0" y="0" flags="0x204"/>
      <component glyphName="breve" x="500" y="304" flags="0x4"/>
    </TTGlyph>
    <TTGlyph name="Acircumflex" xMin="-28" yMin="-39" xMax="1017" yMax="1400">
      <component glyphName="A" x="0" y="0" flags="0x204"/>
      <component glyphName="circumflex" x="478" y="255" flags="0x4"/>
    </TTGlyph>
    <TTGlyph name="Adieresis" xMin="-28" yMin="-39" xMax="1017" yMax="1403">
      <component glyphName="A" x="0" y="0" flags="0x204"/>
      <component glyphName="dieresis" x="516" y="342" flags="0x4"/>
    </TTGlyph>
    <TTGlyph name="Agrave" xMin="-28" yMin="-39" xMax="1017" yMax="1408">
      <component glyphName="A" x="0" y="0" flags="0x204"/>
      <component glyphName="grave" x="345" y="304" flags="0x4"/>
    </TTGlyph>
    <TTGlyph name="Amacron" xMin="-28" yMin="-39" xMax="1017" yMax="1310">
      <component glyphName="A" x="0" y="0" flags="0x204"/>
      <component glyphName="macron" x="402" y="237" flags="0x4"/>
    </TTGlyph>
    <TTGlyph name="Aogonek" xMin="-28" yMin="-351" xMax="1017" yMax="1120">
      <contour>
        <pt x="934" y="-249" on="1"/>
        <pt x="932" y="-257" on="0"/>
        <pt x="916" y="-291" on="0"/>
        <pt x="894" y="-325" on="0"/>
        <pt x="871" y="-351" on="0"/>
        <pt x="864" y="-351" on="1"/>
        <pt x="858" y="-351" on="0"/>
        <pt x="851" y="-345" on="0"/>
        <pt x="846" y="-338" on="0"/>
        <pt x="841" y="-332" on="0"/>
        <pt x="837" y="-332" on="1"/>
        <pt x="835" y="-332" on="0"/>
        <pt x="831" y="-333" on="0"/>
        <pt x="829" y="-333" on="1"/>
        <pt x="826" y="-333" on="0"/>
        <pt x="826" y="-331" on="1"/>
        <pt x="826" y="-329" on="0"/>
        <pt x="827" y="-325" on="0"/>
        <pt x="827" y="-323" on="1"/>
        <pt x="827" y="-320" on="0"/>
        <pt x="813" y="-308" on="0"/>
        <pt x="793" y="-293" on="0"/>
        <pt x="773" y="-279" on="0"/>
        <pt x="767" y="-273" on="1"/>
        <pt x="763" y="-270" on="0"/>
        <pt x="759" y="-257" on="0"/>
        <pt x="755" y="-254" on="1"/>
        <pt x="750" y="-252" on="0"/>
        <pt x="739" y="-253" on="0"/>
        <pt x="737" y="-249" on="1"/>
        <pt x="737" y="-250" on="0"/>
        <pt x="736" y="-230" on="0"/>
        <pt x="731" y="-219" on="1"/>
        <pt x="729" y="-215" on="0"/>
        <pt x="721" y="-197" on="0"/>
        <pt x="713" y="-177" on="0"/>
        <pt x="707" y="-157" on="0"/>
        <pt x="707" y="-150" on="1"/>
        <pt x="707" y="-146" on="0"/>
        <pt x="709" y="-129" on="0"/>
        <pt x="712" y="-110" on="0"/>
        <pt x="717" y="-92" on="0"/>
        <pt x="719" y="-87" on="1"/>
        <pt x="724" y="-84" on="0"/>
        <pt x="728" y="-80" on="1"/>
        <pt x="736" y="-72" on="0"/>
        <pt x="743" y="-58" on="1"/>
        <pt x="743" y="-56" on="1"/>
        <pt x="743" y="-54" on="0"/>
        <pt x="742" y="-50" on="0"/>
        <pt x="742" y="-48" on="1"/>
        <pt x="748" y="-40" on="0"/>
        <pt x="753" y="-32" on="1"/>
        <pt x="758" y="-25" on="0"/>
        <pt x="768" y="-10" on="0"/>
        <pt x="772" y="-2" on="1"/>
        <pt x="767" y="-1" on="0"/>
        <pt x="760" y="-1" on="0"/>
        <pt x="755" y="-1" on="1"/>
        <pt x="740" y="-1" on="0"/>
        <pt x="699" y="-15" on="0"/>
        <pt x="677" y="-15" on="1"/>
        <pt x="654" y="-15" on="0"/>
        <pt x="623" y="4" on="0"/>
        <pt x="623" y="15" on="1"/>
        <pt x="623" y="31" on="0"/>
        <pt x="659" y="37" on="0"/>
        <pt x="681" y="37" on="1"/>
        <pt x="697" y="37" on="1"/>
        <pt x="710" y="37" on="0"/>
        <pt x="727" y="36" on="0"/>
        <pt x="737" y="44" on="0"/>
        <pt x="741" y="65" on="0"/>
        <pt x="741" y="87" on="1"/>
        <pt x="741" y="104" on="0"/>
        <pt x="739" y="140" on="0"/>
        <pt x="737" y="156" on="1"/>
        <pt x="735" y="170" on="0"/>
        <pt x="723" y="198" on="0"/>
        <pt x="721" y="209" on="1"/>
        <pt x="719" y="221" on="0"/>
        <pt x="719" y="256" on="0"/>
        <pt x="715" y="289" on="0"/>
        <pt x="703" y="312" on="0"/>
        <pt x="689" y="312" on="1"/>
        <pt x="681" y="312" on="0"/>
        <pt x="657" y="308" on="0"/>
        <pt x="640" y="306" on="1"/>
        <pt x="589" y="301" on="0"/>
        <pt x="487" y="297" on="0"/>
        <pt x="430" y="290" on="1"/>
        <pt x="384" y="284" on="0"/>
        <pt x="328" y="276" on="0"/>
        <pt x="288" y="248" on="0"/>
        <pt x="257" y="186" on="0"/>
        <pt x="237" y="126" on="1"/>
        <pt x="235" y="121" on="0"/>
        <pt x="218" y="101" on="0"/>
        <pt x="218" y="87" on="1"/>
        <pt x="218" y="72" on="0"/>
        <pt x="242" y="58" on="0"/>
        <pt x="275" y="51" on="0"/>
        <pt x="308" y="45" on="0"/>
        <pt x="318" y="37" on="1"/>
        <pt x="318" y="21" on="0"/>
        <pt x="280" y="3" on="0"/>
        <pt x="227" y="-7" on="0"/>
        <pt x="172" y="-12" on="0"/>
        <pt x="154" y="-15" on="1"/>
        <pt x="151" y="-16" on="0"/>
        <pt x="119" y="-23" on="0"/>
        <pt x="76" y="-32" on="0"/>
        <pt x="29" y="-39" on="0"/>
        <pt x="10" y="-39" on="1"/>
        <pt x="-8" y="-39" on="0"/>
        <pt x="-28" y="-31" on="0"/>
        <pt x="-28" y="-20" on="1"/>
        <pt x="-28" y="3" on="0"/>
        <pt x="0" y="22" on="0"/>
        <pt x="37" y="28" on="0"/>
        <pt x="72" y="27" on="0"/>
        <pt x="80" y="30" on="1"/>
        <pt x="82" y="31" on="0"/>
        <pt x="94" y="38" on="0"/>
        <pt x="107" y="47" on="0"/>
        <pt x="117" y="57" on="0"/>
        <pt x="117" y="60" on="1"/>
        <pt x="117" y="62" on="0"/>
        <pt x="116" y="68" on="0"/>
        <pt x="116" y="70" on="1"/>
        <pt x="116" y="74" on="0"/>
        <pt x="130" y="86" on="0"/>
        <pt x="148" y="99" on="0"/>
        <pt x="162" y="111" on="0"/>
        <pt x="162" y="114" on="1"/>
        <pt x="162" y="116" on="0"/>
        <pt x="160" y="122" on="0"/>
        <pt x="160" y="124" on="1"/>
        <pt x="161" y="126" on="0"/>
        <pt x="161" y="126" on="1"/>
        <pt x="165" y="130" on="0"/>
        <pt x="175" y="149" on="0"/>
        <pt x="184" y="173" on="0"/>
        <pt x="194" y="198" on="0"/>
        <pt x="199" y="209" on="1"/>
        <pt x="207" y="227" on="0"/>
        <pt x="229" y="259" on="0"/>
        <pt x="237" y="276" on="1"/>
        <pt x="257" y="315" on="0"/>
        <pt x="292" y="399" on="0"/>
        <pt x="318" y="440" on="1"/>
        <pt x="323" y="448" on="0"/>
        <pt x="329" y="455" on="0"/>
        <pt x="333" y="470" on="1"/>
        <pt x="335" y="479" on="0"/>
        <pt x="356" y="504" on="0"/>
        <pt x="356" y="515" on="1"/>
        <pt x="356" y="518" on="0"/>
        <pt x="355" y="524" on="0"/>
        <pt x="355" y="527" on="1"/>
        <pt x="355" y="526" on="0"/>
        <pt x="368" y="554" on="0"/>
        <pt x="389" y="596" on="0"/>
        <pt x="412" y="645" on="0"/>
        <pt x="423" y="664" on="1"/>
        <pt x="423" y="666" on="1"/>
        <pt x="423" y="668" on="0"/>
        <pt x="422" y="675" on="0"/>
        <pt x="422" y="677" on="1"/>
        <pt x="422" y="678" on="0"/>
        <pt x="423" y="679" on="1"/>
        <pt x="430" y="684" on="0"/>
        <pt x="431" y="709" on="0"/>
        <pt x="438" y="724" on="1"/>
        <pt x="440" y="729" on="0"/>
        <pt x="457" y="740" on="0"/>
        <pt x="461" y="746" on="1"/>
        <pt x="465" y="755" on="0"/>
        <pt x="464" y="769" on="0"/>
        <pt x="468" y="776" on="1"/>
        <pt x="471" y="782" on="0"/>
        <pt x="491" y="818" on="0"/>
        <pt x="515" y="865" on="0"/>
        <pt x="537" y="917" on="0"/>
        <pt x="542" y="940" on="1"/>
        <pt x="535" y="945" on="0"/>
        <pt x="531" y="945" on="1"/>
        <pt x="525" y="945" on="0"/>
        <pt x="513" y="937" on="0"/>
        <pt x="499" y="926" on="0"/>
        <pt x="485" y="918" on="0"/>
        <pt x="478" y="918" on="1"/>
        <pt x="473" y="918" on="0"/>
        <pt x="458" y="926" on="0"/>
        <pt x="458" y="936" on="1"/>
        <pt x="458" y="942" on="0"/>
        <pt x="467" y="952" on="0"/>
        <pt x="479" y="961" on="0"/>
        <pt x="489" y="971" on="0"/>
        <pt x="490" y="978" on="1"/>
        <pt x="491" y="988" on="0"/>
        <pt x="515" y="1006" on="0"/>
        <pt x="543" y="1020" on="0"/>
        <pt x="565" y="1030" on="0"/>
        <pt x="565" y="1032" on="1"/>
        <pt x="565" y="1034" on="0"/>
        <pt x="564" y="1039" on="0"/>
        <pt x="564" y="1042" on="1"/>
        <pt x="564" y="1047" on="0"/>
        <pt x="585" y="1052" on="0"/>
        <pt x="595" y="1060" on="1"/>
        <pt x="604" y="1068" on="0"/>
        <pt x="620" y="1087" on="0"/>
        <pt x="625" y="1090" on="1"/>
        <pt x="636" y="1095" on="0"/>
        <pt x="659" y="1092" on="0"/>
        <pt x="669" y="1097" on="1"/>
        <pt x="675" y="1100" on="0"/>
        <pt x="684" y="1120" on="0"/>
        <pt x="698" y="1120" on="1"/>
        <pt x="712" y="1120" on="0"/>
        <pt x="723" y="1116" on="0"/>
        <pt x="726" y="1107" on="0"/>
        <pt x="726" y="1092" on="0"/>
        <pt x="729" y="1082" on="1"/>
        <pt x="730" y="1079" on="0"/>
        <pt x="739" y="1066" on="0"/>
        <pt x="749" y="1052" on="0"/>
        <pt x="758" y="1036" on="0"/>
        <pt x="759" y="1030" on="1"/>
        <pt x="761" y="1018" on="0"/>
        <pt x="762" y="979" on="0"/>
        <pt x="762" y="936" on="0"/>
        <pt x="763" y="895" on="0"/>
        <pt x="766" y="881" on="1"/>
        <pt x="769" y="864" on="0"/>
        <pt x="775" y="839" on="0"/>
        <pt x="775" y="823" on="1"/>
        <pt x="775" y="811" on="0"/>
        <pt x="769" y="802" on="0"/>
        <pt x="769" y="798" on="1"/>
        <pt x="769" y="796" on="0"/>
        <pt x="775" y="766" on="0"/>
        <pt x="781" y="746" on="1"/>
        <pt x="792" y="723" on="0"/>
        <pt x="804" y="666" on="0"/>
        <pt x="811" y="606" on="0"/>
        <pt x="816" y="547" on="0"/>
        <pt x="819" y="522" on="1"/>
        <pt x="821" y="505" on="0"/>
        <pt x="833" y="474" on="0"/>
        <pt x="834" y="458" on="1"/>
        <pt x="834" y="451" on="0"/>
        <pt x="832" y="438" on="0"/>
        <pt x="832" y="432" on="1"/>
        <pt x="832" y="419" on="0"/>
        <pt x="847" y="392" on="0"/>
        <pt x="849" y="380" on="1"/>
        <pt x="852" y="351" on="0"/>
        <pt x="850" y="284" on="0"/>
        <pt x="856" y="254" on="1"/>
        <pt x="859" y="239" on="0"/>
        <pt x="872" y="212" on="0"/>
        <pt x="872" y="194" on="1"/>
        <pt x="872" y="184" on="0"/>
        <pt x="870" y="164" on="0"/>
        <pt x="870" y="155" on="1"/>
        <pt x="870" y="146" on="0"/>
        <pt x="871" y="142" on="1"/>
        <pt x="871" y="139" on="0"/>
        <pt x="879" y="116" on="0"/>
        <pt x="890" y="89" on="0"/>
        <pt x="899" y="67" on="0"/>
        <pt x="901" y="66" on="1"/>
        <pt x="908" y="61" on="0"/>
        <pt x="924" y="61" on="1"/>
        <pt x="940" y="61" on="0"/>
        <pt x="977" y="69" on="0"/>
        <pt x="991" y="69" on="1"/>
        <pt x="1005" y="69" on="0"/>
        <pt x="1017" y="55" on="0"/>
        <pt x="1017" y="44" on="1"/>
        <pt x="1017" y="29" on="0"/>
        <pt x="983" y="21" on="0"/>
        <pt x="937" y="20" on="0"/>
        <pt x="891" y="20" on="0"/>
        <pt x="878" y="14" on="1"/>
        <pt x="876" y="13" on="0"/>
        <pt x="858" y="5" on="0"/>
        <pt x="836" y="-5" on="0"/>
        <pt x="819" y="-14" on="0"/>
        <pt x="819" y="-15" on="1"/>
        <pt x="817" y="-15" on="1"/>
        <pt x="812" y="-15" on="0"/>
        <pt x="802" y="-11" on="0"/>
        <pt x="795" y="-9" on="1"/>
        <pt x="786" y="-33" on="0"/>
        <pt x="776" y="-57" on="0"/>
        <pt x="771" y="-72" on="0"/>
        <pt x="769" y="-84" on="0"/>
        <pt x="769" y="-94" on="1"/>
        <pt x="769" y="-100" on="0"/>
        <pt x="776" y="-119" on="0"/>
        <pt x="786" y="-135" on="0"/>
        <pt x="794" y="-147" on="0"/>
        <pt x="796" y="-147" on="1"/>
        <pt x="797" y="-147" on="1"/>
        <pt x="797" y="-149" on="0"/>
        <pt x="808" y="-163" on="0"/>
        <pt x="822" y="-178" on="0"/>
        <pt x="835" y="-192" on="0"/>
        <pt x="838" y="-195" on="1"/>
        <pt x="843" y="-200" on="0"/>
        <pt x="861" y="-202" on="0"/>
        <pt x="869" y="-207" on="1"/>
        <pt x="875" y="-211" on="0"/>
        <pt x="889" y="-225" on="0"/>
        <pt x="904" y="-239" on="0"/>
        <pt x="922" y="-249" on="0"/>
      </contour>
      <contour>
        <pt x="692" y="395" on="1"/>
        <pt x="695" y="399" on="0"/>
        <pt x="695" y="405" on="1"/>
        <pt x="695" y="415" on="0"/>
        <pt x="685" y="434" on="0"/>
        <pt x="685" y="433" on="1"/>
        <pt x="685" y="435" on="0"/>
        <pt x="692" y="439" on="0"/>
        <pt x="692" y="447" on="1"/>
        <pt x="690" y="462" on="0"/>
        <pt x="679" y="493" on="0"/>
        <pt x="677" y="507" on="1"/>
        <pt x="670" y="548" on="0"/>
        <pt x="661" y="626" on="0"/>
        <pt x="654" y="649" on="1"/>
        <pt x="654" y="671" on="1"/>
        <pt x="652" y="688" on="0"/>
        <pt x="648" y="738" on="0"/>
        <pt x="642" y="793" on="0"/>
        <pt x="635" y="848" on="0"/>
        <pt x="626" y="891" on="0"/>
        <pt x="616" y="918" on="0"/>
        <pt x="611" y="918" on="1"/>
        <pt x="609" y="918" on="1"/>
        <pt x="596" y="901" on="0"/>
        <pt x="578" y="862" on="0"/>
        <pt x="561" y="821" on="0"/>
        <pt x="545" y="780" on="0"/>
        <pt x="535" y="761" on="1"/>
        <pt x="518" y="729" on="0"/>
        <pt x="477" y="667" on="0"/>
        <pt x="461" y="634" on="1"/>
        <pt x="444" y="600" on="0"/>
        <pt x="417" y="527" on="0"/>
        <pt x="401" y="492" on="1"/>
        <pt x="384" y="457" on="0"/>
        <pt x="346" y="389" on="0"/>
        <pt x="341" y="350" on="1"/>
        <pt x="407" y="350" on="0"/>
        <pt x="542" y="372" on="0"/>
        <pt x="602" y="380" on="1"/>
        <pt x="615" y="382" on="0"/>
        <pt x="643" y="382" on="0"/>
        <pt x="667" y="383" on="0"/>
        <pt x="686" y="388" on="0"/>
      </contour>
    </TTGlyph>
    <TTGlyph name="Aring" xMin="-28" yMin="-39" xMax="1017" yMax="1477">
      <component glyphName="A" x="0" y="0" flags="0x204"/>
      <component glyphName="ring" x="528" y="304" flags="0x4"/>
    </TTGlyph>
    <TTGlyph name="Atilde" xMin="-28" yMin="-39" xMax="1017" yMax="1393">
      <component glyphName="A" x="0" y="0" flags="0x204"/>
      <component glyphName="tilde" x="372" y="285" flags="0x4"/>
    </TTGlyph>
    <TTGlyph name="B" xMin="98" yMin="-29" xMax="908" yMax="1234">
      <contour>
        <pt x="908" y="846" on="1"/>
        <pt x="908" y="837" on="0"/>
        <pt x="889" y="805" on="0"/>
        <pt x="862" y="771" on="0"/>
        <pt x="835" y="741" on="0"/>
        <pt x="826" y="734" on="1"/>
        <pt x="821" y="730" on="0"/>
        <pt x="806" y="726" on="0"/>
        <pt x="796" y="719" on="1"/>
        <pt x="790" y="715" on="0"/>
        <pt x="781" y="702" on="0"/>
        <pt x="773" y="697" on="1"/>
        <pt x="767" y="692" on="0"/>
        <pt x="748" y="682" on="0"/>
        <pt x="732" y="672" on="0"/>
        <pt x="720" y="660" on="0"/>
        <pt x="720" y="653" on="1"/>
        <pt x="720" y="643" on="0"/>
        <pt x="732" y="623" on="0"/>
        <pt x="748" y="605" on="0"/>
        <pt x="767" y="587" on="0"/>
        <pt x="773" y="578" on="1"/>
        <pt x="782" y="565" on="0"/>
        <pt x="793" y="543" on="0"/>
        <pt x="802" y="521" on="0"/>
        <pt x="810" y="500" on="0"/>
        <pt x="818" y="488" on="1"/>
        <pt x="826" y="475" on="0"/>
        <pt x="841" y="437" on="0"/>
        <pt x="849" y="421" on="1"/>
        <pt x="853" y="412" on="0"/>
        <pt x="857" y="409" on="0"/>
        <pt x="861" y="397" on="0"/>
        <pt x="866" y="367" on="0"/>
        <pt x="871" y="331" on="1"/>
        <pt x="873" y="316" on="0"/>
        <pt x="885" y="292" on="0"/>
        <pt x="885" y="282" on="1"/>
        <pt x="885" y="278" on="0"/>
        <pt x="869" y="248" on="0"/>
        <pt x="844" y="212" on="0"/>
        <pt x="816" y="176" on="0"/>
        <pt x="804" y="166" on="1"/>
        <pt x="798" y="162" on="0"/>
        <pt x="780" y="157" on="0"/>
        <pt x="773" y="152" on="1"/>
        <pt x="768" y="147" on="0"/>
        <pt x="764" y="128" on="0"/>
        <pt x="759" y="122" on="1"/>
        <pt x="753" y="116" on="0"/>
        <pt x="735" y="112" on="0"/>
        <pt x="729" y="107" on="1"/>
        <pt x="718" y="98" on="0"/>
        <pt x="696" y="72" on="0"/>
        <pt x="684" y="62" on="1"/>
        <pt x="678" y="57" on="0"/>
        <pt x="660" y="52" on="0"/>
        <pt x="654" y="47" on="1"/>
        <pt x="650" y="44" on="0"/>
        <pt x="651" y="36" on="0"/>
        <pt x="647" y="32" on="1"/>
        <pt x="643" y="29" on="0"/>
        <pt x="621" y="22" on="0"/>
        <pt x="592" y="13" on="0"/>
        <pt x="561" y="5" on="0"/>
        <pt x="549" y="2" on="1"/>
        <pt x="547" y="2" on="0"/>
        <pt x="542" y="3" on="0"/>
        <pt x="539" y="3" on="1"/>
        <pt x="533" y="3" on="0"/>
        <pt x="506" y="-1" on="0"/>
        <pt x="461" y="-8" on="0"/>
        <pt x="394" y="-16" on="0"/>
        <pt x="348" y="-20" on="1"/>
        <pt x="335" y="-22" on="0"/>
        <pt x="311" y="-28" on="0"/>
        <pt x="303" y="-27" on="1"/>
        <pt x="286" y="-27" on="0"/>
        <pt x="252" y="-20" on="0"/>
        <pt x="236" y="-20" on="1"/>
        <pt x="213" y="-20" on="0"/>
        <pt x="153" y="-29" on="0"/>
        <pt x="120" y="-29" on="1"/>
        <pt x="112" y="-29" on="0"/>
        <pt x="98" y="-26" on="0"/>
        <pt x="98" y="-18" on="1"/>
        <pt x="98" y="-7" on="0"/>
        <pt x="123" y="7" on="0"/>
        <pt x="132" y="18" on="1"/>
        <pt x="140" y="28" on="0"/>
        <pt x="150" y="53" on="0"/>
        <pt x="161" y="62" on="1"/>
        <pt x="168" y="68" on="0"/>
        <pt x="185" y="75" on="0"/>
        <pt x="202" y="82" on="0"/>
        <pt x="216" y="91" on="0"/>
        <pt x="221" y="99" on="1"/>
        <pt x="223" y="103" on="0"/>
        <pt x="226" y="132" on="0"/>
        <pt x="230" y="167" on="0"/>
        <pt x="234" y="202" on="0"/>
        <pt x="236" y="211" on="1"/>
        <pt x="239" y="225" on="0"/>
        <pt x="249" y="255" on="0"/>
        <pt x="259" y="282" on="0"/>
        <pt x="266" y="305" on="0"/>
        <pt x="266" y="313" on="1"/>
        <pt x="266" y="320" on="0"/>
        <pt x="264" y="339" on="0"/>
        <pt x="264" y="350" on="1"/>
        <pt x="264" y="364" on="0"/>
        <pt x="273" y="375" on="0"/>
        <pt x="273" y="376" on="1"/>
        <pt x="275" y="383" on="0"/>
        <pt x="279" y="395" on="0"/>
        <pt x="279" y="402" on="1"/>
        <pt x="279" y="412" on="0"/>
        <pt x="269" y="426" on="0"/>
        <pt x="256" y="438" on="0"/>
        <pt x="246" y="449" on="0"/>
        <pt x="246" y="456" on="1"/>
        <pt x="246" y="465" on="0"/>
        <pt x="262" y="483" on="0"/>
        <pt x="280" y="496" on="0"/>
        <pt x="296" y="504" on="0"/>
        <pt x="296" y="504" on="1"/>
        <pt x="296" y="507" on="0"/>
        <pt x="295" y="513" on="0"/>
        <pt x="295" y="515" on="1"/>
        <pt x="295" y="519" on="0"/>
        <pt x="301" y="524" on="0"/>
        <pt x="301" y="529" on="1"/>
        <pt x="301" y="542" on="1"/>
        <pt x="301" y="547" on="0"/>
        <pt x="301" y="561" on="0"/>
        <pt x="303" y="570" on="1"/>
        <pt x="305" y="575" on="0"/>
        <pt x="318" y="608" on="0"/>
        <pt x="318" y="623" on="1"/>
        <pt x="318" y="631" on="0"/>
        <pt x="311" y="648" on="0"/>
        <pt x="311" y="656" on="1"/>
        <pt x="313" y="659" on="0"/>
        <pt x="319" y="689" on="0"/>
        <pt x="326" y="732" on="0"/>
        <pt x="333" y="784" on="0"/>
        <pt x="340" y="834" on="0"/>
        <pt x="346" y="878" on="0"/>
        <pt x="348" y="891" on="1"/>
        <pt x="349" y="898" on="0"/>
        <pt x="361" y="917" on="0"/>
        <pt x="363" y="928" on="1"/>
        <pt x="365" y="938" on="0"/>
        <pt x="368" y="968" on="0"/>
        <pt x="369" y="994" on="0"/>
        <pt x="370" y="1011" on="0"/>
        <pt x="370" y="1010" on="1"/>
        <pt x="365" y="1019" on="0"/>
        <pt x="345" y="1025" on="0"/>
        <pt x="333" y="1025" on="1"/>
        <pt x="316" y="1025" on="0"/>
        <pt x="275" y="1018" on="0"/>
        <pt x="258" y="1018" on="1"/>
        <pt x="252" y="1018" on="0"/>
        <pt x="248" y="1020" on="0"/>
        <pt x="245" y="1020" on="1"/>
        <pt x="228" y="1020" on="0"/>
        <pt x="202" y="1000" on="0"/>
        <pt x="181" y="976" on="0"/>
        <pt x="164" y="956" on="0"/>
        <pt x="155" y="956" on="1"/>
        <pt x="146" y="956" on="0"/>
        <pt x="143" y="968" on="0"/>
        <pt x="143" y="973" on="1"/>
        <pt x="143" y="986" on="0"/>
        <pt x="159" y="1009" on="0"/>
        <pt x="181" y="1029" on="0"/>
        <pt x="205" y="1047" on="0"/>
        <pt x="213" y="1055" on="1"/>
        <pt x="221" y="1062" on="0"/>
        <pt x="246" y="1090" on="0"/>
        <pt x="274" y="1118" on="0"/>
        <pt x="303" y="1138" on="0"/>
        <pt x="315" y="1138" on="1"/>
        <pt x="338" y="1138" on="0"/>
        <pt x="392" y="1122" on="0"/>
        <pt x="415" y="1122" on="1"/>
        <pt x="426" y="1124" on="0"/>
        <pt x="440" y="1130" on="0"/>
        <pt x="455" y="1140" on="0"/>
        <pt x="474" y="1155" on="0"/>
        <pt x="490" y="1167" on="1"/>
        <pt x="493" y="1169" on="0"/>
        <pt x="513" y="1180" on="0"/>
        <pt x="513" y="1183" on="1"/>
        <pt x="513" y="1185" on="0"/>
        <pt x="511" y="1191" on="0"/>
        <pt x="511" y="1193" on="1"/>
        <pt x="511" y="1197" on="0"/>
        <pt x="530" y="1219" on="0"/>
        <pt x="535" y="1234" on="1"/>
        <pt x="539" y="1234" on="1"/>
        <pt x="548" y="1234" on="0"/>
        <pt x="549" y="1227" on="1"/>
        <pt x="548" y="1223" on="0"/>
        <pt x="548" y="1216" on="1"/>
        <pt x="548" y="1207" on="0"/>
        <pt x="550" y="1190" on="0"/>
        <pt x="550" y="1179" on="1"/>
        <pt x="550" y="1171" on="0"/>
        <pt x="545" y="1152" on="0"/>
        <pt x="540" y="1133" on="0"/>
        <pt x="535" y="1119" on="0"/>
        <pt x="535" y="1116" on="1"/>
        <pt x="535" y="1110" on="0"/>
        <pt x="549" y="1104" on="0"/>
        <pt x="570" y="1100" on="0"/>
        <pt x="593" y="1097" on="0"/>
        <pt x="602" y="1093" on="1"/>
        <pt x="600" y="1087" on="0"/>
        <pt x="636" y="1073" on="0"/>
        <pt x="684" y="1056" on="0"/>
        <pt x="730" y="1036" on="0"/>
        <pt x="737" y="1026" on="1"/>
        <pt x="740" y="1020" on="0"/>
        <pt x="739" y="1007" on="0"/>
        <pt x="744" y="1003" on="1"/>
        <pt x="749" y="998" on="0"/>
        <pt x="767" y="1000" on="0"/>
        <pt x="773" y="995" on="1"/>
        <pt x="778" y="993" on="0"/>
        <pt x="778" y="980" on="0"/>
        <pt x="784" y="980" on="1"/>
        <pt x="786" y="980" on="0"/>
        <pt x="791" y="981" on="0"/>
        <pt x="793" y="981" on="1"/>
        <pt x="797" y="981" on="0"/>
        <pt x="804" y="971" on="0"/>
        <pt x="810" y="958" on="0"/>
        <pt x="815" y="946" on="0"/>
        <pt x="818" y="943" on="1"/>
        <pt x="828" y="934" on="0"/>
        <pt x="851" y="926" on="0"/>
        <pt x="856" y="921" on="1"/>
        <pt x="858" y="918" on="0"/>
        <pt x="867" y="890" on="0"/>
        <pt x="878" y="876" on="1"/>
        <pt x="884" y="868" on="0"/>
        <pt x="908" y="849" on="0"/>
      </contour>
      <contour>
        <pt x="751" y="249" on="1"/>
        <pt x="747" y="279" on="0"/>
        <pt x="739" y="313" on="0"/>
        <pt x="731" y="332" on="0"/>
        <pt x="724" y="341" on="0"/>
        <pt x="721" y="346" on="1"/>
        <pt x="718" y="352" on="0"/>
        <pt x="716" y="363" on="0"/>
        <pt x="714" y="368" on="1"/>
        <pt x="710" y="375" on="0"/>
        <pt x="701" y="384" on="0"/>
        <pt x="699" y="390" on="1"/>
        <pt x="695" y="400" on="0"/>
        <pt x="693" y="420" on="0"/>
        <pt x="691" y="439" on="0"/>
        <pt x="688" y="457" on="0"/>
        <pt x="684" y="466" on="1"/>
        <pt x="682" y="469" on="0"/>
        <pt x="671" y="482" on="0"/>
        <pt x="658" y="497" on="0"/>
        <pt x="645" y="512" on="0"/>
        <pt x="639" y="518" on="1"/>
        <pt x="634" y="523" on="0"/>
        <pt x="614" y="529" on="0"/>
        <pt x="609" y="533" on="1"/>
        <pt x="607" y="535" on="0"/>
        <pt x="604" y="545" on="0"/>
        <pt x="602" y="547" on="1"/>
        <pt x="588" y="560" on="0"/>
        <pt x="577" y="560" on="1"/>
        <pt x="560" y="560" on="0"/>
        <pt x="498" y="510" on="0"/>
        <pt x="445" y="466" on="1"/>
        <pt x="441" y="461" on="0"/>
        <pt x="427" y="461" on="0"/>
        <pt x="423" y="458" on="1"/>
        <pt x="415" y="452" on="0"/>
        <pt x="408" y="427" on="0"/>
        <pt x="404" y="397" on="0"/>
        <pt x="402" y="366" on="0"/>
        <pt x="401" y="354" on="1"/>
        <pt x="396" y="318" on="0"/>
        <pt x="382" y="260" on="0"/>
        <pt x="369" y="204" on="0"/>
        <pt x="359" y="144" on="0"/>
        <pt x="356" y="107" on="1"/>
        <pt x="376" y="102" on="0"/>
        <pt x="422" y="99" on="0"/>
        <pt x="447" y="99" on="1"/>
        <pt x="492" y="99" on="0"/>
        <pt x="579" y="108" on="0"/>
        <pt x="609" y="114" on="1"/>
        <pt x="619" y="116" on="0"/>
        <pt x="653" y="121" on="0"/>
        <pt x="688" y="127" on="0"/>
        <pt x="716" y="133" on="0"/>
        <pt x="721" y="137" on="1"/>
        <pt x="724" y="138" on="0"/>
        <pt x="735" y="160" on="0"/>
        <pt x="747" y="185" on="0"/>
        <pt x="756" y="207" on="0"/>
        <pt x="756" y="209" on="1"/>
        <pt x="756" y="215" on="0"/>
        <pt x="753" y="234" on="0"/>
      </contour>
      <contour>
        <pt x="766" y="802" on="1"/>
        <pt x="766" y="809" on="0"/>
        <pt x="754" y="817" on="0"/>
        <pt x="744" y="831" on="1"/>
        <pt x="738" y="839" on="0"/>
        <pt x="719" y="869" on="0"/>
        <pt x="697" y="898" on="0"/>
        <pt x="676" y="921" on="0"/>
        <pt x="669" y="921" on="1"/>
        <pt x="656" y="929" on="0"/>
        <pt x="646" y="936" on="1"/>
        <pt x="638" y="941" on="0"/>
        <pt x="624" y="951" on="0"/>
        <pt x="624" y="950" on="1"/>
        <pt x="609" y="956" on="0"/>
        <pt x="591" y="960" on="0"/>
        <pt x="580" y="966" on="1"/>
        <pt x="577" y="968" on="0"/>
        <pt x="568" y="979" on="0"/>
        <pt x="565" y="981" on="1"/>
        <pt x="550" y="985" on="0"/>
        <pt x="523" y="988" on="0"/>
        <pt x="518" y="988" on="1"/>
        <pt x="515" y="988" on="0"/>
        <pt x="501" y="959" on="0"/>
        <pt x="486" y="917" on="0"/>
        <pt x="474" y="868" on="0"/>
        <pt x="474" y="847" on="1"/>
        <pt x="474" y="837" on="0"/>
        <pt x="475" y="820" on="0"/>
        <pt x="475" y="812" on="1"/>
        <pt x="475" y="801" on="0"/>
        <pt x="468" y="785" on="0"/>
        <pt x="459" y="769" on="0"/>
        <pt x="452" y="751" on="0"/>
        <pt x="452" y="739" on="1"/>
        <pt x="452" y="734" on="0"/>
        <pt x="453" y="724" on="0"/>
        <pt x="453" y="719" on="1"/>
        <pt x="452" y="693" on="0"/>
        <pt x="437" y="649" on="0"/>
        <pt x="437" y="627" on="1"/>
        <pt x="437" y="616" on="0"/>
        <pt x="445" y="596" on="0"/>
        <pt x="445" y="585" on="1"/>
        <pt x="441" y="585" on="0"/>
        <pt x="436" y="576" on="0"/>
        <pt x="433" y="565" on="0"/>
        <pt x="432" y="557" on="0"/>
        <pt x="432" y="558" on="1"/>
        <pt x="434" y="552" on="1"/>
        <pt x="436" y="546" on="0"/>
        <pt x="442" y="546" on="1"/>
        <pt x="453" y="546" on="0"/>
        <pt x="475" y="558" on="0"/>
        <pt x="494" y="573" on="0"/>
        <pt x="509" y="589" on="0"/>
        <pt x="513" y="592" on="1"/>
        <pt x="518" y="597" on="0"/>
        <pt x="530" y="596" on="0"/>
        <pt x="535" y="600" on="1"/>
        <pt x="537" y="602" on="0"/>
        <pt x="540" y="612" on="0"/>
        <pt x="542" y="614" on="1"/>
        <pt x="547" y="619" on="0"/>
        <pt x="559" y="619" on="0"/>
        <pt x="565" y="622" on="1"/>
        <pt x="573" y="628" on="0"/>
        <pt x="585" y="640" on="0"/>
        <pt x="594" y="645" on="1"/>
        <pt x="602" y="649" on="0"/>
        <pt x="624" y="655" on="0"/>
        <pt x="632" y="659" on="1"/>
        <pt x="634" y="661" on="0"/>
        <pt x="637" y="672" on="0"/>
        <pt x="639" y="674" on="1"/>
        <pt x="644" y="678" on="0"/>
        <pt x="657" y="679" on="0"/>
        <pt x="661" y="682" on="1"/>
        <pt x="664" y="684" on="0"/>
        <pt x="666" y="695" on="0"/>
        <pt x="669" y="697" on="1"/>
        <pt x="674" y="701" on="0"/>
        <pt x="687" y="700" on="0"/>
        <pt x="692" y="704" on="1"/>
        <pt x="698" y="710" on="0"/>
        <pt x="723" y="737" on="0"/>
        <pt x="747" y="769" on="0"/>
        <pt x="766" y="796" on="0"/>
      </contour>
    </TTGlyph>
    <TTGlyph name="C" xMin="142" yMin="-41" xMax="1016" yMax="1171">
      <contour>
        <pt x="1016" y="1078" on="1"/>
        <pt x="1016" y="1074" on="0"/>
        <pt x="1008" y="1059" on="0"/>
        <pt x="996" y="1044" on="0"/>
        <pt x="983" y="1030" on="0"/>
        <pt x="978" y="1026" on="1"/>
        <pt x="974" y="1023" on="0"/>
        <pt x="960" y="1021" on="0"/>
        <pt x="956" y="1018" on="1"/>
        <pt x="948" y="1011" on="0"/>
        <pt x="931" y="993" on="0"/>
        <pt x="915" y="977" on="0"/>
        <pt x="900" y="966" on="0"/>
        <pt x="893" y="966" on="1"/>
        <pt x="867" y="966" on="0"/>
        <pt x="822" y="989" on="0"/>
        <pt x="766" y="1016" on="0"/>
        <pt x="689" y="1039" on="0"/>
        <pt x="629" y="1039" on="1"/>
        <pt x="609" y="1039" on="0"/>
        <pt x="569" y="1030" on="0"/>
        <pt x="552" y="1018" on="1"/>
        <pt x="538" y="1007" on="0"/>
        <pt x="510" y="973" on="0"/>
        <pt x="493" y="958" on="1"/>
        <pt x="483" y="949" on="0"/>
        <pt x="461" y="941" on="0"/>
        <pt x="456" y="936" on="1"/>
        <pt x="450" y="930" on="0"/>
        <pt x="439" y="906" on="0"/>
        <pt x="433" y="898" on="1"/>
        <pt x="421" y="883" on="0"/>
        <pt x="407" y="864" on="0"/>
        <pt x="396" y="846" on="1"/>
        <pt x="393" y="841" on="0"/>
        <pt x="384" y="836" on="0"/>
        <pt x="381" y="831" on="1"/>
        <pt x="378" y="827" on="0"/>
        <pt x="377" y="814" on="0"/>
        <pt x="373" y="809" on="1"/>
        <pt x="369" y="803" on="0"/>
        <pt x="363" y="796" on="0"/>
        <pt x="356" y="780" on="0"/>
        <pt x="345" y="749" on="0"/>
        <pt x="336" y="719" on="1"/>
        <pt x="335" y="715" on="0"/>
        <pt x="327" y="676" on="0"/>
        <pt x="321" y="659" on="1"/>
        <pt x="318" y="651" on="0"/>
        <pt x="298" y="629" on="0"/>
        <pt x="298" y="613" on="1"/>
        <pt x="298" y="606" on="0"/>
        <pt x="300" y="588" on="0"/>
        <pt x="300" y="578" on="1"/>
        <pt x="300" y="561" on="0"/>
        <pt x="284" y="536" on="0"/>
        <pt x="284" y="522" on="1"/>
        <pt x="284" y="511" on="0"/>
        <pt x="291" y="480" on="0"/>
        <pt x="292" y="466" on="1"/>
        <pt x="293" y="442" on="0"/>
        <pt x="294" y="392" on="0"/>
        <pt x="298" y="343" on="0"/>
        <pt x="306" y="297" on="0"/>
        <pt x="314" y="278" on="1"/>
        <pt x="314" y="276" on="1"/>
        <pt x="314" y="274" on="0"/>
        <pt x="313" y="269" on="0"/>
        <pt x="313" y="267" on="1"/>
        <pt x="313" y="264" on="0"/>
        <pt x="314" y="264" on="1"/>
        <pt x="322" y="257" on="0"/>
        <pt x="329" y="232" on="0"/>
        <pt x="339" y="199" on="0"/>
        <pt x="359" y="162" on="0"/>
        <pt x="381" y="144" on="1"/>
        <pt x="390" y="136" on="0"/>
        <pt x="423" y="124" on="0"/>
        <pt x="440" y="114" on="1"/>
        <pt x="458" y="103" on="0"/>
        <pt x="488" y="79" on="0"/>
        <pt x="493" y="77" on="1"/>
        <pt x="504" y="74" on="0"/>
        <pt x="547" y="71" on="0"/>
        <pt x="570" y="71" on="1"/>
        <pt x="600" y="71" on="0"/>
        <pt x="642" y="74" on="0"/>
        <pt x="676" y="82" on="0"/>
        <pt x="706" y="96" on="0"/>
        <pt x="724" y="107" on="1"/>
        <pt x="731" y="111" on="0"/>
        <pt x="749" y="117" on="0"/>
        <pt x="754" y="122" on="1"/>
        <pt x="763" y="130" on="0"/>
        <pt x="778" y="158" on="0"/>
        <pt x="792" y="166" on="1"/>
        <pt x="797" y="170" on="0"/>
        <pt x="816" y="169" on="0"/>
        <pt x="821" y="174" on="1"/>
        <pt x="829" y="182" on="0"/>
        <pt x="836" y="209" on="0"/>
        <pt x="844" y="219" on="1"/>
        <pt x="852" y="229" on="0"/>
        <pt x="873" y="241" on="0"/>
        <pt x="881" y="249" on="1"/>
        <pt x="887" y="255" on="0"/>
        <pt x="900" y="273" on="0"/>
        <pt x="915" y="290" on="0"/>
        <pt x="935" y="301" on="0"/>
        <pt x="949" y="301" on="1"/>
        <pt x="956" y="301" on="1"/>
        <pt x="948" y="281" on="0"/>
        <pt x="919" y="251" on="0"/>
        <pt x="904" y="234" on="1"/>
        <pt x="836" y="159" on="1"/>
        <pt x="825" y="147" on="0"/>
        <pt x="807" y="103" on="0"/>
        <pt x="792" y="85" on="1"/>
        <pt x="787" y="80" on="0"/>
        <pt x="769" y="70" on="0"/>
        <pt x="762" y="62" on="1"/>
        <pt x="751" y="51" on="0"/>
        <pt x="742" y="35" on="0"/>
        <pt x="732" y="25" on="1"/>
        <pt x="726" y="20" on="0"/>
        <pt x="707" y="17" on="0"/>
        <pt x="695" y="10" on="1"/>
        <pt x="691" y="8" on="0"/>
        <pt x="690" y="-5" on="0"/>
        <pt x="685" y="-5" on="1"/>
        <pt x="683" y="-5" on="0"/>
        <pt x="678" y="-4" on="0"/>
        <pt x="676" y="-4" on="1"/>
        <pt x="671" y="-4" on="0"/>
        <pt x="662" y="-17" on="0"/>
        <pt x="657" y="-20" on="1"/>
        <pt x="641" y="-26" on="0"/>
        <pt x="595" y="-29" on="0"/>
        <pt x="575" y="-35" on="1"/>
        <pt x="552" y="-41" on="0"/>
        <pt x="518" y="-41" on="1"/>
        <pt x="486" y="-41" on="0"/>
        <pt x="424" y="-31" on="0"/>
        <pt x="404" y="-20" on="1"/>
        <pt x="380" y="-7" on="0"/>
        <pt x="311" y="21" on="0"/>
        <pt x="284" y="40" on="1"/>
        <pt x="282" y="42" on="0"/>
        <pt x="278" y="54" on="0"/>
        <pt x="276" y="54" on="1"/>
        <pt x="269" y="58" on="0"/>
        <pt x="255" y="61" on="0"/>
        <pt x="247" y="70" on="1"/>
        <pt x="239" y="79" on="0"/>
        <pt x="221" y="116" on="0"/>
        <pt x="209" y="130" on="1"/>
        <pt x="188" y="153" on="0"/>
        <pt x="172" y="238" on="0"/>
        <pt x="164" y="286" on="1"/>
        <pt x="164" y="288" on="0"/>
        <pt x="157" y="296" on="0"/>
        <pt x="157" y="301" on="1"/>
        <pt x="157" y="308" on="0"/>
        <pt x="152" y="334" on="0"/>
        <pt x="147" y="365" on="0"/>
        <pt x="142" y="395" on="0"/>
        <pt x="142" y="406" on="1"/>
        <pt x="142" y="415" on="0"/>
        <pt x="148" y="439" on="0"/>
        <pt x="149" y="450" on="1"/>
        <pt x="152" y="477" on="0"/>
        <pt x="157" y="536" on="0"/>
        <pt x="165" y="595" on="0"/>
        <pt x="177" y="650" on="0"/>
        <pt x="187" y="674" on="1"/>
        <pt x="187" y="675" on="1"/>
        <pt x="187" y="677" on="0"/>
        <pt x="186" y="684" on="0"/>
        <pt x="186" y="686" on="1"/>
        <pt x="186" y="689" on="0"/>
        <pt x="187" y="690" on="1"/>
        <pt x="194" y="695" on="0"/>
        <pt x="196" y="714" on="0"/>
        <pt x="202" y="726" on="1"/>
        <pt x="204" y="733" on="0"/>
        <pt x="219" y="748" on="0"/>
        <pt x="224" y="757" on="1"/>
        <pt x="229" y="765" on="0"/>
        <pt x="236" y="789" on="0"/>
        <pt x="239" y="794" on="1"/>
        <pt x="247" y="805" on="0"/>
        <pt x="278" y="832" on="0"/>
        <pt x="292" y="846" on="1"/>
        <pt x="317" y="872" on="0"/>
        <pt x="366" y="923" on="0"/>
        <pt x="396" y="950" on="1"/>
        <pt x="424" y="976" on="0"/>
        <pt x="480" y="1018" on="0"/>
        <pt x="508" y="1040" on="1"/>
        <pt x="517" y="1047" on="0"/>
        <pt x="522" y="1065" on="0"/>
        <pt x="530" y="1070" on="1"/>
        <pt x="547" y="1084" on="0"/>
        <pt x="604" y="1108" on="0"/>
        <pt x="628" y="1122" on="1"/>
        <pt x="634" y="1125" on="0"/>
        <pt x="651" y="1138" on="0"/>
        <pt x="667" y="1151" on="0"/>
        <pt x="683" y="1160" on="0"/>
        <pt x="689" y="1160" on="1"/>
        <pt x="691" y="1160" on="0"/>
        <pt x="697" y="1159" on="0"/>
        <pt x="699" y="1159" on="1"/>
        <pt x="704" y="1159" on="0"/>
        <pt x="722" y="1171" on="0"/>
        <pt x="734" y="1171" on="1"/>
        <pt x="748" y="1171" on="0"/>
        <pt x="782" y="1163" on="0"/>
        <pt x="815" y="1153" on="0"/>
        <pt x="843" y="1141" on="0"/>
        <pt x="852" y="1138" on="1"/>
        <pt x="861" y="1134" on="0"/>
        <pt x="869" y="1134" on="0"/>
        <pt x="885" y="1131" on="0"/>
        <pt x="920" y="1117" on="0"/>
        <pt x="956" y="1100" on="1"/>
        <pt x="960" y="1098" on="0"/>
        <pt x="979" y="1094" on="0"/>
        <pt x="999" y="1090" on="0"/>
        <pt x="1014" y="1083" on="0"/>
      </contour>
    </TTGlyph>
    <TTGlyph name="Cacute" xMin="142" yMin="-41" xMax="1016" yMax="1446">
      <component glyphName="C" x="0" y="0" flags="0x204"/>
      <component glyphName="acute" x="573" y="362" flags="0x4"/>
    </TTGlyph>
    <TTGlyph name="Ccaron" xMin="142" yMin="-41" xMax="1016" yMax="1449">
      <component glyphName="C" x="0" y="0" flags="0x204"/>
      <component glyphName="caron" x="486" y="304" flags="0x4"/>
    </TTGlyph>
    <TTGlyph name="Ccedilla" xMin="142" yMin="-373" xMax="1016" yMax="1171">
      <contour>
        <pt x="637" y="-209" on="1"/>
        <pt x="637" y="-214" on="0"/>
        <pt x="625" y="-233" on="0"/>
        <pt x="608" y="-255" on="0"/>
        <pt x="590" y="-275" on="0"/>
        <pt x="583" y="-281" on="1"/>
        <pt x="580" y="-283" on="0"/>
        <pt x="569" y="-284" on="0"/>
        <pt x="565" y="-286" on="1"/>
        <pt x="557" y="-293" on="0"/>
        <pt x="547" y="-307" on="0"/>
        <pt x="541" y="-310" on="1"/>
        <pt x="533" y="-318" on="0"/>
        <pt x="513" y="-328" on="0"/>
        <pt x="500" y="-341" on="1"/>
        <pt x="497" y="-343" on="0"/>
        <pt x="479" y="-353" on="0"/>
        <pt x="456" y="-364" on="0"/>
        <pt x="432" y="-373" on="0"/>
        <pt x="422" y="-373" on="1"/>
        <pt x="420" y="-373" on="0"/>
        <pt x="411" y="-372" on="0"/>
        <pt x="402" y="-364" on="0"/>
        <pt x="395" y="-349" on="0"/>
        <pt x="395" y="-335" on="1"/>
        <pt x="395" y="-324" on="0"/>
        <pt x="408" y="-315" on="0"/>
        <pt x="429" y="-311" on="0"/>
        <pt x="453" y="-309" on="0"/>
        <pt x="464" y="-305" on="1"/>
        <pt x="475" y="-305" on="1"/>
        <pt x="476" y="-305" on="0"/>
        <pt x="476" y="-304" on="1"/>
        <pt x="476" y="-299" on="1"/>
        <pt x="494" y="-292" on="0"/>
        <pt x="510" y="-285" on="1"/>
        <pt x="523" y="-279" on="0"/>
        <pt x="546" y="-267" on="0"/>
        <pt x="548" y="-263" on="1"/>
        <pt x="548" y="-262" on="0"/>
        <pt x="542" y="-249" on="0"/>
        <pt x="541" y="-245" on="1"/>
        <pt x="541" y="-241" on="0"/>
        <pt x="542" y="-233" on="0"/>
        <pt x="542" y="-229" on="1"/>
        <pt x="542" y="-215" on="0"/>
        <pt x="521" y="-193" on="0"/>
        <pt x="497" y="-172" on="0"/>
        <pt x="476" y="-150" on="0"/>
        <pt x="476" y="-137" on="1"/>
        <pt x="476" y="-135" on="0"/>
        <pt x="483" y="-115" on="0"/>
        <pt x="495" y="-88" on="0"/>
        <pt x="510" y="-56" on="0"/>
        <pt x="518" y="-41" on="1"/>
        <pt x="486" y="-41" on="0"/>
        <pt x="424" y="-31" on="0"/>
        <pt x="404" y="-20" on="1"/>
        <pt x="380" y="-7" on="0"/>
        <pt x="311" y="21" on="0"/>
        <pt x="284" y="40" on="1"/>
        <pt x="282" y="42" on="0"/>
        <pt x="278" y="54" on="0"/>
        <pt x="276" y="54" on="1"/>
        <pt x="269" y="58" on="0"/>
        <pt x="255" y="61" on="0"/>
        <pt x="247" y="70" on="1"/>
        <pt x="239" y="79" on="0"/>
        <pt x="221" y="116" on="0"/>
        <pt x="209" y="130" on="1"/>
        <pt x="188" y="153" on="0"/>
        <pt x="172" y="238" on="0"/>
        <pt x="164" y="286" on="1"/>
        <pt x="164" y="288" on="0"/>
        <pt x="157" y="296" on="0"/>
        <pt x="157" y="301" on="1"/>
        <pt x="157" y="308" on="0"/>
        <pt x="152" y="334" on="0"/>
        <pt x="147" y="365" on="0"/>
        <pt x="142" y="395" on="0"/>
        <pt x="142" y="406" on="1"/>
        <pt x="142" y="415" on="0"/>
        <pt x="148" y="439" on="0"/>
        <pt x="149" y="450" on="1"/>
        <pt x="152" y="477" on="0"/>
        <pt x="157" y="536" on="0"/>
        <pt x="165" y="595" on="0"/>
        <pt x="177" y="650" on="0"/>
        <pt x="187" y="674" on="1"/>
        <pt x="187" y="675" on="1"/>
        <pt x="187" y="677" on="0"/>
        <pt x="186" y="684" on="0"/>
        <pt x="186" y="686" on="1"/>
        <pt x="186" y="689" on="0"/>
        <pt x="187" y="690" on="1"/>
        <pt x="194" y="695" on="0"/>
        <pt x="196" y="714" on="0"/>
        <pt x="202" y="726" on="1"/>
        <pt x="204" y="733" on="0"/>
        <pt x="219" y="748" on="0"/>
        <pt x="224" y="757" on="1"/>
        <pt x="229" y="765" on="0"/>
        <pt x="236" y="789" on="0"/>
        <pt x="239" y="794" on="1"/>
        <pt x="247" y="805" on="0"/>
        <pt x="278" y="832" on="0"/>
        <pt x="292" y="846" on="1"/>
        <pt x="317" y="872" on="0"/>
        <pt x="366" y="923" on="0"/>
        <pt x="396" y="950" on="1"/>
        <pt x="424" y="976" on="0"/>
        <pt x="480" y="1018" on="0"/>
        <pt x="508" y="1040" on="1"/>
        <pt x="517" y="1047" on="0"/>
        <pt x="522" y="1065" on="0"/>
        <pt x="530" y="1070" on="1"/>
        <pt x="547" y="1084" on="0"/>
        <pt x="604" y="1108" on="0"/>
        <pt x="628" y="1122" on="1"/>
        <pt x="634" y="1125" on="0"/>
        <pt x="651" y="1138" on="0"/>
        <pt x="667" y="1151" on="0"/>
        <pt x="683" y="1160" on="0"/>
        <pt x="689" y="1160" on="1"/>
        <pt x="691" y="1160" on="0"/>
        <pt x="697" y="1159" on="0"/>
        <pt x="699" y="1159" on="1"/>
        <pt x="704" y="1159" on="0"/>
        <pt x="722" y="1171" on="0"/>
        <pt x="734" y="1171" on="1"/>
        <pt x="748" y="1171" on="0"/>
        <pt x="782" y="1163" on="0"/>
        <pt x="815" y="1153" on="0"/>
        <pt x="843" y="1141" on="0"/>
        <pt x="852" y="1138" on="1"/>
        <pt x="861" y="1134" on="0"/>
        <pt x="869" y="1134" on="0"/>
        <pt x="885" y="1131" on="0"/>
        <pt x="920" y="1117" on="0"/>
        <pt x="956" y="1100" on="1"/>
        <pt x="960" y="1098" on="0"/>
        <pt x="979" y="1094" on="0"/>
        <pt x="999" y="1090" on="0"/>
        <pt x="1014" y="1083" on="0"/>
        <pt x="1016" y="1078" on="1"/>
        <pt x="1016" y="1074" on="0"/>
        <pt x="1008" y="1059" on="0"/>
        <pt x="996" y="1044" on="0"/>
        <pt x="983" y="1030" on="0"/>
        <pt x="978" y="1026" on="1"/>
        <pt x="974" y="1023" on="0"/>
        <pt x="960" y="1021" on="0"/>
        <pt x="956" y="1018" on="1"/>
        <pt x="948" y="1011" on="0"/>
        <pt x="931" y="993" on="0"/>
        <pt x="915" y="977" on="0"/>
        <pt x="900" y="966" on="0"/>
        <pt x="893" y="966" on="1"/>
        <pt x="867" y="966" on="0"/>
        <pt x="822" y="989" on="0"/>
        <pt x="766" y="1016" on="0"/>
        <pt x="689" y="1039" on="0"/>
        <pt x="629" y="1039" on="1"/>
        <pt x="609" y="1039" on="0"/>
        <pt x="569" y="1030" on="0"/>
        <pt x="552" y="1018" on="1"/>
        <pt x="538" y="1007" on="0"/>
        <pt x="510" y="973" on="0"/>
        <pt x="493" y="958" on="1"/>
        <pt x="483" y="949" on="0"/>
        <pt x="461" y="941" on="0"/>
        <pt x="456" y="936" on="1"/>
        <pt x="450" y="930" on="0"/>
        <pt x="439" y="906" on="0"/>
        <pt x="433" y="898" on="1"/>
        <pt x="421" y="883" on="0"/>
        <pt x="407" y="864" on="0"/>
        <pt x="396" y="846" on="1"/>
        <pt x="393" y="841" on="0"/>
        <pt x="384" y="836" on="0"/>
        <pt x="381" y="831" on="1"/>
        <pt x="378" y="827" on="0"/>
        <pt x="377" y="814" on="0"/>
        <pt x="373" y="809" on="1"/>
        <pt x="369" y="803" on="0"/>
        <pt x="363" y="796" on="0"/>
        <pt x="356" y="780" on="0"/>
        <pt x="345" y="749" on="0"/>
        <pt x="336" y="719" on="1"/>
        <pt x="335" y="715" on="0"/>
        <pt x="327" y="676" on="0"/>
        <pt x="321" y="659" on="1"/>
        <pt x="318" y="651" on="0"/>
        <pt x="298" y="629" on="0"/>
        <pt x="298" y="613" on="1"/>
        <pt x="298" y="606" on="0"/>
        <pt x="300" y="588" on="0"/>
        <pt x="300" y="578" on="1"/>
        <pt x="300" y="561" on="0"/>
        <pt x="284" y="536" on="0"/>
        <pt x="284" y="522" on="1"/>
        <pt x="284" y="511" on="0"/>
        <pt x="291" y="480" on="0"/>
        <pt x="292" y="466" on="1"/>
        <pt x="293" y="442" on="0"/>
        <pt x="294" y="392" on="0"/>
        <pt x="298" y="343" on="0"/>
        <pt x="306" y="297" on="0"/>
        <pt x="314" y="278" on="1"/>
        <pt x="314" y="276" on="1"/>
        <pt x="314" y="274" on="0"/>
        <pt x="313" y="269" on="0"/>
        <pt x="313" y="267" on="1"/>
        <pt x="313" y="264" on="0"/>
        <pt x="314" y="264" on="1"/>
        <pt x="322" y="257" on="0"/>
        <pt x="329" y="232" on="0"/>
        <pt x="339" y="199" on="0"/>
        <pt x="359" y="162" on="0"/>
        <pt x="381" y="144" on="1"/>
        <pt x="390" y="136" on="0"/>
        <pt x="423" y="124" on="0"/>
        <pt x="440" y="114" on="1"/>
        <pt x="458" y="103" on="0"/>
        <pt x="488" y="79" on="0"/>
        <pt x="493" y="77" on="1"/>
        <pt x="504" y="74" on="0"/>
        <pt x="547" y="71" on="0"/>
        <pt x="570" y="71" on="1"/>
        <pt x="600" y="71" on="0"/>
        <pt x="642" y="74" on="0"/>
        <pt x="676" y="82" on="0"/>
        <pt x="706" y="96" on="0"/>
        <pt x="724" y="107" on="1"/>
        <pt x="731" y="111" on="0"/>
        <pt x="749" y="117" on="0"/>
        <pt x="754" y="122" on="1"/>
        <pt x="763" y="130" on="0"/>
        <pt x="778" y="158" on="0"/>
        <pt x="792" y="166" on="1"/>
        <pt x="797" y="170" on="0"/>
        <pt x="816" y="169" on="0"/>
        <pt x="821" y="174" on="1"/>
        <pt x="829" y="182" on="0"/>
        <pt x="836" y="209" on="0"/>
        <pt x="844" y="219" on="1"/>
        <pt x="852" y="229" on="0"/>
        <pt x="873" y="241" on="0"/>
        <pt x="881" y="249" on="1"/>
        <pt x="887" y="255" on="0"/>
        <pt x="900" y="273" on="0"/>
        <pt x="915" y="290" on="0"/>
        <pt x="935" y="301" on="0"/>
        <pt x="949" y="301" on="1"/>
        <pt x="956" y="301" on="1"/>
        <pt x="948" y="281" on="0"/>
        <pt x="919" y="251" on="0"/>
        <pt x="904" y="234" on="1"/>
        <pt x="836" y="159" on="1"/>
        <pt x="825" y="147" on="0"/>
        <pt x="807" y="103" on="0"/>
        <pt x="792" y="85" on="1"/>
        <pt x="787" y="80" on="0"/>
        <pt x="769" y="70" on="0"/>
        <pt x="762" y="62" on="1"/>
        <pt x="751" y="51" on="0"/>
        <pt x="742" y="35" on="0"/>
        <pt x="732" y="25" on="1"/>
        <pt x="726" y="20" on="0"/>
        <pt x="707" y="17" on="0"/>
        <pt x="695" y="10" on="1"/>
        <pt x="691" y="8" on="0"/>
        <pt x="690" y="-5" on="0"/>
        <pt x="685" y="-5" on="1"/>
        <pt x="683" y="-5" on="0"/>
        <pt x="678" y="-4" on="0"/>
        <pt x="676" y="-4" on="1"/>
        <pt x="671" y="-4" on="0"/>
        <pt x="662" y="-17" on="0"/>
        <pt x="657" y="-20" on="1"/>
        <pt x="642" y="-26" on="0"/>
        <pt x="604" y="-30" on="0"/>
        <pt x="571" y="-36" on="0"/>
        <pt x="548" y="-47" on="0"/>
        <pt x="548" y="-59" on="1"/>
        <pt x="548" y="-66" on="0"/>
        <pt x="552" y="-72" on="0"/>
        <pt x="559" y="-75" on="0"/>
        <pt x="567" y="-79" on="0"/>
        <pt x="571" y="-84" on="1"/>
        <pt x="574" y="-87" on="0"/>
        <pt x="574" y="-98" on="0"/>
        <pt x="577" y="-102" on="1"/>
        <pt x="584" y="-107" on="0"/>
        <pt x="591" y="-114" on="0"/>
        <pt x="594" y="-121" on="0"/>
        <pt x="597" y="-131" on="0"/>
        <pt x="601" y="-138" on="1"/>
        <pt x="605" y="-143" on="0"/>
        <pt x="617" y="-151" on="0"/>
        <pt x="619" y="-155" on="1"/>
        <pt x="627" y="-170" on="0"/>
        <pt x="637" y="-200" on="0"/>
      </contour>
    </TTGlyph>
    <TTGlyph name="Ccircumflex" xMin="142" yMin="-41" xMax="1016" yMax="1449">
      <component glyphName="C" x="0" y="0" flags="0x204"/>
      <component glyphName="circumflex" x="495" y="304" flags="0x4"/>
    </TTGlyph>
    <TTGlyph name="Cdotaccent" xMin="142" yMin="-41" xMax="1016" yMax="1423">
      <component glyphName="C" x="0" y="0" flags="0x204"/>
      <component glyphName="dotaccent" x="618" y="362" flags="0x4"/>
    </TTGlyph>
    <TTGlyph name="D" xMin="89" yMin="-35" xMax="1028" yMax="1264">
      <contour>
        <pt x="1028" y="525" on="1"/>
        <pt x="1028" y="487" on="0"/>
        <pt x="1017" y="403" on="0"/>
        <pt x="997" y="323" on="0"/>
        <pt x="970" y="252" on="0"/>
        <pt x="954" y="226" on="1"/>
        <pt x="952" y="223" on="0"/>
        <pt x="947" y="226" on="0"/>
        <pt x="947" y="219" on="1"/>
        <pt x="944" y="209" on="0"/>
        <pt x="935" y="200" on="0"/>
        <pt x="925" y="196" on="0"/>
        <pt x="913" y="193" on="0"/>
        <pt x="909" y="189" on="1"/>
        <pt x="904" y="185" on="0"/>
        <pt x="884" y="158" on="0"/>
        <pt x="860" y="129" on="0"/>
        <pt x="838" y="106" on="0"/>
        <pt x="832" y="106" on="1"/>
        <pt x="830" y="106" on="0"/>
        <pt x="824" y="108" on="0"/>
        <pt x="822" y="108" on="1"/>
        <pt x="819" y="108" on="0"/>
        <pt x="819" y="107" on="1"/>
        <pt x="810" y="96" on="0"/>
        <pt x="773" y="72" on="0"/>
        <pt x="733" y="51" on="0"/>
        <pt x="699" y="35" on="0"/>
        <pt x="692" y="32" on="1"/>
        <pt x="679" y="25" on="0"/>
        <pt x="653" y="18" on="0"/>
        <pt x="633" y="10" on="1"/>
        <pt x="628" y="8" on="0"/>
        <pt x="613" y="-4" on="0"/>
        <pt x="611" y="-5" on="1"/>
        <pt x="572" y="-15" on="0"/>
        <pt x="446" y="-16" on="0"/>
        <pt x="371" y="-20" on="1"/>
        <pt x="357" y="-21" on="0"/>
        <pt x="325" y="-27" on="0"/>
        <pt x="311" y="-27" on="1"/>
        <pt x="294" y="-27" on="0"/>
        <pt x="264" y="-24" on="0"/>
        <pt x="247" y="-24" on="1"/>
        <pt x="232" y="-24" on="0"/>
        <pt x="196" y="-33" on="0"/>
        <pt x="185" y="-35" on="1"/>
        <pt x="178" y="-35" on="0"/>
        <pt x="171" y="-27" on="0"/>
        <pt x="170" y="-27" on="1"/>
        <pt x="161" y="-27" on="0"/>
        <pt x="134" y="-30" on="0"/>
        <pt x="120" y="-30" on="1"/>
        <pt x="107" y="-30" on="0"/>
        <pt x="89" y="-26" on="0"/>
        <pt x="89" y="-19" on="1"/>
        <pt x="89" y="-9" on="0"/>
        <pt x="125" y="19" on="0"/>
        <pt x="140" y="40" on="1"/>
        <pt x="149" y="54" on="0"/>
        <pt x="159" y="64" on="0"/>
        <pt x="168" y="66" on="0"/>
        <pt x="178" y="65" on="0"/>
        <pt x="185" y="70" on="1"/>
        <pt x="192" y="73" on="0"/>
        <pt x="203" y="93" on="0"/>
        <pt x="215" y="99" on="1"/>
        <pt x="220" y="102" on="0"/>
        <pt x="235" y="102" on="0"/>
        <pt x="237" y="107" on="1"/>
        <pt x="239" y="110" on="0"/>
        <pt x="244" y="135" on="0"/>
        <pt x="248" y="166" on="0"/>
        <pt x="251" y="196" on="0"/>
        <pt x="252" y="204" on="1"/>
        <pt x="256" y="231" on="0"/>
        <pt x="261" y="274" on="0"/>
        <pt x="266" y="314" on="0"/>
        <pt x="271" y="357" on="0"/>
        <pt x="275" y="383" on="1"/>
        <pt x="276" y="390" on="0"/>
        <pt x="278" y="414" on="0"/>
        <pt x="281" y="442" on="0"/>
        <pt x="286" y="469" on="0"/>
        <pt x="289" y="480" on="1"/>
        <pt x="299" y="510" on="0"/>
        <pt x="307" y="596" on="0"/>
        <pt x="311" y="684" on="0"/>
        <pt x="314" y="763" on="0"/>
        <pt x="319" y="786" on="1"/>
        <pt x="322" y="800" on="0"/>
        <pt x="335" y="828" on="0"/>
        <pt x="335" y="842" on="1"/>
        <pt x="335" y="850" on="0"/>
        <pt x="333" y="864" on="0"/>
        <pt x="333" y="872" on="1"/>
        <pt x="333" y="878" on="0"/>
        <pt x="339" y="903" on="0"/>
        <pt x="345" y="931" on="0"/>
        <pt x="351" y="959" on="0"/>
        <pt x="351" y="969" on="1"/>
        <pt x="351" y="985" on="0"/>
        <pt x="326" y="995" on="0"/>
        <pt x="313" y="995" on="1"/>
        <pt x="296" y="995" on="0"/>
        <pt x="257" y="988" on="0"/>
        <pt x="239" y="988" on="1"/>
        <pt x="234" y="988" on="0"/>
        <pt x="222" y="989" on="0"/>
        <pt x="217" y="989" on="1"/>
        <pt x="200" y="989" on="0"/>
        <pt x="179" y="979" on="0"/>
        <pt x="162" y="966" on="0"/>
        <pt x="147" y="956" on="0"/>
        <pt x="138" y="956" on="1"/>
        <pt x="130" y="956" on="0"/>
        <pt x="125" y="958" on="1"/>
        <pt x="127" y="974" on="0"/>
        <pt x="146" y="1000" on="0"/>
        <pt x="172" y="1023" on="0"/>
        <pt x="201" y="1043" on="0"/>
        <pt x="215" y="1055" on="1"/>
        <pt x="223" y="1062" on="0"/>
        <pt x="241" y="1084" on="0"/>
        <pt x="262" y="1106" on="0"/>
        <pt x="284" y="1125" on="0"/>
        <pt x="297" y="1130" on="1"/>
        <pt x="303" y="1132" on="0"/>
        <pt x="337" y="1132" on="0"/>
        <pt x="376" y="1134" on="0"/>
        <pt x="410" y="1138" on="0"/>
        <pt x="416" y="1145" on="1"/>
        <pt x="420" y="1149" on="0"/>
        <pt x="419" y="1163" on="0"/>
        <pt x="423" y="1167" on="1"/>
        <pt x="427" y="1171" on="0"/>
        <pt x="440" y="1177" on="0"/>
        <pt x="452" y="1183" on="0"/>
        <pt x="461" y="1189" on="0"/>
        <pt x="461" y="1192" on="1"/>
        <pt x="461" y="1194" on="0"/>
        <pt x="460" y="1200" on="0"/>
        <pt x="460" y="1202" on="1"/>
        <pt x="460" y="1206" on="0"/>
        <pt x="473" y="1213" on="0"/>
        <pt x="476" y="1219" on="1"/>
        <pt x="477" y="1221" on="0"/>
        <pt x="483" y="1236" on="0"/>
        <pt x="491" y="1252" on="0"/>
        <pt x="499" y="1264" on="0"/>
        <pt x="502" y="1264" on="1"/>
        <pt x="506" y="1264" on="0"/>
        <pt x="521" y="1257" on="0"/>
        <pt x="521" y="1255" on="1"/>
        <pt x="521" y="1249" on="0"/>
        <pt x="517" y="1226" on="0"/>
        <pt x="511" y="1199" on="0"/>
        <pt x="507" y="1170" on="0"/>
        <pt x="507" y="1157" on="1"/>
        <pt x="507" y="1142" on="0"/>
        <pt x="516" y="1123" on="0"/>
        <pt x="530" y="1123" on="1"/>
        <pt x="535" y="1123" on="0"/>
        <pt x="544" y="1124" on="0"/>
        <pt x="552" y="1124" on="1"/>
        <pt x="558" y="1124" on="0"/>
        <pt x="578" y="1121" on="0"/>
        <pt x="595" y="1115" on="1"/>
        <pt x="600" y="1113" on="0"/>
        <pt x="609" y="1099" on="0"/>
        <pt x="615" y="1099" on="1"/>
        <pt x="618" y="1099" on="0"/>
        <pt x="625" y="1100" on="0"/>
        <pt x="628" y="1100" on="1"/>
        <pt x="633" y="1100" on="1"/>
        <pt x="636" y="1099" on="0"/>
        <pt x="655" y="1092" on="0"/>
        <pt x="679" y="1083" on="0"/>
        <pt x="701" y="1073" on="0"/>
        <pt x="707" y="1070" on="1"/>
        <pt x="710" y="1069" on="0"/>
        <pt x="713" y="1057" on="0"/>
        <pt x="715" y="1055" on="1"/>
        <pt x="728" y="1049" on="0"/>
        <pt x="765" y="1030" on="0"/>
        <pt x="782" y="1018" on="1"/>
        <pt x="790" y="1012" on="0"/>
        <pt x="803" y="995" on="0"/>
        <pt x="812" y="988" on="1"/>
        <pt x="823" y="979" on="0"/>
        <pt x="844" y="971" on="0"/>
        <pt x="849" y="966" on="1"/>
        <pt x="857" y="957" on="0"/>
        <pt x="859" y="936" on="0"/>
        <pt x="864" y="928" on="1"/>
        <pt x="875" y="911" on="0"/>
        <pt x="910" y="876" on="0"/>
        <pt x="924" y="854" on="1"/>
        <pt x="929" y="845" on="0"/>
        <pt x="933" y="821" on="0"/>
        <pt x="939" y="809" on="1"/>
        <pt x="941" y="805" on="0"/>
        <pt x="951" y="792" on="0"/>
        <pt x="961" y="777" on="0"/>
        <pt x="969" y="762" on="0"/>
        <pt x="969" y="755" on="1"/>
        <pt x="969" y="753" on="0"/>
        <pt x="968" y="746" on="0"/>
        <pt x="968" y="744" on="1"/>
        <pt x="968" y="742" on="0"/>
        <pt x="984" y="722" on="0"/>
        <pt x="984" y="716" on="1"/>
        <pt x="984" y="714" on="0"/>
        <pt x="983" y="707" on="0"/>
        <pt x="983" y="705" on="1"/>
        <pt x="983" y="704" on="1"/>
        <pt x="993" y="696" on="0"/>
        <pt x="1009" y="652" on="0"/>
        <pt x="1021" y="598" on="0"/>
        <pt x="1028" y="544" on="0"/>
      </contour>
      <contour>
        <pt x="916" y="361" on="1"/>
        <pt x="917" y="371" on="0"/>
        <pt x="917" y="390" on="0"/>
        <pt x="917" y="400" on="1"/>
        <pt x="917" y="432" on="0"/>
        <pt x="912" y="488" on="0"/>
        <pt x="909" y="502" on="1"/>
        <pt x="901" y="536" on="0"/>
        <pt x="888" y="604" on="0"/>
        <pt x="879" y="630" on="1"/>
        <pt x="870" y="655" on="0"/>
        <pt x="856" y="684" on="0"/>
        <pt x="849" y="697" on="1"/>
        <pt x="840" y="715" on="0"/>
        <pt x="823" y="757" on="0"/>
        <pt x="805" y="797" on="0"/>
        <pt x="786" y="834" on="0"/>
        <pt x="775" y="846" on="1"/>
        <pt x="772" y="849" on="0"/>
        <pt x="758" y="857" on="0"/>
        <pt x="741" y="866" on="0"/>
        <pt x="726" y="874" on="0"/>
        <pt x="723" y="876" on="1"/>
        <pt x="695" y="892" on="0"/>
        <pt x="657" y="914" on="0"/>
        <pt x="623" y="931" on="0"/>
        <pt x="589" y="944" on="0"/>
        <pt x="566" y="950" on="1"/>
        <pt x="546" y="960" on="0"/>
        <pt x="514" y="966" on="0"/>
        <pt x="491" y="966" on="1"/>
        <pt x="477" y="966" on="0"/>
        <pt x="478" y="955" on="0"/>
        <pt x="476" y="943" on="1"/>
        <pt x="470" y="908" on="0"/>
        <pt x="457" y="837" on="0"/>
        <pt x="454" y="802" on="1"/>
        <pt x="449" y="740" on="0"/>
        <pt x="444" y="609" on="0"/>
        <pt x="439" y="555" on="1"/>
        <pt x="436" y="539" on="0"/>
        <pt x="424" y="509" on="0"/>
        <pt x="423" y="502" on="1"/>
        <pt x="423" y="499" on="0"/>
        <pt x="431" y="487" on="0"/>
        <pt x="431" y="488" on="1"/>
        <pt x="426" y="451" on="0"/>
        <pt x="414" y="375" on="0"/>
        <pt x="409" y="338" on="1"/>
        <pt x="405" y="306" on="0"/>
        <pt x="401" y="241" on="0"/>
        <pt x="393" y="181" on="0"/>
        <pt x="378" y="130" on="0"/>
        <pt x="364" y="114" on="1"/>
        <pt x="357" y="110" on="0"/>
        <pt x="357" y="108" on="1"/>
        <pt x="357" y="105" on="0"/>
        <pt x="375" y="97" on="0"/>
        <pt x="383" y="97" on="1"/>
        <pt x="401" y="97" on="0"/>
        <pt x="448" y="103" on="0"/>
        <pt x="494" y="112" on="0"/>
        <pt x="537" y="120" on="0"/>
        <pt x="551" y="122" on="1"/>
        <pt x="582" y="126" on="0"/>
        <pt x="660" y="132" on="0"/>
        <pt x="685" y="137" on="1"/>
        <pt x="711" y="142" on="0"/>
        <pt x="734" y="154" on="0"/>
        <pt x="745" y="159" on="1"/>
        <pt x="768" y="170" on="0"/>
        <pt x="814" y="189" on="0"/>
        <pt x="857" y="209" on="0"/>
        <pt x="894" y="232" on="0"/>
        <pt x="909" y="249" on="1"/>
        <pt x="912" y="255" on="0"/>
        <pt x="915" y="280" on="0"/>
        <pt x="916" y="311" on="0"/>
        <pt x="916" y="346" on="0"/>
      </contour>
    </TTGlyph>
    <TTGlyph name="Dcaron" xMin="89" yMin="-35" xMax="1028" yMax="1449">
      <component glyphName="D" x="0" y="0" flags="0x204"/>
      <component glyphName="caron" x="469" y="304" flags="0x4"/>
    </TTGlyph>
    <TTGlyph name="Dcroat" xMin="92" yMin="-35" xMax="1031" yMax="1264">
      <component glyphName="Eth" x="0" y="0" flags="0x204"/>
    </TTGlyph>
    <TTGlyph name="E" xMin="124" yMin="-38" xMax="908" yMax="1131">
      <contour>
        <pt x="874" y="256" on="1"/>
        <pt x="871" y="232" on="0"/>
        <pt x="837" y="199" on="0"/>
        <pt x="822" y="180" on="1"/>
        <pt x="804" y="160" on="0"/>
        <pt x="781" y="133" on="0"/>
        <pt x="763" y="107" on="0"/>
        <pt x="748" y="77" on="0"/>
        <pt x="739" y="54" on="1"/>
        <pt x="737" y="50" on="0"/>
        <pt x="732" y="46" on="0"/>
        <pt x="732" y="39" on="1"/>
        <pt x="730" y="17" on="0"/>
        <pt x="683" y="-5" on="0"/>
        <pt x="616" y="-14" on="0"/>
        <pt x="541" y="-14" on="0"/>
        <pt x="512" y="-14" on="1"/>
        <pt x="492" y="-14" on="0"/>
        <pt x="449" y="-13" on="0"/>
        <pt x="429" y="-13" on="1"/>
        <pt x="409" y="-13" on="0"/>
        <pt x="378" y="-21" on="0"/>
        <pt x="366" y="-21" on="1"/>
        <pt x="340" y="-21" on="0"/>
        <pt x="296" y="-13" on="0"/>
        <pt x="276" y="-13" on="1"/>
        <pt x="255" y="-14" on="0"/>
        <pt x="222" y="-22" on="0"/>
        <pt x="190" y="-31" on="0"/>
        <pt x="159" y="-38" on="0"/>
        <pt x="141" y="-38" on="1"/>
        <pt x="134" y="-38" on="0"/>
        <pt x="124" y="-34" on="0"/>
        <pt x="124" y="-23" on="1"/>
        <pt x="124" y="-11" on="0"/>
        <pt x="149" y="-3" on="0"/>
        <pt x="180" y="3" on="0"/>
        <pt x="205" y="13" on="0"/>
        <pt x="205" y="26" on="1"/>
        <pt x="205" y="36" on="1"/>
        <pt x="205" y="41" on="0"/>
        <pt x="206" y="53" on="0"/>
        <pt x="209" y="61" on="1"/>
        <pt x="210" y="64" on="0"/>
        <pt x="224" y="73" on="0"/>
        <pt x="224" y="79" on="1"/>
        <pt x="224" y="81" on="0"/>
        <pt x="223" y="87" on="0"/>
        <pt x="223" y="89" on="1"/>
        <pt x="223" y="90" on="0"/>
        <pt x="224" y="91" on="1"/>
        <pt x="234" y="100" on="0"/>
        <pt x="241" y="153" on="0"/>
        <pt x="243" y="219" on="0"/>
        <pt x="243" y="288" on="0"/>
        <pt x="246" y="315" on="1"/>
        <pt x="249" y="337" on="0"/>
        <pt x="265" y="381" on="0"/>
        <pt x="269" y="404" on="1"/>
        <pt x="269" y="408" on="0"/>
        <pt x="272" y="438" on="0"/>
        <pt x="274" y="472" on="0"/>
        <pt x="276" y="505" on="0"/>
        <pt x="276" y="512" on="1"/>
        <pt x="276" y="518" on="0"/>
        <pt x="267" y="523" on="0"/>
        <pt x="262" y="523" on="1"/>
        <pt x="251" y="523" on="0"/>
        <pt x="224" y="507" on="0"/>
        <pt x="196" y="487" on="0"/>
        <pt x="168" y="471" on="0"/>
        <pt x="157" y="471" on="1"/>
        <pt x="149" y="471" on="0"/>
        <pt x="147" y="481" on="0"/>
        <pt x="147" y="486" on="1"/>
        <pt x="147" y="498" on="0"/>
        <pt x="165" y="517" on="0"/>
        <pt x="191" y="535" on="0"/>
        <pt x="220" y="552" on="0"/>
        <pt x="231" y="561" on="1"/>
        <pt x="236" y="566" on="0"/>
        <pt x="236" y="576" on="0"/>
        <pt x="241" y="576" on="1"/>
        <pt x="243" y="576" on="0"/>
        <pt x="249" y="575" on="0"/>
        <pt x="251" y="575" on="1"/>
        <pt x="256" y="575" on="0"/>
        <pt x="258" y="590" on="0"/>
        <pt x="262" y="592" on="1"/>
        <pt x="271" y="595" on="0"/>
        <pt x="283" y="600" on="0"/>
        <pt x="291" y="617" on="0"/>
        <pt x="295" y="653" on="0"/>
        <pt x="295" y="688" on="1"/>
        <pt x="295" y="722" on="0"/>
        <pt x="312" y="761" on="0"/>
        <pt x="314" y="778" on="1"/>
        <pt x="316" y="794" on="0"/>
        <pt x="318" y="832" on="0"/>
        <pt x="319" y="871" on="0"/>
        <pt x="320" y="906" on="0"/>
        <pt x="321" y="920" on="1"/>
        <pt x="323" y="941" on="0"/>
        <pt x="331" y="981" on="0"/>
        <pt x="331" y="995" on="1"/>
        <pt x="331" y="1015" on="0"/>
        <pt x="305" y="1027" on="0"/>
        <pt x="292" y="1027" on="1"/>
        <pt x="281" y="1027" on="0"/>
        <pt x="256" y="1024" on="0"/>
        <pt x="245" y="1024" on="1"/>
        <pt x="234" y="1024" on="0"/>
        <pt x="215" y="1030" on="0"/>
        <pt x="209" y="1040" on="1"/>
        <pt x="214" y="1056" on="0"/>
        <pt x="243" y="1070" on="0"/>
        <pt x="282" y="1075" on="0"/>
        <pt x="325" y="1074" on="0"/>
        <pt x="343" y="1076" on="1"/>
        <pt x="379" y="1079" on="0"/>
        <pt x="455" y="1081" on="0"/>
        <pt x="493" y="1084" on="1"/>
        <pt x="516" y="1086" on="0"/>
        <pt x="561" y="1099" on="0"/>
        <pt x="586" y="1099" on="1"/>
        <pt x="596" y="1099" on="0"/>
        <pt x="615" y="1098" on="0"/>
        <pt x="626" y="1098" on="1"/>
        <pt x="657" y="1098" on="0"/>
        <pt x="708" y="1114" on="0"/>
        <pt x="741" y="1114" on="1"/>
        <pt x="748" y="1114" on="0"/>
        <pt x="753" y="1112" on="0"/>
        <pt x="755" y="1109" on="0"/>
        <pt x="757" y="1107" on="0"/>
        <pt x="760" y="1107" on="1"/>
        <pt x="762" y="1107" on="0"/>
        <pt x="763" y="1109" on="0"/>
        <pt x="765" y="1112" on="0"/>
        <pt x="770" y="1114" on="0"/>
        <pt x="778" y="1114" on="1"/>
        <pt x="786" y="1114" on="0"/>
        <pt x="801" y="1113" on="0"/>
        <pt x="809" y="1113" on="1"/>
        <pt x="818" y="1113" on="0"/>
        <pt x="832" y="1119" on="0"/>
        <pt x="845" y="1125" on="0"/>
        <pt x="860" y="1131" on="0"/>
        <pt x="871" y="1131" on="1"/>
        <pt x="891" y="1131" on="0"/>
        <pt x="908" y="1111" on="0"/>
        <pt x="908" y="1096" on="1"/>
        <pt x="908" y="1081" on="0"/>
        <pt x="896" y="1044" on="0"/>
        <pt x="880" y="1007" on="0"/>
        <pt x="863" y="974" on="0"/>
        <pt x="858" y="964" on="1"/>
        <pt x="854" y="956" on="0"/>
        <pt x="849" y="935" on="0"/>
        <pt x="844" y="928" on="1"/>
        <pt x="839" y="922" on="0"/>
        <pt x="825" y="911" on="0"/>
        <pt x="822" y="905" on="1"/>
        <pt x="819" y="902" on="0"/>
        <pt x="816" y="885" on="0"/>
        <pt x="812" y="868" on="0"/>
        <pt x="804" y="855" on="0"/>
        <pt x="797" y="855" on="1"/>
        <pt x="788" y="855" on="0"/>
        <pt x="778" y="868" on="0"/>
        <pt x="778" y="877" on="1"/>
        <pt x="778" y="897" on="0"/>
        <pt x="792" y="946" on="0"/>
        <pt x="792" y="975" on="1"/>
        <pt x="792" y="992" on="0"/>
        <pt x="783" y="1025" on="0"/>
        <pt x="768" y="1025" on="1"/>
        <pt x="756" y="1025" on="0"/>
        <pt x="718" y="1017" on="0"/>
        <pt x="710" y="1017" on="1"/>
        <pt x="691" y="1017" on="0"/>
        <pt x="624" y="1023" on="0"/>
        <pt x="589" y="1023" on="1"/>
        <pt x="557" y="1023" on="0"/>
        <pt x="513" y="1014" on="0"/>
        <pt x="484" y="981" on="0"/>
        <pt x="467" y="916" on="0"/>
        <pt x="463" y="860" on="1"/>
        <pt x="463" y="848" on="1"/>
        <pt x="464" y="834" on="0"/>
        <pt x="448" y="775" on="0"/>
        <pt x="448" y="740" on="1"/>
        <pt x="448" y="725" on="1"/>
        <pt x="448" y="715" on="0"/>
        <pt x="441" y="702" on="0"/>
        <pt x="441" y="703" on="1"/>
        <pt x="441" y="698" on="0"/>
        <pt x="448" y="679" on="0"/>
        <pt x="448" y="666" on="1"/>
        <pt x="448" y="664" on="0"/>
        <pt x="439" y="649" on="0"/>
        <pt x="439" y="642" on="1"/>
        <pt x="439" y="637" on="0"/>
        <pt x="472" y="629" on="0"/>
        <pt x="518" y="624" on="0"/>
        <pt x="566" y="621" on="0"/>
        <pt x="582" y="621" on="1"/>
        <pt x="596" y="621" on="0"/>
        <pt x="627" y="629" on="0"/>
        <pt x="648" y="629" on="1"/>
        <pt x="658" y="629" on="0"/>
        <pt x="677" y="627" on="0"/>
        <pt x="685" y="627" on="1"/>
        <pt x="691" y="627" on="0"/>
        <pt x="694" y="628" on="1"/>
        <pt x="722" y="635" on="0"/>
        <pt x="751" y="659" on="0"/>
        <pt x="775" y="683" on="0"/>
        <pt x="806" y="702" on="0"/>
        <pt x="836" y="704" on="1"/>
        <pt x="840" y="699" on="0"/>
        <pt x="840" y="692" on="1"/>
        <pt x="840" y="681" on="0"/>
        <pt x="821" y="661" on="0"/>
        <pt x="814" y="651" on="1"/>
        <pt x="812" y="649" on="0"/>
        <pt x="809" y="631" on="0"/>
        <pt x="806" y="628" on="1"/>
        <pt x="801" y="623" on="0"/>
        <pt x="783" y="626" on="0"/>
        <pt x="777" y="621" on="1"/>
        <pt x="772" y="619" on="0"/>
        <pt x="767" y="610" on="0"/>
        <pt x="762" y="606" on="1"/>
        <pt x="731" y="588" on="0"/>
        <pt x="697" y="556" on="0"/>
        <pt x="671" y="533" on="0"/>
        <pt x="643" y="520" on="0"/>
        <pt x="619" y="520" on="1"/>
        <pt x="574" y="520" on="0"/>
        <pt x="485" y="536" on="0"/>
        <pt x="447" y="536" on="1"/>
        <pt x="422" y="536" on="0"/>
        <pt x="408" y="503" on="0"/>
        <pt x="408" y="480" on="1"/>
        <pt x="408" y="472" on="0"/>
        <pt x="410" y="459" on="0"/>
        <pt x="410" y="454" on="1"/>
        <pt x="410" y="449" on="0"/>
        <pt x="406" y="432" on="0"/>
        <pt x="401" y="413" on="0"/>
        <pt x="397" y="396" on="0"/>
        <pt x="396" y="390" on="1"/>
        <pt x="394" y="373" on="0"/>
        <pt x="390" y="341" on="0"/>
        <pt x="385" y="300" on="0"/>
        <pt x="378" y="248" on="0"/>
        <pt x="374" y="211" on="1"/>
        <pt x="371" y="182" on="0"/>
        <pt x="363" y="144" on="0"/>
        <pt x="351" y="111" on="0"/>
        <pt x="334" y="78" on="0"/>
        <pt x="321" y="54" on="1"/>
        <pt x="324" y="54" on="0"/>
        <pt x="329" y="53" on="0"/>
        <pt x="331" y="53" on="1"/>
        <pt x="344" y="53" on="0"/>
        <pt x="371" y="61" on="0"/>
        <pt x="396" y="68" on="1"/>
        <pt x="402" y="72" on="0"/>
        <pt x="408" y="76" on="1"/>
        <pt x="413" y="79" on="0"/>
        <pt x="423" y="84" on="0"/>
        <pt x="428" y="84" on="1"/>
        <pt x="431" y="84" on="0"/>
        <pt x="443" y="82" on="0"/>
        <pt x="448" y="82" on="1"/>
        <pt x="454" y="82" on="0"/>
        <pt x="459" y="87" on="0"/>
        <pt x="465" y="87" on="1"/>
        <pt x="477" y="87" on="0"/>
        <pt x="547" y="80" on="0"/>
        <pt x="595" y="80" on="1"/>
        <pt x="614" y="80" on="0"/>
        <pt x="649" y="83" on="0"/>
        <pt x="665" y="91" on="1"/>
        <pt x="667" y="93" on="0"/>
        <pt x="676" y="103" on="0"/>
        <pt x="686" y="115" on="0"/>
        <pt x="697" y="125" on="0"/>
        <pt x="702" y="128" on="1"/>
        <pt x="708" y="132" on="0"/>
        <pt x="726" y="131" on="0"/>
        <pt x="732" y="136" on="1"/>
        <pt x="740" y="142" on="0"/>
        <pt x="752" y="163" on="0"/>
        <pt x="762" y="173" on="1"/>
        <pt x="814" y="225" on="1"/>
        <pt x="818" y="229" on="0"/>
        <pt x="826" y="240" on="0"/>
        <pt x="837" y="250" on="0"/>
        <pt x="853" y="256" on="0"/>
        <pt x="865" y="256" on="1"/>
      </contour>
    </TTGlyph>
    <TTGlyph name="Eacute" xMin="124" yMin="-38" xMax="908" yMax="1427">
      <component glyphName="E" x="0" y="0" flags="0x204"/>
      <component glyphName="acute" x="552" y="343" flags="0x4"/>
    </TTGlyph>
    <TTGlyph name="Ebreve" xMin="124" yMin="-38" xMax="908" yMax="1380">
      <component glyphName="E" x="0" y="0" flags="0x204"/>
      <component glyphName="breve" x="436" y="265" flags="0x4"/>
    </TTGlyph>
    <TTGlyph name="Ecaron" xMin="124" yMin="-38" xMax="908" yMax="1420">
      <component glyphName="E" x="0" y="0" flags="0x204"/>
      <component glyphName="caron" x="452" y="275" flags="0x4"/>
    </TTGlyph>
    <TTGlyph name="Ecircumflex" xMin="124" yMin="-38" xMax="908" yMax="1415">
      <component glyphName="E" x="0" y="0" flags="0x204"/>
      <component glyphName="circumflex" x="437" y="270" flags="0x4"/>
    </TTGlyph>
    <TTGlyph name="Edieresis" xMin="124" yMin="-38" xMax="908" yMax="1389">
      <component glyphName="E" x="0" y="0" flags="0x204"/>
      <component glyphName="dieresis" x="475" y="328" flags="0x4"/>
    </TTGlyph>
    <TTGlyph name="Edotaccent" xMin="124" yMin="-38" xMax="908" yMax="1380">
      <component glyphName="E" x="0" y="0" flags="0x204"/>
      <component glyphName="dotaccent" x="565" y="319" flags="0x4"/>
    </TTGlyph>
    <TTGlyph name="Egrave" xMin="124" yMin="-38" xMax="908" yMax="1456">
      <component glyphName="E" x="0" y="0" flags="0x204"/>
      <component glyphName="grave" x="372" y="352" flags="0x4"/>
    </TTGlyph>
    <TTGlyph name="Emacron" xMin="124" yMin="-38" xMax="919" yMax="1338">
      <component glyphName="E" x="0" y="0" flags="0x204"/>
      <component glyphName="macron" x="328" y="265" flags="0x4"/>
    </TTGlyph>
    <TTGlyph name="Eng" xMin="42" yMin="-361" xMax="1305" yMax="1168">
      <contour>
        <pt x="1305" y="1118" on="1"/>
        <pt x="1297" y="1109" on="0"/>
        <pt x="1281" y="1104" on="0"/>
        <pt x="1273" y="1104" on="1"/>
        <pt x="1268" y="1104" on="0"/>
        <pt x="1260" y="1105" on="0"/>
        <pt x="1255" y="1105" on="1"/>
        <pt x="1246" y="1105" on="0"/>
        <pt x="1239" y="1102" on="0"/>
        <pt x="1223" y="1095" on="1"/>
        <pt x="1222" y="1095" on="1"/>
        <pt x="1219" y="1095" on="0"/>
        <pt x="1200" y="1093" on="0"/>
        <pt x="1189" y="1091" on="1"/>
        <pt x="1177" y="1089" on="0"/>
        <pt x="1163" y="1088" on="1"/>
        <pt x="1159" y="1084" on="0"/>
        <pt x="1151" y="1054" on="0"/>
        <pt x="1144" y="1011" on="0"/>
        <pt x="1136" y="960" on="0"/>
        <pt x="1131" y="913" on="0"/>
        <pt x="1127" y="874" on="0"/>
        <pt x="1126" y="864" on="1"/>
        <pt x="1121" y="813" on="0"/>
        <pt x="1117" y="708" on="0"/>
        <pt x="1111" y="655" on="1"/>
        <pt x="1109" y="635" on="0"/>
        <pt x="1100" y="593" on="0"/>
        <pt x="1096" y="566" on="1"/>
        <pt x="1094" y="555" on="0"/>
        <pt x="1081" y="531" on="0"/>
        <pt x="1081" y="518" on="1"/>
        <pt x="1081" y="507" on="0"/>
        <pt x="1088" y="471" on="0"/>
        <pt x="1088" y="461" on="1"/>
        <pt x="1086" y="460" on="0"/>
        <pt x="1081" y="445" on="0"/>
        <pt x="1081" y="443" on="1"/>
        <pt x="1081" y="439" on="0"/>
        <pt x="1082" y="432" on="0"/>
        <pt x="1082" y="429" on="1"/>
        <pt x="1082" y="424" on="0"/>
        <pt x="1066" y="401" on="0"/>
        <pt x="1066" y="397" on="1"/>
        <pt x="1066" y="390" on="0"/>
        <pt x="1073" y="380" on="0"/>
        <pt x="1073" y="371" on="1"/>
        <pt x="1073" y="360" on="0"/>
        <pt x="1066" y="349" on="0"/>
        <pt x="1066" y="338" on="1"/>
        <pt x="1066" y="335" on="0"/>
        <pt x="1067" y="328" on="0"/>
        <pt x="1067" y="325" on="1"/>
        <pt x="1067" y="320" on="0"/>
        <pt x="1054" y="304" on="0"/>
        <pt x="1051" y="289" on="1"/>
        <pt x="1047" y="269" on="0"/>
        <pt x="1049" y="239" on="0"/>
        <pt x="1044" y="222" on="1"/>
        <pt x="1033" y="196" on="0"/>
        <pt x="1027" y="126" on="0"/>
        <pt x="1018" y="90" on="1"/>
        <pt x="1016" y="76" on="0"/>
        <pt x="1015" y="59" on="0"/>
        <pt x="1010" y="43" on="0"/>
        <pt x="997" y="21" on="0"/>
        <pt x="984" y="2" on="1"/>
        <pt x="978" y="-10" on="0"/>
        <pt x="971" y="-36" on="0"/>
        <pt x="964" y="-47" on="1"/>
        <pt x="962" y="-49" on="0"/>
        <pt x="951" y="-51" on="0"/>
        <pt x="949" y="-54" on="1"/>
        <pt x="944" y="-61" on="0"/>
        <pt x="939" y="-79" on="0"/>
        <pt x="934" y="-84" on="1"/>
        <pt x="890" y="-140" on="0"/>
        <pt x="797" y="-242" on="0"/>
        <pt x="732" y="-294" on="1"/>
        <pt x="727" y="-297" on="0"/>
        <pt x="722" y="-305" on="0"/>
        <pt x="717" y="-308" on="1"/>
        <pt x="712" y="-312" on="0"/>
        <pt x="701" y="-312" on="0"/>
        <pt x="695" y="-316" on="1"/>
        <pt x="687" y="-321" on="0"/>
        <pt x="664" y="-336" on="0"/>
        <pt x="636" y="-351" on="0"/>
        <pt x="606" y="-361" on="0"/>
        <pt x="590" y="-361" on="1"/>
        <pt x="582" y="-361" on="0"/>
        <pt x="582" y="-355" on="1"/>
        <pt x="582" y="-343" on="0"/>
        <pt x="590" y="-330" on="0"/>
        <pt x="602" y="-323" on="0"/>
        <pt x="615" y="-319" on="0"/>
        <pt x="620" y="-316" on="1"/>
        <pt x="657" y="-293" on="0"/>
        <pt x="733" y="-235" on="0"/>
        <pt x="777" y="-182" on="1"/>
        <pt x="781" y="-177" on="0"/>
        <pt x="781" y="-164" on="0"/>
        <pt x="784" y="-159" on="1"/>
        <pt x="787" y="-156" on="0"/>
        <pt x="798" y="-153" on="0"/>
        <pt x="800" y="-151" on="1"/>
        <pt x="805" y="-143" on="0"/>
        <pt x="810" y="-123" on="0"/>
        <pt x="815" y="-114" on="1"/>
        <pt x="817" y="-108" on="0"/>
        <pt x="830" y="-101" on="0"/>
        <pt x="830" y="-94" on="1"/>
        <pt x="830" y="-91" on="0"/>
        <pt x="828" y="-84" on="0"/>
        <pt x="828" y="-81" on="1"/>
        <pt x="828" y="-75" on="0"/>
        <pt x="842" y="-67" on="0"/>
        <pt x="844" y="-62" on="1"/>
        <pt x="857" y="-39" on="0"/>
        <pt x="868" y="43" on="0"/>
        <pt x="877" y="90" on="1"/>
        <pt x="864" y="110" on="1"/>
        <pt x="834" y="153" on="0"/>
        <pt x="787" y="216" on="0"/>
        <pt x="746" y="270" on="0"/>
        <pt x="707" y="320" on="0"/>
        <pt x="685" y="349" on="1"/>
        <pt x="640" y="409" on="1"/>
        <pt x="627" y="424" on="0"/>
        <pt x="597" y="449" on="0"/>
        <pt x="588" y="461" on="1"/>
        <pt x="583" y="468" on="0"/>
        <pt x="585" y="484" on="0"/>
        <pt x="580" y="490" on="1"/>
        <pt x="576" y="497" on="0"/>
        <pt x="557" y="519" on="0"/>
        <pt x="537" y="541" on="0"/>
        <pt x="521" y="561" on="0"/>
        <pt x="521" y="566" on="1"/>
        <pt x="517" y="570" on="0"/>
        <pt x="517" y="583" on="0"/>
        <pt x="513" y="588" on="1"/>
        <pt x="512" y="590" on="0"/>
        <pt x="500" y="593" on="0"/>
        <pt x="499" y="595" on="1"/>
        <pt x="494" y="604" on="0"/>
        <pt x="485" y="622" on="0"/>
        <pt x="474" y="645" on="0"/>
        <pt x="458" y="673" on="0"/>
        <pt x="446" y="692" on="1"/>
        <pt x="442" y="699" on="0"/>
        <pt x="425" y="730" on="0"/>
        <pt x="406" y="762" on="0"/>
        <pt x="390" y="786" on="0"/>
        <pt x="386" y="786" on="1"/>
        <pt x="384" y="786" on="0"/>
        <pt x="371" y="780" on="0"/>
        <pt x="371" y="769" on="1"/>
        <pt x="371" y="767" on="0"/>
        <pt x="372" y="761" on="0"/>
        <pt x="372" y="759" on="1"/>
        <pt x="367" y="742" on="0"/>
        <pt x="356" y="687" on="0"/>
        <pt x="347" y="628" on="0"/>
        <pt x="340" y="574" on="0"/>
        <pt x="340" y="558" on="1"/>
        <pt x="340" y="539" on="1"/>
        <pt x="340" y="528" on="0"/>
        <pt x="338" y="504" on="0"/>
        <pt x="334" y="490" on="1"/>
        <pt x="333" y="486" on="0"/>
        <pt x="327" y="480" on="0"/>
        <pt x="327" y="472" on="1"/>
        <pt x="327" y="467" on="0"/>
        <pt x="328" y="454" on="0"/>
        <pt x="328" y="448" on="1"/>
        <pt x="328" y="442" on="0"/>
        <pt x="314" y="421" on="0"/>
        <pt x="312" y="401" on="1"/>
        <pt x="310" y="382" on="0"/>
        <pt x="304" y="327" on="0"/>
        <pt x="298" y="270" on="0"/>
        <pt x="294" y="216" on="0"/>
        <pt x="294" y="198" on="1"/>
        <pt x="294" y="196" on="0"/>
        <pt x="297" y="187" on="0"/>
        <pt x="297" y="179" on="1"/>
        <pt x="297" y="170" on="0"/>
        <pt x="294" y="140" on="0"/>
        <pt x="289" y="105" on="0"/>
        <pt x="286" y="71" on="0"/>
        <pt x="286" y="59" on="1"/>
        <pt x="286" y="41" on="0"/>
        <pt x="303" y="32" on="0"/>
        <pt x="312" y="32" on="1"/>
        <pt x="326" y="32" on="0"/>
        <pt x="357" y="43" on="0"/>
        <pt x="371" y="43" on="1"/>
        <pt x="387" y="43" on="0"/>
        <pt x="394" y="28" on="1"/>
        <pt x="389" y="6" on="0"/>
        <pt x="356" y="-9" on="0"/>
        <pt x="313" y="-13" on="0"/>
        <pt x="265" y="-12" on="0"/>
        <pt x="244" y="-17" on="1"/>
        <pt x="236" y="-19" on="0"/>
        <pt x="230" y="-32" on="0"/>
        <pt x="213" y="-32" on="1"/>
        <pt x="204" y="-32" on="0"/>
        <pt x="183" y="-25" on="0"/>
        <pt x="170" y="-25" on="1"/>
        <pt x="160" y="-25" on="0"/>
        <pt x="128" y="-27" on="0"/>
        <pt x="110" y="-32" on="1"/>
        <pt x="105" y="-33" on="0"/>
        <pt x="101" y="-39" on="0"/>
        <pt x="96" y="-39" on="1"/>
        <pt x="73" y="-37" on="0"/>
        <pt x="42" y="-23" on="0"/>
        <pt x="42" y="-9" on="1"/>
        <pt x="42" y="2" on="0"/>
        <pt x="64" y="9" on="0"/>
        <pt x="80" y="13" on="1"/>
        <pt x="97" y="17" on="0"/>
        <pt x="126" y="17" on="0"/>
        <pt x="152" y="32" on="0"/>
        <pt x="174" y="73" on="0"/>
        <pt x="185" y="118" on="1"/>
        <pt x="187" y="123" on="0"/>
        <pt x="192" y="123" on="0"/>
        <pt x="192" y="125" on="1"/>
        <pt x="211" y="188" on="0"/>
        <pt x="240" y="328" on="0"/>
        <pt x="260" y="409" on="1"/>
        <pt x="268" y="443" on="0"/>
        <pt x="281" y="526" on="0"/>
        <pt x="291" y="614" on="0"/>
        <pt x="300" y="704" on="0"/>
        <pt x="304" y="745" on="1"/>
        <pt x="306" y="762" on="0"/>
        <pt x="312" y="790" on="0"/>
        <pt x="312" y="804" on="1"/>
        <pt x="312" y="810" on="0"/>
        <pt x="319" y="810" on="0"/>
        <pt x="320" y="812" on="1"/>
        <pt x="320" y="815" on="0"/>
        <pt x="312" y="833" on="0"/>
        <pt x="312" y="849" on="1"/>
        <pt x="312" y="866" on="0"/>
        <pt x="320" y="887" on="0"/>
        <pt x="320" y="902" on="1"/>
        <pt x="320" y="927" on="0"/>
        <pt x="315" y="983" on="0"/>
        <pt x="315" y="1008" on="1"/>
        <pt x="315" y="1023" on="0"/>
        <pt x="317" y="1044" on="0"/>
        <pt x="327" y="1064" on="0"/>
        <pt x="351" y="1087" on="0"/>
        <pt x="372" y="1103" on="1"/>
        <pt x="374" y="1105" on="0"/>
        <pt x="376" y="1126" on="0"/>
        <pt x="380" y="1126" on="1"/>
        <pt x="382" y="1126" on="0"/>
        <pt x="388" y="1124" on="0"/>
        <pt x="390" y="1124" on="1"/>
        <pt x="389" y="1124" on="0"/>
        <pt x="415" y="1140" on="0"/>
        <pt x="429" y="1140" on="1"/>
        <pt x="435" y="1140" on="0"/>
        <pt x="448" y="1102" on="0"/>
        <pt x="462" y="1049" on="0"/>
        <pt x="476" y="994" on="0"/>
        <pt x="484" y="976" on="1"/>
        <pt x="484" y="977" on="0"/>
        <pt x="498" y="952" on="0"/>
        <pt x="514" y="918" on="0"/>
        <pt x="528" y="886" on="0"/>
        <pt x="528" y="882" on="1"/>
        <pt x="528" y="878" on="0"/>
        <pt x="527" y="871" on="0"/>
        <pt x="527" y="868" on="1"/>
        <pt x="527" y="859" on="0"/>
        <pt x="546" y="842" on="0"/>
        <pt x="551" y="834" on="1"/>
        <pt x="562" y="814" on="0"/>
        <pt x="571" y="776" on="0"/>
        <pt x="580" y="759" on="1"/>
        <pt x="588" y="748" on="0"/>
        <pt x="601" y="742" on="0"/>
        <pt x="611" y="735" on="0"/>
        <pt x="616" y="719" on="0"/>
        <pt x="616" y="699" on="1"/>
        <pt x="616" y="689" on="0"/>
        <pt x="625" y="675" on="0"/>
        <pt x="637" y="661" on="0"/>
        <pt x="651" y="648" on="0"/>
        <pt x="656" y="640" on="1"/>
        <pt x="664" y="626" on="0"/>
        <pt x="696" y="590" on="0"/>
        <pt x="708" y="573" on="1"/>
        <pt x="714" y="565" on="0"/>
        <pt x="718" y="543" on="0"/>
        <pt x="723" y="535" on="1"/>
        <pt x="734" y="517" on="0"/>
        <pt x="776" y="481" on="0"/>
        <pt x="790" y="461" on="1"/>
        <pt x="794" y="456" on="0"/>
        <pt x="793" y="443" on="0"/>
        <pt x="797" y="438" on="1"/>
        <pt x="799" y="436" on="0"/>
        <pt x="810" y="433" on="0"/>
        <pt x="812" y="431" on="1"/>
        <pt x="817" y="424" on="0"/>
        <pt x="822" y="401" on="0"/>
        <pt x="827" y="394" on="1"/>
        <pt x="837" y="382" on="0"/>
        <pt x="869" y="348" on="0"/>
        <pt x="894" y="311" on="1"/>
        <pt x="899" y="304" on="0"/>
        <pt x="912" y="296" on="0"/>
        <pt x="916" y="289" on="1"/>
        <pt x="920" y="284" on="0"/>
        <pt x="921" y="271" on="0"/>
        <pt x="924" y="266" on="1"/>
        <pt x="926" y="264" on="0"/>
        <pt x="937" y="253" on="0"/>
        <pt x="943" y="247" on="1"/>
        <pt x="950" y="240" on="0"/>
        <pt x="959" y="232" on="1"/>
        <pt x="960" y="232" on="0"/>
        <pt x="968" y="249" on="0"/>
        <pt x="977" y="271" on="0"/>
        <pt x="984" y="292" on="0"/>
        <pt x="984" y="297" on="1"/>
        <pt x="984" y="301" on="0"/>
        <pt x="982" y="316" on="0"/>
        <pt x="982" y="325" on="1"/>
        <pt x="982" y="334" on="0"/>
        <pt x="986" y="344" on="0"/>
        <pt x="991" y="349" on="0"/>
        <pt x="997" y="352" on="0"/>
        <pt x="999" y="356" on="1"/>
        <pt x="1028" y="461" on="1"/>
        <pt x="1030" y="470" on="0"/>
        <pt x="1034" y="501" on="0"/>
        <pt x="1038" y="538" on="0"/>
        <pt x="1045" y="578" on="0"/>
        <pt x="1051" y="595" on="1"/>
        <pt x="1051" y="604" on="0"/>
        <pt x="1044" y="613" on="0"/>
        <pt x="1044" y="621" on="1"/>
        <pt x="1044" y="639" on="0"/>
        <pt x="1057" y="668" on="0"/>
        <pt x="1059" y="685" on="1"/>
        <pt x="1064" y="720" on="0"/>
        <pt x="1066" y="793" on="0"/>
        <pt x="1066" y="833" on="1"/>
        <pt x="1066" y="847" on="0"/>
        <pt x="1065" y="876" on="0"/>
        <pt x="1065" y="890" on="1"/>
        <pt x="1065" y="925" on="0"/>
        <pt x="1072" y="998" on="0"/>
        <pt x="1072" y="1028" on="1"/>
        <pt x="1072" y="1048" on="0"/>
        <pt x="1056" y="1074" on="0"/>
        <pt x="1030" y="1074" on="1"/>
        <pt x="1016" y="1074" on="0"/>
        <pt x="997" y="1066" on="0"/>
        <pt x="988" y="1066" on="1"/>
        <pt x="984" y="1066" on="1"/>
        <pt x="978" y="1066" on="0"/>
        <pt x="962" y="1066" on="0"/>
        <pt x="949" y="1072" on="0"/>
        <pt x="940" y="1085" on="0"/>
        <pt x="940" y="1099" on="1"/>
        <pt x="940" y="1115" on="0"/>
        <pt x="956" y="1122" on="0"/>
        <pt x="972" y="1122" on="1"/>
        <pt x="982" y="1122" on="0"/>
        <pt x="1005" y="1121" on="0"/>
        <pt x="1017" y="1121" on="1"/>
        <pt x="1025" y="1121" on="0"/>
        <pt x="1040" y="1121" on="0"/>
        <pt x="1055" y="1126" on="0"/>
        <pt x="1071" y="1137" on="0"/>
        <pt x="1081" y="1148" on="1"/>
        <pt x="1089" y="1157" on="0"/>
        <pt x="1103" y="1168" on="0"/>
        <pt x="1111" y="1168" on="1"/>
        <pt x="1119" y="1168" on="0"/>
        <pt x="1133" y="1159" on="0"/>
        <pt x="1147" y="1148" on="0"/>
        <pt x="1163" y="1139" on="0"/>
        <pt x="1174" y="1139" on="1"/>
        <pt x="1194" y="1139" on="0"/>
        <pt x="1240" y="1148" on="0"/>
        <pt x="1260" y="1148" on="1"/>
        <pt x="1277" y="1148" on="0"/>
        <pt x="1300" y="1136" on="0"/>
      </contour>
    </TTGlyph>
    <TTGlyph name="Eogonek" xMin="124" yMin="-351" xMax="908" yMax="1131">
      <contour>
        <pt x="816" y="-249" on="1"/>
        <pt x="814" y="-257" on="0"/>
        <pt x="798" y="-291" on="0"/>
        <pt x="776" y="-325" on="0"/>
        <pt x="753" y="-351" on="0"/>
        <pt x="746" y="-351" on="1"/>
        <pt x="740" y="-351" on="0"/>
        <pt x="733" y="-345" on="0"/>
        <pt x="728" y="-338" on="0"/>
        <pt x="723" y="-332" on="0"/>
        <pt x="719" y="-332" on="1"/>
        <pt x="717" y="-332" on="0"/>
        <pt x="713" y="-333" on="0"/>
        <pt x="711" y="-333" on="1"/>
        <pt x="708" y="-333" on="0"/>
        <pt x="708" y="-331" on="1"/>
        <pt x="708" y="-329" on="0"/>
        <pt x="709" y="-325" on="0"/>
        <pt x="709" y="-323" on="1"/>
        <pt x="709" y="-320" on="0"/>
        <pt x="695" y="-308" on="0"/>
        <pt x="675" y="-293" on="0"/>
        <pt x="655" y="-279" on="0"/>
        <pt x="649" y="-273" on="1"/>
        <pt x="645" y="-270" on="0"/>
        <pt x="641" y="-257" on="0"/>
        <pt x="637" y="-254" on="1"/>
        <pt x="632" y="-252" on="0"/>
        <pt x="621" y="-253" on="0"/>
        <pt x="619" y="-249" on="1"/>
        <pt x="619" y="-250" on="0"/>
        <pt x="618" y="-230" on="0"/>
        <pt x="613" y="-219" on="1"/>
        <pt x="611" y="-215" on="0"/>
        <pt x="603" y="-197" on="0"/>
        <pt x="595" y="-177" on="0"/>
        <pt x="589" y="-157" on="0"/>
        <pt x="589" y="-150" on="1"/>
        <pt x="589" y="-146" on="0"/>
        <pt x="591" y="-129" on="0"/>
        <pt x="594" y="-110" on="0"/>
        <pt x="599" y="-92" on="0"/>
        <pt x="601" y="-87" on="1"/>
        <pt x="606" y="-84" on="0"/>
        <pt x="610" y="-80" on="1"/>
        <pt x="618" y="-72" on="0"/>
        <pt x="625" y="-58" on="1"/>
        <pt x="625" y="-56" on="1"/>
        <pt x="625" y="-54" on="0"/>
        <pt x="624" y="-50" on="0"/>
        <pt x="624" y="-48" on="1"/>
        <pt x="624" y="-47" on="0"/>
        <pt x="644" y="-21" on="0"/>
        <pt x="651" y="-8" on="1"/>
        <pt x="617" y="-11" on="0"/>
        <pt x="544" y="-14" on="0"/>
        <pt x="512" y="-14" on="1"/>
        <pt x="492" y="-14" on="0"/>
        <pt x="449" y="-13" on="0"/>
        <pt x="429" y="-13" on="1"/>
        <pt x="409" y="-13" on="0"/>
        <pt x="378" y="-21" on="0"/>
        <pt x="366" y="-21" on="1"/>
        <pt x="340" y="-21" on="0"/>
        <pt x="296" y="-13" on="0"/>
        <pt x="276" y="-13" on="1"/>
        <pt x="255" y="-14" on="0"/>
        <pt x="222" y="-22" on="0"/>
        <pt x="190" y="-31" on="0"/>
        <pt x="159" y="-38" on="0"/>
        <pt x="141" y="-38" on="1"/>
        <pt x="134" y="-38" on="0"/>
        <pt x="124" y="-34" on="0"/>
        <pt x="124" y="-23" on="1"/>
        <pt x="124" y="-11" on="0"/>
        <pt x="149" y="-3" on="0"/>
        <pt x="180" y="3" on="0"/>
        <pt x="205" y="13" on="0"/>
        <pt x="205" y="26" on="1"/>
        <pt x="205" y="36" on="1"/>
        <pt x="205" y="41" on="0"/>
        <pt x="206" y="53" on="0"/>
        <pt x="209" y="61" on="1"/>
        <pt x="210" y="64" on="0"/>
        <pt x="224" y="73" on="0"/>
        <pt x="224" y="79" on="1"/>
        <pt x="224" y="81" on="0"/>
        <pt x="223" y="87" on="0"/>
        <pt x="223" y="89" on="1"/>
        <pt x="223" y="90" on="0"/>
        <pt x="224" y="91" on="1"/>
        <pt x="234" y="100" on="0"/>
        <pt x="241" y="153" on="0"/>
        <pt x="243" y="219" on="0"/>
        <pt x="243" y="288" on="0"/>
        <pt x="246" y="315" on="1"/>
        <pt x="249" y="337" on="0"/>
        <pt x="265" y="381" on="0"/>
        <pt x="269" y="404" on="1"/>
        <pt x="269" y="408" on="0"/>
        <pt x="272" y="438" on="0"/>
        <pt x="274" y="472" on="0"/>
        <pt x="276" y="505" on="0"/>
        <pt x="276" y="512" on="1"/>
        <pt x="276" y="518" on="0"/>
        <pt x="267" y="523" on="0"/>
        <pt x="262" y="523" on="1"/>
        <pt x="251" y="523" on="0"/>
        <pt x="224" y="507" on="0"/>
        <pt x="196" y="487" on="0"/>
        <pt x="168" y="471" on="0"/>
        <pt x="157" y="471" on="1"/>
        <pt x="149" y="471" on="0"/>
        <pt x="147" y="481" on="0"/>
        <pt x="147" y="486" on="1"/>
        <pt x="147" y="498" on="0"/>
        <pt x="165" y="517" on="0"/>
        <pt x="191" y="535" on="0"/>
        <pt x="220" y="552" on="0"/>
        <pt x="231" y="561" on="1"/>
        <pt x="236" y="566" on="0"/>
        <pt x="236" y="576" on="0"/>
        <pt x="241" y="576" on="1"/>
        <pt x="243" y="576" on="0"/>
        <pt x="249" y="575" on="0"/>
        <pt x="251" y="575" on="1"/>
        <pt x="256" y="575" on="0"/>
        <pt x="258" y="590" on="0"/>
        <pt x="262" y="592" on="1"/>
        <pt x="271" y="595" on="0"/>
        <pt x="283" y="600" on="0"/>
        <pt x="291" y="617" on="0"/>
        <pt x="295" y="653" on="0"/>
        <pt x="295" y="688" on="1"/>
        <pt x="295" y="722" on="0"/>
        <pt x="312" y="761" on="0"/>
        <pt x="314" y="778" on="1"/>
        <pt x="316" y="794" on="0"/>
        <pt x="318" y="832" on="0"/>
        <pt x="319" y="871" on="0"/>
        <pt x="320" y="906" on="0"/>
        <pt x="321" y="920" on="1"/>
        <pt x="323" y="941" on="0"/>
        <pt x="331" y="981" on="0"/>
        <pt x="331" y="995" on="1"/>
        <pt x="331" y="1015" on="0"/>
        <pt x="305" y="1027" on="0"/>
        <pt x="292" y="1027" on="1"/>
        <pt x="281" y="1027" on="0"/>
        <pt x="256" y="1024" on="0"/>
        <pt x="245" y="1024" on="1"/>
        <pt x="234" y="1024" on="0"/>
        <pt x="215" y="1030" on="0"/>
        <pt x="209" y="1040" on="1"/>
        <pt x="214" y="1056" on="0"/>
        <pt x="243" y="1070" on="0"/>
        <pt x="282" y="1075" on="0"/>
        <pt x="325" y="1074" on="0"/>
        <pt x="343" y="1076" on="1"/>
        <pt x="379" y="1079" on="0"/>
        <pt x="455" y="1081" on="0"/>
        <pt x="493" y="1084" on="1"/>
        <pt x="516" y="1086" on="0"/>
        <pt x="561" y="1099" on="0"/>
        <pt x="586" y="1099" on="1"/>
        <pt x="596" y="1099" on="0"/>
        <pt x="615" y="1098" on="0"/>
        <pt x="626" y="1098" on="1"/>
        <pt x="657" y="1098" on="0"/>
        <pt x="708" y="1114" on="0"/>
        <pt x="741" y="1114" on="1"/>
        <pt x="748" y="1114" on="0"/>
        <pt x="753" y="1112" on="0"/>
        <pt x="755" y="1109" on="0"/>
        <pt x="757" y="1107" on="0"/>
        <pt x="760" y="1107" on="1"/>
        <pt x="762" y="1107" on="0"/>
        <pt x="763" y="1109" on="0"/>
        <pt x="765" y="1112" on="0"/>
        <pt x="770" y="1114" on="0"/>
        <pt x="778" y="1114" on="1"/>
        <pt x="786" y="1114" on="0"/>
        <pt x="801" y="1113" on="0"/>
        <pt x="809" y="1113" on="1"/>
        <pt x="818" y="1113" on="0"/>
        <pt x="832" y="1119" on="0"/>
        <pt x="845" y="1125" on="0"/>
        <pt x="860" y="1131" on="0"/>
        <pt x="871" y="1131" on="1"/>
        <pt x="891" y="1131" on="0"/>
        <pt x="908" y="1111" on="0"/>
        <pt x="908" y="1096" on="1"/>
        <pt x="908" y="1081" on="0"/>
        <pt x="896" y="1044" on="0"/>
        <pt x="880" y="1007" on="0"/>
        <pt x="863" y="974" on="0"/>
        <pt x="858" y="964" on="1"/>
        <pt x="854" y="956" on="0"/>
        <pt x="849" y="935" on="0"/>
        <pt x="844" y="928" on="1"/>
        <pt x="839" y="922" on="0"/>
        <pt x="825" y="911" on="0"/>
        <pt x="822" y="905" on="1"/>
        <pt x="819" y="902" on="0"/>
        <pt x="816" y="885" on="0"/>
        <pt x="812" y="868" on="0"/>
        <pt x="804" y="855" on="0"/>
        <pt x="797" y="855" on="1"/>
        <pt x="788" y="855" on="0"/>
        <pt x="778" y="868" on="0"/>
        <pt x="778" y="877" on="1"/>
        <pt x="778" y="897" on="0"/>
        <pt x="792" y="946" on="0"/>
        <pt x="792" y="975" on="1"/>
        <pt x="792" y="992" on="0"/>
        <pt x="783" y="1025" on="0"/>
        <pt x="768" y="1025" on="1"/>
        <pt x="756" y="1025" on="0"/>
        <pt x="718" y="1017" on="0"/>
        <pt x="710" y="1017" on="1"/>
        <pt x="691" y="1017" on="0"/>
        <pt x="624" y="1023" on="0"/>
        <pt x="589" y="1023" on="1"/>
        <pt x="557" y="1023" on="0"/>
        <pt x="513" y="1014" on="0"/>
        <pt x="484" y="981" on="0"/>
        <pt x="467" y="916" on="0"/>
        <pt x="463" y="860" on="1"/>
        <pt x="463" y="848" on="1"/>
        <pt x="464" y="834" on="0"/>
        <pt x="448" y="775" on="0"/>
        <pt x="448" y="740" on="1"/>
        <pt x="448" y="725" on="1"/>
        <pt x="448" y="715" on="0"/>
        <pt x="441" y="702" on="0"/>
        <pt x="441" y="703" on="1"/>
        <pt x="441" y="698" on="0"/>
        <pt x="448" y="679" on="0"/>
        <pt x="448" y="666" on="1"/>
        <pt x="448" y="664" on="0"/>
        <pt x="439" y="649" on="0"/>
        <pt x="439" y="642" on="1"/>
        <pt x="439" y="637" on="0"/>
        <pt x="472" y="629" on="0"/>
        <pt x="518" y="624" on="0"/>
        <pt x="566" y="621" on="0"/>
        <pt x="582" y="621" on="1"/>
        <pt x="596" y="621" on="0"/>
        <pt x="627" y="629" on="0"/>
        <pt x="648" y="629" on="1"/>
        <pt x="658" y="629" on="0"/>
        <pt x="677" y="627" on="0"/>
        <pt x="685" y="627" on="1"/>
        <pt x="691" y="627" on="0"/>
        <pt x="694" y="628" on="1"/>
        <pt x="722" y="635" on="0"/>
        <pt x="751" y="659" on="0"/>
        <pt x="775" y="683" on="0"/>
        <pt x="806" y="702" on="0"/>
        <pt x="836" y="704" on="1"/>
        <pt x="840" y="699" on="0"/>
        <pt x="840" y="692" on="1"/>
        <pt x="840" y="681" on="0"/>
        <pt x="821" y="661" on="0"/>
        <pt x="814" y="651" on="1"/>
        <pt x="812" y="649" on="0"/>
        <pt x="809" y="631" on="0"/>
        <pt x="806" y="628" on="1"/>
        <pt x="801" y="623" on="0"/>
        <pt x="783" y="626" on="0"/>
        <pt x="777" y="621" on="1"/>
        <pt x="772" y="619" on="0"/>
        <pt x="767" y="610" on="0"/>
        <pt x="762" y="606" on="1"/>
        <pt x="731" y="588" on="0"/>
        <pt x="697" y="556" on="0"/>
        <pt x="671" y="533" on="0"/>
        <pt x="643" y="520" on="0"/>
        <pt x="619" y="520" on="1"/>
        <pt x="574" y="520" on="0"/>
        <pt x="485" y="536" on="0"/>
        <pt x="447" y="536" on="1"/>
        <pt x="422" y="536" on="0"/>
        <pt x="408" y="503" on="0"/>
        <pt x="408" y="480" on="1"/>
        <pt x="408" y="472" on="0"/>
        <pt x="410" y="459" on="0"/>
        <pt x="410" y="454" on="1"/>
        <pt x="410" y="449" on="0"/>
        <pt x="406" y="432" on="0"/>
        <pt x="401" y="413" on="0"/>
        <pt x="397" y="396" on="0"/>
        <pt x="396" y="390" on="1"/>
        <pt x="394" y="373" on="0"/>
        <pt x="390" y="341" on="0"/>
        <pt x="385" y="300" on="0"/>
        <pt x="378" y="248" on="0"/>
        <pt x="374" y="211" on="1"/>
        <pt x="371" y="182" on="0"/>
        <pt x="363" y="144" on="0"/>
        <pt x="351" y="111" on="0"/>
        <pt x="334" y="78" on="0"/>
        <pt x="321" y="54" on="1"/>
        <pt x="324" y="54" on="0"/>
        <pt x="329" y="53" on="0"/>
        <pt x="331" y="53" on="1"/>
        <pt x="344" y="53" on="0"/>
        <pt x="371" y="61" on="0"/>
        <pt x="396" y="68" on="1"/>
        <pt x="402" y="72" on="0"/>
        <pt x="408" y="76" on="1"/>
        <pt x="413" y="79" on="0"/>
        <pt x="423" y="84" on="0"/>
        <pt x="428" y="84" on="1"/>
        <pt x="431" y="84" on="0"/>
        <pt x="443" y="82" on="0"/>
        <pt x="448" y="82" on="1"/>
        <pt x="454" y="82" on="0"/>
        <pt x="459" y="87" on="0"/>
        <pt x="465" y="87" on="1"/>
        <pt x="477" y="87" on="0"/>
        <pt x="547" y="80" on="0"/>
        <pt x="595" y="80" on="1"/>
        <pt x="614" y="80" on="0"/>
        <pt x="649" y="83" on="0"/>
        <pt x="665" y="91" on="1"/>
        <pt x="667" y="93" on="0"/>
        <pt x="676" y="103" on="0"/>
        <pt x="686" y="115" on="0"/>
        <pt x="697" y="125" on="0"/>
        <pt x="702" y="128" on="1"/>
        <pt x="708" y="132" on="0"/>
        <pt x="726" y="131" on="0"/>
        <pt x="732" y="136" on="1"/>
        <pt x="740" y="142" on="0"/>
        <pt x="752" y="163" on="0"/>
        <pt x="762" y="173" on="1"/>
        <pt x="814" y="225" on="1"/>
        <pt x="818" y="229" on="0"/>
        <pt x="826" y="240" on="0"/>
        <pt x="837" y="250" on="0"/>
        <pt x="853" y="256" on="0"/>
        <pt x="865" y="256" on="1"/>
        <pt x="874" y="256" on="1"/>
        <pt x="871" y="232" on="0"/>
        <pt x="837" y="199" on="0"/>
        <pt x="822" y="180" on="1"/>
        <pt x="804" y="160" on="0"/>
        <pt x="781" y="133" on="0"/>
        <pt x="763" y="107" on="0"/>
        <pt x="748" y="77" on="0"/>
        <pt x="739" y="54" on="1"/>
        <pt x="733" y="40" on="0"/>
        <pt x="725" y="20" on="0"/>
        <pt x="713" y="6" on="0"/>
        <pt x="694" y="-2" on="0"/>
        <pt x="678" y="-5" on="1"/>
        <pt x="669" y="-30" on="0"/>
        <pt x="658" y="-56" on="0"/>
        <pt x="652" y="-72" on="0"/>
        <pt x="651" y="-84" on="0"/>
        <pt x="651" y="-94" on="1"/>
        <pt x="651" y="-100" on="0"/>
        <pt x="658" y="-119" on="0"/>
        <pt x="668" y="-135" on="0"/>
        <pt x="676" y="-147" on="0"/>
        <pt x="678" y="-147" on="1"/>
        <pt x="679" y="-147" on="1"/>
        <pt x="679" y="-149" on="0"/>
        <pt x="690" y="-163" on="0"/>
        <pt x="704" y="-178" on="0"/>
        <pt x="717" y="-192" on="0"/>
        <pt x="720" y="-195" on="1"/>
        <pt x="725" y="-200" on="0"/>
        <pt x="743" y="-202" on="0"/>
        <pt x="751" y="-207" on="1"/>
        <pt x="757" y="-211" on="0"/>
        <pt x="771" y="-225" on="0"/>
        <pt x="786" y="-239" on="0"/>
        <pt x="804" y="-249" on="0"/>
      </contour>
    </TTGlyph>
    <TTGlyph name="Eth" xMin="92" yMin="-35" xMax="1031" yMax="1264">
      <contour>
        <pt x="1031" y="525" on="1"/>
        <pt x="1031" y="487" on="0"/>
        <pt x="1020" y="403" on="0"/>
        <pt x="1000" y="323" on="0"/>
        <pt x="973" y="252" on="0"/>
        <pt x="957" y="226" on="1"/>
        <pt x="955" y="223" on="0"/>
        <pt x="950" y="226" on="0"/>
        <pt x="950" y="219" on="1"/>
        <pt x="947" y="209" on="0"/>
        <pt x="938" y="200" on="0"/>
        <pt x="928" y="196" on="0"/>
        <pt x="916" y="193" on="0"/>
        <pt x="912" y="189" on="1"/>
        <pt x="907" y="185" on="0"/>
        <pt x="887" y="158" on="0"/>
        <pt x="863" y="129" on="0"/>
        <pt x="841" y="106" on="0"/>
        <pt x="835" y="106" on="1"/>
        <pt x="833" y="106" on="0"/>
        <pt x="827" y="108" on="0"/>
        <pt x="825" y="108" on="1"/>
        <pt x="822" y="108" on="0"/>
        <pt x="822" y="107" on="1"/>
        <pt x="813" y="96" on="0"/>
        <pt x="776" y="72" on="0"/>
        <pt x="736" y="51" on="0"/>
        <pt x="702" y="35" on="0"/>
        <pt x="695" y="32" on="1"/>
        <pt x="682" y="25" on="0"/>
        <pt x="656" y="18" on="0"/>
        <pt x="636" y="10" on="1"/>
        <pt x="631" y="8" on="0"/>
        <pt x="616" y="-4" on="0"/>
        <pt x="614" y="-5" on="1"/>
        <pt x="575" y="-15" on="0"/>
        <pt x="449" y="-16" on="0"/>
        <pt x="374" y="-20" on="1"/>
        <pt x="360" y="-21" on="0"/>
        <pt x="328" y="-27" on="0"/>
        <pt x="314" y="-27" on="1"/>
        <pt x="297" y="-27" on="0"/>
        <pt x="267" y="-24" on="0"/>
        <pt x="250" y="-24" on="1"/>
        <pt x="235" y="-24" on="0"/>
        <pt x="199" y="-33" on="0"/>
        <pt x="188" y="-35" on="1"/>
        <pt x="181" y="-35" on="0"/>
        <pt x="174" y="-27" on="0"/>
        <pt x="173" y="-27" on="1"/>
        <pt x="164" y="-27" on="0"/>
        <pt x="137" y="-30" on="0"/>
        <pt x="123" y="-30" on="1"/>
        <pt x="110" y="-30" on="0"/>
        <pt x="92" y="-26" on="0"/>
        <pt x="92" y="-19" on="1"/>
        <pt x="92" y="-9" on="0"/>
        <pt x="128" y="19" on="0"/>
        <pt x="143" y="40" on="1"/>
        <pt x="152" y="54" on="0"/>
        <pt x="162" y="64" on="0"/>
        <pt x="171" y="66" on="0"/>
        <pt x="181" y="65" on="0"/>
        <pt x="188" y="70" on="1"/>
        <pt x="195" y="73" on="0"/>
        <pt x="206" y="93" on="0"/>
        <pt x="218" y="99" on="1"/>
        <pt x="223" y="102" on="0"/>
        <pt x="238" y="102" on="0"/>
        <pt x="240" y="107" on="1"/>
        <pt x="242" y="110" on="0"/>
        <pt x="247" y="135" on="0"/>
        <pt x="251" y="166" on="0"/>
        <pt x="254" y="196" on="0"/>
        <pt x="255" y="204" on="1"/>
        <pt x="259" y="237" on="0"/>
        <pt x="265" y="287" on="0"/>
        <pt x="270" y="337" on="0"/>
        <pt x="277" y="394" on="0"/>
        <pt x="283" y="435" on="1"/>
        <pt x="275" y="436" on="0"/>
        <pt x="254" y="437" on="0"/>
        <pt x="243" y="437" on="1"/>
        <pt x="219" y="437" on="0"/>
        <pt x="169" y="433" on="0"/>
        <pt x="152" y="428" on="1"/>
        <pt x="138" y="423" on="0"/>
        <pt x="118" y="405" on="0"/>
        <pt x="103" y="405" on="1"/>
        <pt x="98" y="405" on="0"/>
        <pt x="98" y="411" on="1"/>
        <pt x="98" y="420" on="0"/>
        <pt x="124" y="455" on="0"/>
        <pt x="154" y="491" on="0"/>
        <pt x="178" y="518" on="0"/>
        <pt x="177" y="518" on="1"/>
        <pt x="179" y="518" on="0"/>
        <pt x="183" y="517" on="0"/>
        <pt x="185" y="517" on="1"/>
        <pt x="189" y="517" on="0"/>
        <pt x="198" y="529" on="0"/>
        <pt x="208" y="542" on="0"/>
        <pt x="216" y="554" on="0"/>
        <pt x="219" y="554" on="1"/>
        <pt x="226" y="554" on="0"/>
        <pt x="255" y="548" on="0"/>
        <pt x="269" y="548" on="1"/>
        <pt x="278" y="548" on="0"/>
        <pt x="294" y="552" on="0"/>
        <pt x="305" y="554" on="1"/>
        <pt x="308" y="585" on="0"/>
        <pt x="312" y="653" on="0"/>
        <pt x="315" y="716" on="0"/>
        <pt x="318" y="769" on="0"/>
        <pt x="322" y="786" on="1"/>
        <pt x="325" y="800" on="0"/>
        <pt x="338" y="828" on="0"/>
        <pt x="338" y="842" on="1"/>
        <pt x="338" y="850" on="0"/>
        <pt x="336" y="864" on="0"/>
        <pt x="336" y="872" on="1"/>
        <pt x="336" y="878" on="0"/>
        <pt x="342" y="903" on="0"/>
        <pt x="348" y="931" on="0"/>
        <pt x="354" y="959" on="0"/>
        <pt x="354" y="969" on="1"/>
        <pt x="354" y="985" on="0"/>
        <pt x="329" y="995" on="0"/>
        <pt x="316" y="995" on="1"/>
        <pt x="299" y="995" on="0"/>
        <pt x="260" y="988" on="0"/>
        <pt x="242" y="988" on="1"/>
        <pt x="237" y="988" on="0"/>
        <pt x="225" y="989" on="0"/>
        <pt x="220" y="989" on="1"/>
        <pt x="203" y="989" on="0"/>
        <pt x="182" y="979" on="0"/>
        <pt x="165" y="966" on="0"/>
        <pt x="150" y="956" on="0"/>
        <pt x="141" y="956" on="1"/>
        <pt x="133" y="956" on="0"/>
        <pt x="128" y="958" on="1"/>
        <pt x="130" y="974" on="0"/>
        <pt x="149" y="1000" on="0"/>
        <pt x="175" y="1023" on="0"/>
        <pt x="204" y="1043" on="0"/>
        <pt x="218" y="1055" on="1"/>
        <pt x="226" y="1062" on="0"/>
        <pt x="244" y="1084" on="0"/>
        <pt x="265" y="1106" on="0"/>
        <pt x="287" y="1125" on="0"/>
        <pt x="300" y="1130" on="1"/>
        <pt x="306" y="1132" on="0"/>
        <pt x="340" y="1132" on="0"/>
        <pt x="379" y="1134" on="0"/>
        <pt x="413" y="1138" on="0"/>
        <pt x="419" y="1145" on="1"/>
        <pt x="423" y="1149" on="0"/>
        <pt x="422" y="1163" on="0"/>
        <pt x="426" y="1167" on="1"/>
        <pt x="430" y="1171" on="0"/>
        <pt x="443" y="1177" on="0"/>
        <pt x="455" y="1183" on="0"/>
        <pt x="464" y="1189" on="0"/>
        <pt x="464" y="1192" on="1"/>
        <pt x="464" y="1194" on="0"/>
        <pt x="463" y="1200" on="0"/>
        <pt x="463" y="1202" on="1"/>
        <pt x="463" y="1206" on="0"/>
        <pt x="476" y="1213" on="0"/>
        <pt x="479" y="1219" on="1"/>
        <pt x="480" y="1221" on="0"/>
        <pt x="486" y="1236" on="0"/>
        <pt x="494" y="1252" on="0"/>
        <pt x="502" y="1264" on="0"/>
        <pt x="505" y="1264" on="1"/>
        <pt x="509" y="1264" on="0"/>
        <pt x="524" y="1257" on="0"/>
        <pt x="524" y="1255" on="1"/>
        <pt x="524" y="1249" on="0"/>
        <pt x="520" y="1226" on="0"/>
        <pt x="514" y="1199" on="0"/>
        <pt x="510" y="1170" on="0"/>
        <pt x="510" y="1157" on="1"/>
        <pt x="510" y="1142" on="0"/>
        <pt x="519" y="1123" on="0"/>
        <pt x="533" y="1123" on="1"/>
        <pt x="538" y="1123" on="0"/>
        <pt x="547" y="1124" on="0"/>
        <pt x="555" y="1124" on="1"/>
        <pt x="561" y="1124" on="0"/>
        <pt x="581" y="1121" on="0"/>
        <pt x="598" y="1115" on="1"/>
        <pt x="603" y="1113" on="0"/>
        <pt x="612" y="1099" on="0"/>
        <pt x="618" y="1099" on="1"/>
        <pt x="621" y="1099" on="0"/>
        <pt x="628" y="1100" on="0"/>
        <pt x="631" y="1100" on="1"/>
        <pt x="636" y="1100" on="1"/>
        <pt x="639" y="1099" on="0"/>
        <pt x="658" y="1092" on="0"/>
        <pt x="682" y="1083" on="0"/>
        <pt x="704" y="1073" on="0"/>
        <pt x="710" y="1070" on="1"/>
        <pt x="713" y="1069" on="0"/>
        <pt x="716" y="1057" on="0"/>
        <pt x="718" y="1055" on="1"/>
        <pt x="731" y="1049" on="0"/>
        <pt x="768" y="1030" on="0"/>
        <pt x="785" y="1018" on="1"/>
        <pt x="793" y="1012" on="0"/>
        <pt x="806" y="995" on="0"/>
        <pt x="815" y="988" on="1"/>
        <pt x="826" y="979" on="0"/>
        <pt x="847" y="971" on="0"/>
        <pt x="852" y="966" on="1"/>
        <pt x="860" y="957" on="0"/>
        <pt x="862" y="936" on="0"/>
        <pt x="867" y="928" on="1"/>
        <pt x="878" y="911" on="0"/>
        <pt x="913" y="876" on="0"/>
        <pt x="927" y="854" on="1"/>
        <pt x="932" y="845" on="0"/>
        <pt x="936" y="821" on="0"/>
        <pt x="942" y="809" on="1"/>
        <pt x="944" y="805" on="0"/>
        <pt x="954" y="792" on="0"/>
        <pt x="964" y="777" on="0"/>
        <pt x="972" y="762" on="0"/>
        <pt x="972" y="755" on="1"/>
        <pt x="972" y="753" on="0"/>
        <pt x="971" y="746" on="0"/>
        <pt x="971" y="744" on="1"/>
        <pt x="971" y="742" on="0"/>
        <pt x="987" y="722" on="0"/>
        <pt x="987" y="716" on="1"/>
        <pt x="987" y="714" on="0"/>
        <pt x="986" y="707" on="0"/>
        <pt x="986" y="705" on="1"/>
        <pt x="986" y="704" on="1"/>
        <pt x="996" y="696" on="0"/>
        <pt x="1012" y="652" on="0"/>
        <pt x="1024" y="598" on="0"/>
        <pt x="1031" y="544" on="0"/>
      </contour>
      <contour>
        <pt x="690" y="590" on="1"/>
        <pt x="683" y="569" on="0"/>
        <pt x="656" y="533" on="0"/>
        <pt x="623" y="501" on="0"/>
        <pt x="586" y="469" on="0"/>
        <pt x="570" y="452" on="1"/>
        <pt x="562" y="443" on="0"/>
        <pt x="549" y="434" on="0"/>
        <pt x="534" y="429" on="0"/>
        <pt x="517" y="429" on="0"/>
        <pt x="504" y="429" on="1"/>
        <pt x="484" y="429" on="0"/>
        <pt x="444" y="431" on="0"/>
        <pt x="426" y="433" on="1"/>
        <pt x="422" y="409" on="0"/>
        <pt x="415" y="361" on="0"/>
        <pt x="412" y="338" on="1"/>
        <pt x="408" y="306" on="0"/>
        <pt x="404" y="241" on="0"/>
        <pt x="396" y="181" on="0"/>
        <pt x="381" y="130" on="0"/>
        <pt x="367" y="114" on="1"/>
        <pt x="360" y="110" on="0"/>
        <pt x="360" y="108" on="1"/>
        <pt x="360" y="105" on="0"/>
        <pt x="378" y="97" on="0"/>
        <pt x="386" y="97" on="1"/>
        <pt x="404" y="97" on="0"/>
        <pt x="451" y="103" on="0"/>
        <pt x="497" y="112" on="0"/>
        <pt x="540" y="120" on="0"/>
        <pt x="554" y="122" on="1"/>
        <pt x="585" y="126" on="0"/>
        <pt x="663" y="132" on="0"/>
        <pt x="688" y="137" on="1"/>
        <pt x="714" y="142" on="0"/>
        <pt x="737" y="154" on="0"/>
        <pt x="748" y="159" on="1"/>
        <pt x="771" y="170" on="0"/>
        <pt x="817" y="189" on="0"/>
        <pt x="860" y="209" on="0"/>
        <pt x="897" y="232" on="0"/>
        <pt x="912" y="249" on="1"/>
        <pt x="916" y="256" on="0"/>
        <pt x="919" y="296" on="0"/>
        <pt x="920" y="343" on="0"/>
        <pt x="920" y="388" on="0"/>
        <pt x="920" y="400" on="1"/>
        <pt x="920" y="432" on="0"/>
        <pt x="915" y="488" on="0"/>
        <pt x="912" y="502" on="1"/>
        <pt x="904" y="536" on="0"/>
        <pt x="891" y="604" on="0"/>
        <pt x="882" y="630" on="1"/>
        <pt x="873" y="655" on="0"/>
        <pt x="859" y="684" on="0"/>
        <pt x="852" y="697" on="1"/>
        <pt x="843" y="715" on="0"/>
        <pt x="826" y="757" on="0"/>
        <pt x="808" y="797" on="0"/>
        <pt x="789" y="834" on="0"/>
        <pt x="778" y="846" on="1"/>
        <pt x="775" y="849" on="0"/>
        <pt x="761" y="857" on="0"/>
        <pt x="744" y="866" on="0"/>
        <pt x="729" y="874" on="0"/>
        <pt x="726" y="876" on="1"/>
        <pt x="698" y="892" on="0"/>
        <pt x="660" y="914" on="0"/>
        <pt x="626" y="931" on="0"/>
        <pt x="592" y="944" on="0"/>
        <pt x="569" y="950" on="1"/>
        <pt x="549" y="960" on="0"/>
        <pt x="517" y="966" on="0"/>
        <pt x="494" y="966" on="1"/>
        <pt x="480" y="966" on="0"/>
        <pt x="481" y="955" on="0"/>
        <pt x="479" y="943" on="1"/>
        <pt x="473" y="908" on="0"/>
        <pt x="460" y="837" on="0"/>
        <pt x="457" y="802" on="1"/>
        <pt x="452" y="740" on="0"/>
        <pt x="447" y="609" on="0"/>
        <pt x="442" y="555" on="1"/>
        <pt x="440" y="545" on="0"/>
        <pt x="438" y="540" on="1"/>
        <pt x="453" y="539" on="0"/>
        <pt x="484" y="539" on="0"/>
        <pt x="500" y="539" on="1"/>
        <pt x="535" y="539" on="0"/>
        <pt x="598" y="545" on="0"/>
        <pt x="612" y="554" on="1"/>
        <pt x="615" y="556" on="0"/>
        <pt x="622" y="564" on="0"/>
        <pt x="624" y="566" on="1"/>
        <pt x="633" y="571" on="0"/>
        <pt x="655" y="574" on="0"/>
        <pt x="660" y="578" on="1"/>
        <pt x="665" y="580" on="0"/>
        <pt x="672" y="596" on="0"/>
        <pt x="679" y="596" on="1"/>
        <pt x="684" y="596" on="0"/>
      </contour>
    </TTGlyph>
    <TTGlyph name="Euro" xMin="103" yMin="-38" xMax="1209" yMax="1144">
      <contour>
        <pt x="1193" y="1024" on="1"/>
        <pt x="1189" y="1020" on="0"/>
        <pt x="1169" y="1008" on="0"/>
        <pt x="1149" y="997" on="0"/>
        <pt x="1133" y="988" on="0"/>
        <pt x="1133" y="987" on="1"/>
        <pt x="1127" y="986" on="0"/>
        <pt x="1119" y="980" on="0"/>
        <pt x="1111" y="973" on="0"/>
        <pt x="1101" y="968" on="0"/>
        <pt x="1094" y="968" on="1"/>
        <pt x="1077" y="968" on="0"/>
        <pt x="1032" y="986" on="0"/>
        <pt x="1006" y="994" on="1"/>
        <pt x="988" y="999" on="0"/>
        <pt x="958" y="1006" on="0"/>
        <pt x="926" y="1011" on="0"/>
        <pt x="889" y="1015" on="0"/>
        <pt x="865" y="1017" on="1"/>
        <pt x="857" y="1018" on="0"/>
        <pt x="830" y="1024" on="0"/>
        <pt x="823" y="1024" on="1"/>
        <pt x="811" y="1024" on="0"/>
        <pt x="784" y="1005" on="0"/>
        <pt x="757" y="979" on="0"/>
        <pt x="733" y="951" on="0"/>
        <pt x="723" y="942" on="1"/>
        <pt x="700" y="919" on="0"/>
        <pt x="665" y="885" on="0"/>
        <pt x="640" y="852" on="0"/>
        <pt x="623" y="817" on="0"/>
        <pt x="618" y="793" on="1"/>
        <pt x="617" y="789" on="0"/>
        <pt x="612" y="773" on="0"/>
        <pt x="607" y="754" on="0"/>
        <pt x="603" y="738" on="0"/>
        <pt x="603" y="734" on="1"/>
        <pt x="603" y="729" on="0"/>
        <pt x="612" y="722" on="0"/>
        <pt x="624" y="719" on="0"/>
        <pt x="638" y="718" on="0"/>
        <pt x="643" y="718" on="1"/>
        <pt x="683" y="718" on="0"/>
        <pt x="757" y="725" on="0"/>
        <pt x="790" y="748" on="1"/>
        <pt x="794" y="751" on="0"/>
        <pt x="802" y="761" on="0"/>
        <pt x="811" y="771" on="0"/>
        <pt x="820" y="779" on="0"/>
        <pt x="826" y="779" on="1"/>
        <pt x="830" y="779" on="0"/>
        <pt x="839" y="777" on="0"/>
        <pt x="843" y="777" on="1"/>
        <pt x="846" y="777" on="0"/>
        <pt x="853" y="784" on="0"/>
        <pt x="862" y="793" on="0"/>
        <pt x="874" y="800" on="0"/>
        <pt x="882" y="800" on="1"/>
        <pt x="888" y="800" on="0"/>
        <pt x="894" y="793" on="1"/>
        <pt x="892" y="777" on="0"/>
        <pt x="878" y="752" on="0"/>
        <pt x="857" y="730" on="0"/>
        <pt x="833" y="709" on="0"/>
        <pt x="820" y="696" on="1"/>
        <pt x="811" y="687" on="0"/>
        <pt x="790" y="662" on="0"/>
        <pt x="764" y="640" on="0"/>
        <pt x="734" y="625" on="0"/>
        <pt x="716" y="625" on="1"/>
        <pt x="709" y="625" on="0"/>
        <pt x="695" y="628" on="0"/>
        <pt x="674" y="632" on="0"/>
        <pt x="643" y="635" on="0"/>
        <pt x="618" y="635" on="1"/>
        <pt x="599" y="635" on="0"/>
        <pt x="582" y="625" on="0"/>
        <pt x="582" y="605" on="1"/>
        <pt x="582" y="586" on="1"/>
        <pt x="582" y="581" on="0"/>
        <pt x="582" y="569" on="0"/>
        <pt x="581" y="562" on="1"/>
        <pt x="581" y="558" on="0"/>
        <pt x="578" y="556" on="0"/>
        <pt x="574" y="550" on="0"/>
        <pt x="571" y="534" on="0"/>
        <pt x="571" y="516" on="1"/>
        <pt x="571" y="501" on="0"/>
        <pt x="584" y="495" on="0"/>
        <pt x="601" y="495" on="1"/>
        <pt x="627" y="495" on="0"/>
        <pt x="674" y="508" on="0"/>
        <pt x="701" y="517" on="1"/>
        <pt x="704" y="518" on="0"/>
        <pt x="716" y="527" on="0"/>
        <pt x="730" y="538" on="0"/>
        <pt x="746" y="547" on="0"/>
        <pt x="755" y="547" on="1"/>
        <pt x="765" y="547" on="0"/>
        <pt x="775" y="539" on="1"/>
        <pt x="773" y="529" on="0"/>
        <pt x="751" y="506" on="0"/>
        <pt x="727" y="485" on="0"/>
        <pt x="707" y="470" on="0"/>
        <pt x="707" y="469" on="1"/>
        <pt x="707" y="467" on="0"/>
        <pt x="708" y="461" on="0"/>
        <pt x="708" y="459" on="1"/>
        <pt x="708" y="452" on="0"/>
        <pt x="690" y="434" on="0"/>
        <pt x="669" y="418" on="0"/>
        <pt x="649" y="406" on="0"/>
        <pt x="648" y="405" on="1"/>
        <pt x="640" y="400" on="0"/>
        <pt x="621" y="390" on="0"/>
        <pt x="607" y="390" on="1"/>
        <pt x="591" y="390" on="0"/>
        <pt x="573" y="397" on="1"/>
        <pt x="571" y="374" on="0"/>
        <pt x="561" y="319" on="0"/>
        <pt x="561" y="293" on="1"/>
        <pt x="561" y="259" on="0"/>
        <pt x="606" y="197" on="0"/>
        <pt x="641" y="173" on="1"/>
        <pt x="651" y="166" on="0"/>
        <pt x="684" y="159" on="0"/>
        <pt x="701" y="150" on="1"/>
        <pt x="707" y="147" on="0"/>
        <pt x="717" y="131" on="0"/>
        <pt x="723" y="128" on="1"/>
        <pt x="736" y="121" on="0"/>
        <pt x="771" y="119" on="0"/>
        <pt x="790" y="114" on="1"/>
        <pt x="798" y="110" on="0"/>
        <pt x="812" y="97" on="0"/>
        <pt x="820" y="97" on="1"/>
        <pt x="826" y="97" on="0"/>
        <pt x="840" y="99" on="0"/>
        <pt x="847" y="99" on="1"/>
        <pt x="853" y="99" on="0"/>
        <pt x="861" y="94" on="0"/>
        <pt x="868" y="88" on="0"/>
        <pt x="875" y="83" on="0"/>
        <pt x="880" y="83" on="1"/>
        <pt x="901" y="84" on="0"/>
        <pt x="935" y="106" on="0"/>
        <pt x="965" y="136" on="0"/>
        <pt x="992" y="168" on="0"/>
        <pt x="1006" y="181" on="1"/>
        <pt x="1037" y="210" on="1"/>
        <pt x="1041" y="214" on="0"/>
        <pt x="1054" y="214" on="0"/>
        <pt x="1059" y="218" on="1"/>
        <pt x="1061" y="220" on="0"/>
        <pt x="1064" y="231" on="0"/>
        <pt x="1066" y="233" on="1"/>
        <pt x="1071" y="237" on="0"/>
        <pt x="1084" y="236" on="0"/>
        <pt x="1089" y="240" on="1"/>
        <pt x="1092" y="243" on="0"/>
        <pt x="1096" y="254" on="0"/>
        <pt x="1103" y="265" on="0"/>
        <pt x="1112" y="273" on="0"/>
        <pt x="1120" y="273" on="1"/>
        <pt x="1124" y="273" on="0"/>
        <pt x="1134" y="270" on="0"/>
        <pt x="1134" y="261" on="1"/>
        <pt x="1134" y="248" on="0"/>
        <pt x="1121" y="228" on="0"/>
        <pt x="1102" y="212" on="0"/>
        <pt x="1081" y="197" on="0"/>
        <pt x="1073" y="188" on="1"/>
        <pt x="1061" y="175" on="0"/>
        <pt x="1032" y="146" on="0"/>
        <pt x="1021" y="128" on="1"/>
        <pt x="1006" y="102" on="0"/>
        <pt x="949" y="48" on="0"/>
        <pt x="917" y="16" on="1"/>
        <pt x="900" y="-1" on="0"/>
        <pt x="881" y="-15" on="0"/>
        <pt x="868" y="-18" on="0"/>
        <pt x="854" y="-18" on="0"/>
        <pt x="842" y="-21" on="1"/>
        <pt x="837" y="-22" on="0"/>
        <pt x="833" y="-28" on="0"/>
        <pt x="828" y="-34" on="0"/>
        <pt x="820" y="-38" on="0"/>
        <pt x="812" y="-38" on="1"/>
        <pt x="795" y="-38" on="0"/>
        <pt x="756" y="-32" on="0"/>
        <pt x="719" y="-22" on="0"/>
        <pt x="687" y="-7" on="0"/>
        <pt x="678" y="2" on="1"/>
        <pt x="674" y="5" on="0"/>
        <pt x="657" y="8" on="0"/>
        <pt x="635" y="9" on="0"/>
        <pt x="612" y="12" on="0"/>
        <pt x="603" y="16" on="1"/>
        <pt x="598" y="18" on="0"/>
        <pt x="584" y="39" on="0"/>
        <pt x="573" y="46" on="1"/>
        <pt x="564" y="52" on="0"/>
        <pt x="542" y="56" on="0"/>
        <pt x="536" y="61" on="1"/>
        <pt x="530" y="66" on="0"/>
        <pt x="510" y="88" on="0"/>
        <pt x="489" y="111" on="0"/>
        <pt x="473" y="129" on="0"/>
        <pt x="470" y="129" on="1"/>
        <pt x="469" y="129" on="0"/>
        <pt x="469" y="128" on="1"/>
        <pt x="468" y="129" on="0"/>
        <pt x="468" y="131" on="1"/>
        <pt x="468" y="133" on="0"/>
        <pt x="469" y="138" on="0"/>
        <pt x="469" y="140" on="1"/>
        <pt x="469" y="147" on="0"/>
        <pt x="449" y="153" on="0"/>
        <pt x="446" y="158" on="1"/>
        <pt x="442" y="165" on="0"/>
        <pt x="444" y="180" on="0"/>
        <pt x="439" y="188" on="1"/>
        <pt x="432" y="199" on="0"/>
        <pt x="421" y="212" on="0"/>
        <pt x="412" y="226" on="0"/>
        <pt x="407" y="242" on="0"/>
        <pt x="407" y="256" on="1"/>
        <pt x="407" y="282" on="0"/>
        <pt x="411" y="344" on="0"/>
        <pt x="411" y="370" on="1"/>
        <pt x="411" y="385" on="0"/>
        <pt x="401" y="412" on="0"/>
        <pt x="384" y="412" on="1"/>
        <pt x="375" y="412" on="1"/>
        <pt x="376" y="412" on="0"/>
        <pt x="346" y="415" on="0"/>
        <pt x="323" y="415" on="1"/>
        <pt x="305" y="415" on="0"/>
        <pt x="281" y="408" on="0"/>
        <pt x="260" y="405" on="1"/>
        <pt x="242" y="402" on="0"/>
        <pt x="194" y="397" on="0"/>
        <pt x="177" y="390" on="1"/>
        <pt x="168" y="386" on="0"/>
        <pt x="151" y="371" on="0"/>
        <pt x="135" y="355" on="0"/>
        <pt x="119" y="343" on="0"/>
        <pt x="111" y="343" on="1"/>
        <pt x="109" y="343" on="0"/>
        <pt x="103" y="345" on="1"/>
        <pt x="106" y="360" on="0"/>
        <pt x="133" y="406" on="0"/>
        <pt x="165" y="448" on="0"/>
        <pt x="193" y="479" on="0"/>
        <pt x="195" y="479" on="1"/>
        <pt x="197" y="479" on="0"/>
        <pt x="203" y="478" on="0"/>
        <pt x="205" y="478" on="1"/>
        <pt x="207" y="478" on="0"/>
        <pt x="208" y="479" on="1"/>
        <pt x="211" y="483" on="0"/>
        <pt x="229" y="491" on="0"/>
        <pt x="252" y="498" on="0"/>
        <pt x="279" y="502" on="0"/>
        <pt x="291" y="502" on="1"/>
        <pt x="309" y="502" on="0"/>
        <pt x="363" y="489" on="0"/>
        <pt x="385" y="489" on="1"/>
        <pt x="403" y="489" on="0"/>
        <pt x="420" y="506" on="0"/>
        <pt x="426" y="537" on="0"/>
        <pt x="428" y="580" on="0"/>
        <pt x="432" y="606" on="1"/>
        <pt x="432" y="608" on="0"/>
        <pt x="441" y="623" on="0"/>
        <pt x="441" y="630" on="1"/>
        <pt x="441" y="638" on="0"/>
        <pt x="422" y="646" on="0"/>
        <pt x="412" y="646" on="1"/>
        <pt x="401" y="646" on="0"/>
        <pt x="375" y="640" on="0"/>
        <pt x="349" y="632" on="0"/>
        <pt x="327" y="623" on="0"/>
        <pt x="320" y="621" on="1"/>
        <pt x="315" y="619" on="0"/>
        <pt x="297" y="617" on="0"/>
        <pt x="289" y="614" on="1"/>
        <pt x="275" y="608" on="0"/>
        <pt x="240" y="580" on="0"/>
        <pt x="215" y="576" on="1"/>
        <pt x="213" y="582" on="0"/>
        <pt x="213" y="585" on="1"/>
        <pt x="213" y="595" on="0"/>
        <pt x="226" y="616" on="0"/>
        <pt x="245" y="637" on="0"/>
        <pt x="266" y="657" on="0"/>
        <pt x="275" y="666" on="1"/>
        <pt x="282" y="674" on="0"/>
        <pt x="302" y="698" on="0"/>
        <pt x="325" y="720" on="0"/>
        <pt x="351" y="736" on="0"/>
        <pt x="365" y="736" on="1"/>
        <pt x="375" y="736" on="0"/>
        <pt x="415" y="730" on="0"/>
        <pt x="444" y="730" on="1"/>
        <pt x="459" y="730" on="0"/>
        <pt x="476" y="746" on="0"/>
        <pt x="486" y="768" on="0"/>
        <pt x="494" y="792" on="0"/>
        <pt x="499" y="800" on="1"/>
        <pt x="510" y="816" on="0"/>
        <pt x="557" y="847" on="0"/>
        <pt x="573" y="867" on="1"/>
        <pt x="585" y="882" on="0"/>
        <pt x="605" y="920" on="0"/>
        <pt x="625" y="934" on="1"/>
        <pt x="647" y="951" on="0"/>
        <pt x="702" y="1007" on="0"/>
        <pt x="730" y="1024" on="1"/>
        <pt x="735" y="1027" on="0"/>
        <pt x="748" y="1028" on="0"/>
        <pt x="753" y="1032" on="1"/>
        <pt x="755" y="1034" on="0"/>
        <pt x="758" y="1046" on="0"/>
        <pt x="760" y="1046" on="1"/>
        <pt x="765" y="1049" on="0"/>
        <pt x="774" y="1053" on="0"/>
        <pt x="784" y="1059" on="0"/>
        <pt x="797" y="1069" on="0"/>
        <pt x="805" y="1077" on="1"/>
        <pt x="813" y="1083" on="0"/>
        <pt x="838" y="1091" on="0"/>
        <pt x="849" y="1099" on="1"/>
        <pt x="852" y="1101" on="0"/>
        <pt x="862" y="1113" on="0"/>
        <pt x="865" y="1114" on="1"/>
        <pt x="875" y="1118" on="0"/>
        <pt x="903" y="1115" on="0"/>
        <pt x="917" y="1122" on="1"/>
        <pt x="923" y="1125" on="0"/>
        <pt x="929" y="1144" on="0"/>
        <pt x="944" y="1144" on="1"/>
        <pt x="963" y="1144" on="0"/>
        <pt x="1017" y="1137" on="0"/>
        <pt x="1076" y="1126" on="0"/>
        <pt x="1134" y="1109" on="0"/>
        <pt x="1180" y="1089" on="0"/>
        <pt x="1209" y="1065" on="0"/>
        <pt x="1209" y="1053" on="1"/>
        <pt x="1209" y="1040" on="0"/>
      </contour>
    </TTGlyph>
    <TTGlyph name="F" xMin="64" yMin="-42" xMax="897" yMax="1120">
      <contour>
        <pt x="893" y="1113" on="1"/>
        <pt x="897" y="1108" on="0"/>
        <pt x="897" y="1099" on="1"/>
        <pt x="897" y="1082" on="0"/>
        <pt x="884" y="1049" on="0"/>
        <pt x="868" y="1023" on="0"/>
        <pt x="855" y="1007" on="0"/>
        <pt x="855" y="1006" on="1"/>
        <pt x="855" y="1003" on="0"/>
        <pt x="856" y="995" on="0"/>
        <pt x="856" y="992" on="1"/>
        <pt x="856" y="987" on="0"/>
        <pt x="849" y="975" on="0"/>
        <pt x="841" y="965" on="0"/>
        <pt x="833" y="957" on="0"/>
        <pt x="833" y="956" on="1"/>
        <pt x="829" y="946" on="0"/>
        <pt x="829" y="923" on="0"/>
        <pt x="827" y="902" on="0"/>
        <pt x="817" y="885" on="0"/>
        <pt x="803" y="881" on="1"/>
        <pt x="799" y="888" on="0"/>
        <pt x="799" y="897" on="1"/>
        <pt x="799" y="905" on="0"/>
        <pt x="803" y="924" on="0"/>
        <pt x="803" y="934" on="1"/>
        <pt x="803" y="941" on="1"/>
        <pt x="796" y="954" on="0"/>
        <pt x="789" y="984" on="0"/>
        <pt x="777" y="1008" on="0"/>
        <pt x="755" y="1024" on="0"/>
        <pt x="734" y="1024" on="1"/>
        <pt x="710" y="1024" on="0"/>
        <pt x="658" y="1015" on="0"/>
        <pt x="639" y="1015" on="1"/>
        <pt x="613" y="1015" on="0"/>
        <pt x="559" y="1029" on="0"/>
        <pt x="537" y="1029" on="1"/>
        <pt x="511" y="1029" on="0"/>
        <pt x="487" y="983" on="0"/>
        <pt x="482" y="941" on="1"/>
        <pt x="480" y="930" on="0"/>
        <pt x="469" y="905" on="0"/>
        <pt x="467" y="889" on="1"/>
        <pt x="462" y="859" on="0"/>
        <pt x="466" y="795" on="0"/>
        <pt x="460" y="769" on="1"/>
        <pt x="456" y="751" on="0"/>
        <pt x="447" y="729" on="0"/>
        <pt x="439" y="709" on="0"/>
        <pt x="434" y="681" on="0"/>
        <pt x="434" y="657" on="1"/>
        <pt x="434" y="646" on="0"/>
        <pt x="436" y="630" on="0"/>
        <pt x="438" y="627" on="1"/>
        <pt x="442" y="622" on="0"/>
        <pt x="468" y="614" on="0"/>
        <pt x="506" y="609" on="0"/>
        <pt x="551" y="606" on="0"/>
        <pt x="573" y="606" on="1"/>
        <pt x="597" y="606" on="0"/>
        <pt x="640" y="609" on="0"/>
        <pt x="654" y="612" on="1"/>
        <pt x="666" y="615" on="0"/>
        <pt x="684" y="630" on="0"/>
        <pt x="691" y="634" on="1"/>
        <pt x="697" y="638" on="0"/>
        <pt x="709" y="638" on="0"/>
        <pt x="714" y="642" on="1"/>
        <pt x="719" y="647" on="0"/>
        <pt x="731" y="664" on="0"/>
        <pt x="747" y="681" on="0"/>
        <pt x="768" y="694" on="0"/>
        <pt x="782" y="694" on="1"/>
        <pt x="788" y="694" on="1"/>
        <pt x="785" y="665" on="0"/>
        <pt x="763" y="622" on="0"/>
        <pt x="730" y="587" on="0"/>
        <pt x="690" y="558" on="0"/>
        <pt x="669" y="545" on="1"/>
        <pt x="658" y="538" on="0"/>
        <pt x="631" y="516" on="0"/>
        <pt x="617" y="508" on="1"/>
        <pt x="613" y="508" on="1"/>
        <pt x="603" y="508" on="0"/>
        <pt x="579" y="515" on="0"/>
        <pt x="565" y="515" on="1"/>
        <pt x="548" y="515" on="1"/>
        <pt x="537" y="515" on="0"/>
        <pt x="526" y="517" on="0"/>
        <pt x="520" y="517" on="1"/>
        <pt x="513" y="517" on="0"/>
        <pt x="494" y="515" on="0"/>
        <pt x="475" y="515" on="1"/>
        <pt x="465" y="515" on="0"/>
        <pt x="449" y="516" on="0"/>
        <pt x="444" y="516" on="1"/>
        <pt x="432" y="516" on="0"/>
        <pt x="416" y="474" on="0"/>
        <pt x="404" y="409" on="0"/>
        <pt x="395" y="330" on="0"/>
        <pt x="390" y="257" on="0"/>
        <pt x="386" y="198" on="0"/>
        <pt x="385" y="186" on="1"/>
        <pt x="385" y="184" on="0"/>
        <pt x="377" y="148" on="0"/>
        <pt x="368" y="101" on="0"/>
        <pt x="361" y="56" on="0"/>
        <pt x="361" y="44" on="1"/>
        <pt x="361" y="37" on="0"/>
        <pt x="366" y="36" on="0"/>
        <pt x="375" y="36" on="1"/>
        <pt x="383" y="36" on="0"/>
        <pt x="404" y="37" on="0"/>
        <pt x="415" y="37" on="1"/>
        <pt x="437" y="37" on="0"/>
        <pt x="474" y="29" on="0"/>
        <pt x="474" y="13" on="1"/>
        <pt x="474" y="4" on="0"/>
        <pt x="458" y="-7" on="0"/>
        <pt x="432" y="-13" on="0"/>
        <pt x="399" y="-15" on="0"/>
        <pt x="382" y="-15" on="1"/>
        <pt x="331" y="-15" on="1"/>
        <pt x="302" y="-15" on="0"/>
        <pt x="237" y="-30" on="0"/>
        <pt x="204" y="-30" on="1"/>
        <pt x="194" y="-30" on="0"/>
        <pt x="177" y="-29" on="0"/>
        <pt x="169" y="-29" on="1"/>
        <pt x="148" y="-29" on="0"/>
        <pt x="104" y="-42" on="0"/>
        <pt x="84" y="-42" on="1"/>
        <pt x="72" y="-42" on="0"/>
        <pt x="64" y="-38" on="1"/>
        <pt x="64" y="-21" on="0"/>
        <pt x="99" y="2" on="0"/>
        <pt x="130" y="2" on="1"/>
        <pt x="147" y="2" on="1"/>
        <pt x="180" y="2" on="0"/>
        <pt x="210" y="47" on="0"/>
        <pt x="222" y="112" on="0"/>
        <pt x="223" y="187" on="0"/>
        <pt x="228" y="217" on="1"/>
        <pt x="230" y="228" on="0"/>
        <pt x="244" y="250" on="0"/>
        <pt x="244" y="264" on="1"/>
        <pt x="244" y="271" on="0"/>
        <pt x="242" y="284" on="0"/>
        <pt x="242" y="290" on="1"/>
        <pt x="242" y="298" on="0"/>
        <pt x="258" y="309" on="0"/>
        <pt x="258" y="314" on="1"/>
        <pt x="263" y="328" on="0"/>
        <pt x="261" y="349" on="0"/>
        <pt x="266" y="366" on="1"/>
        <pt x="269" y="375" on="0"/>
        <pt x="274" y="405" on="0"/>
        <pt x="279" y="439" on="0"/>
        <pt x="282" y="475" on="0"/>
        <pt x="282" y="490" on="1"/>
        <pt x="282" y="495" on="0"/>
        <pt x="279" y="501" on="0"/>
        <pt x="271" y="501" on="1"/>
        <pt x="253" y="501" on="0"/>
        <pt x="231" y="489" on="0"/>
        <pt x="212" y="474" on="0"/>
        <pt x="188" y="462" on="0"/>
        <pt x="169" y="462" on="1"/>
        <pt x="165" y="462" on="0"/>
        <pt x="160" y="465" on="0"/>
        <pt x="160" y="471" on="1"/>
        <pt x="160" y="486" on="0"/>
        <pt x="181" y="513" on="0"/>
        <pt x="209" y="534" on="0"/>
        <pt x="236" y="549" on="0"/>
        <pt x="243" y="553" on="1"/>
        <pt x="246" y="554" on="0"/>
        <pt x="261" y="563" on="0"/>
        <pt x="278" y="573" on="0"/>
        <pt x="292" y="585" on="0"/>
        <pt x="295" y="590" on="1"/>
        <pt x="297" y="595" on="0"/>
        <pt x="299" y="616" on="0"/>
        <pt x="300" y="641" on="0"/>
        <pt x="301" y="668" on="0"/>
        <pt x="303" y="679" on="1"/>
        <pt x="308" y="711" on="0"/>
        <pt x="318" y="762" on="0"/>
        <pt x="318" y="779" on="1"/>
        <pt x="318" y="791" on="0"/>
        <pt x="317" y="817" on="0"/>
        <pt x="317" y="831" on="1"/>
        <pt x="317" y="869" on="0"/>
        <pt x="329" y="946" on="0"/>
        <pt x="329" y="975" on="1"/>
        <pt x="329" y="992" on="0"/>
        <pt x="321" y="1009" on="0"/>
        <pt x="310" y="1017" on="0"/>
        <pt x="302" y="1020" on="0"/>
        <pt x="302" y="1023" on="1"/>
        <pt x="301" y="1023" on="1"/>
        <pt x="292" y="1023" on="0"/>
        <pt x="271" y="1008" on="0"/>
        <pt x="260" y="1008" on="1"/>
        <pt x="245" y="1008" on="0"/>
        <pt x="213" y="1015" on="0"/>
        <pt x="213" y="1029" on="1"/>
        <pt x="213" y="1054" on="0"/>
        <pt x="250" y="1060" on="0"/>
        <pt x="279" y="1060" on="1"/>
        <pt x="289" y="1060" on="0"/>
        <pt x="311" y="1059" on="0"/>
        <pt x="323" y="1059" on="1"/>
        <pt x="351" y="1059" on="0"/>
        <pt x="432" y="1071" on="0"/>
        <pt x="519" y="1086" on="0"/>
        <pt x="604" y="1098" on="0"/>
        <pt x="637" y="1098" on="1"/>
        <pt x="651" y="1098" on="0"/>
        <pt x="674" y="1097" on="0"/>
        <pt x="684" y="1097" on="1"/>
        <pt x="697" y="1097" on="0"/>
        <pt x="741" y="1104" on="0"/>
        <pt x="792" y="1113" on="0"/>
        <pt x="848" y="1120" on="0"/>
        <pt x="874" y="1120" on="1"/>
        <pt x="887" y="1120" on="0"/>
      </contour>
    </TTGlyph>
    <TTGlyph name="G" xMin="153" yMin="-35" xMax="1104" yMax="1134">
      <contour>
        <pt x="1104" y="652" on="1"/>
        <pt x="1101" y="634" on="0"/>
        <pt x="1085" y="612" on="0"/>
        <pt x="1067" y="595" on="0"/>
        <pt x="1049" y="577" on="0"/>
        <pt x="1044" y="562" on="1"/>
        <pt x="1042" y="557" on="0"/>
        <pt x="1041" y="535" on="0"/>
        <pt x="1041" y="508" on="0"/>
        <pt x="1040" y="482" on="0"/>
        <pt x="1037" y="473" on="1"/>
        <pt x="1037" y="472" on="0"/>
        <pt x="1031" y="469" on="0"/>
        <pt x="1030" y="466" on="1"/>
        <pt x="1028" y="456" on="0"/>
        <pt x="1026" y="414" on="0"/>
        <pt x="1022" y="398" on="1"/>
        <pt x="1018" y="382" on="0"/>
        <pt x="1007" y="358" on="0"/>
        <pt x="1007" y="343" on="1"/>
        <pt x="1007" y="338" on="0"/>
        <pt x="1008" y="326" on="0"/>
        <pt x="1008" y="320" on="1"/>
        <pt x="1008" y="307" on="0"/>
        <pt x="1000" y="298" on="0"/>
        <pt x="1000" y="287" on="1"/>
        <pt x="1000" y="276" on="0"/>
        <pt x="1003" y="249" on="0"/>
        <pt x="1003" y="235" on="1"/>
        <pt x="1003" y="212" on="0"/>
        <pt x="985" y="181" on="0"/>
        <pt x="947" y="152" on="0"/>
        <pt x="890" y="117" on="0"/>
        <pt x="851" y="92" on="1"/>
        <pt x="843" y="87" on="0"/>
        <pt x="828" y="89" on="0"/>
        <pt x="820" y="85" on="1"/>
        <pt x="817" y="83" on="0"/>
        <pt x="811" y="73" on="0"/>
        <pt x="806" y="70" on="1"/>
        <pt x="794" y="62" on="0"/>
        <pt x="766" y="44" on="0"/>
        <pt x="753" y="32" on="1"/>
        <pt x="751" y="30" on="0"/>
        <pt x="728" y="19" on="0"/>
        <pt x="702" y="6" on="0"/>
        <pt x="681" y="-5" on="0"/>
        <pt x="681" y="-6" on="1"/>
        <pt x="678" y="-6" on="0"/>
        <pt x="672" y="-5" on="0"/>
        <pt x="669" y="-5" on="1"/>
        <pt x="658" y="-5" on="0"/>
        <pt x="599" y="-27" on="0"/>
        <pt x="567" y="-35" on="1"/>
        <pt x="560" y="-35" on="1"/>
        <pt x="546" y="-35" on="0"/>
        <pt x="510" y="-27" on="0"/>
        <pt x="492" y="-27" on="1"/>
        <pt x="480" y="-27" on="0"/>
        <pt x="456" y="-29" on="0"/>
        <pt x="445" y="-29" on="1"/>
        <pt x="429" y="-29" on="0"/>
        <pt x="411" y="-13" on="0"/>
        <pt x="403" y="-13" on="1"/>
        <pt x="392" y="-10" on="0"/>
        <pt x="377" y="-7" on="0"/>
        <pt x="365" y="-3" on="0"/>
        <pt x="353" y="4" on="0"/>
        <pt x="343" y="10" on="1"/>
        <pt x="338" y="13" on="0"/>
        <pt x="326" y="25" on="0"/>
        <pt x="320" y="25" on="1"/>
        <pt x="316" y="25" on="0"/>
        <pt x="296" y="37" on="0"/>
        <pt x="276" y="51" on="0"/>
        <pt x="260" y="62" on="0"/>
        <pt x="260" y="62" on="1"/>
        <pt x="256" y="67" on="0"/>
        <pt x="258" y="80" on="0"/>
        <pt x="253" y="85" on="1"/>
        <pt x="251" y="88" on="0"/>
        <pt x="237" y="89" on="0"/>
        <pt x="237" y="94" on="1"/>
        <pt x="237" y="96" on="0"/>
        <pt x="238" y="103" on="0"/>
        <pt x="238" y="105" on="1"/>
        <pt x="238" y="104" on="0"/>
        <pt x="227" y="122" on="0"/>
        <pt x="212" y="149" on="0"/>
        <pt x="197" y="178" on="0"/>
        <pt x="193" y="189" on="1"/>
        <pt x="174" y="239" on="0"/>
        <pt x="153" y="349" on="0"/>
        <pt x="154" y="416" on="1"/>
        <pt x="154" y="431" on="0"/>
        <pt x="155" y="463" on="0"/>
        <pt x="156" y="480" on="1"/>
        <pt x="156" y="488" on="0"/>
        <pt x="164" y="510" on="0"/>
        <pt x="164" y="518" on="1"/>
        <pt x="164" y="531" on="0"/>
        <pt x="156" y="558" on="0"/>
        <pt x="156" y="572" on="1"/>
        <pt x="156" y="575" on="0"/>
        <pt x="162" y="593" on="0"/>
        <pt x="170" y="616" on="0"/>
        <pt x="178" y="641" on="0"/>
        <pt x="179" y="652" on="1"/>
        <pt x="179" y="656" on="0"/>
        <pt x="181" y="687" on="0"/>
        <pt x="186" y="697" on="1"/>
        <pt x="189" y="702" on="0"/>
        <pt x="207" y="718" on="0"/>
        <pt x="228" y="736" on="0"/>
        <pt x="245" y="755" on="0"/>
        <pt x="246" y="764" on="1"/>
        <pt x="246" y="772" on="0"/>
        <pt x="261" y="778" on="0"/>
        <pt x="268" y="786" on="1"/>
        <pt x="272" y="791" on="0"/>
        <pt x="279" y="816" on="0"/>
        <pt x="285" y="816" on="1"/>
        <pt x="287" y="816" on="0"/>
        <pt x="294" y="815" on="0"/>
        <pt x="296" y="815" on="1"/>
        <pt x="297" y="815" on="0"/>
        <pt x="298" y="816" on="1"/>
        <pt x="321" y="844" on="0"/>
        <pt x="383" y="918" on="0"/>
        <pt x="417" y="943" on="1"/>
        <pt x="420" y="945" on="0"/>
        <pt x="432" y="953" on="0"/>
        <pt x="445" y="963" on="0"/>
        <pt x="455" y="975" on="0"/>
        <pt x="455" y="981" on="1"/>
        <pt x="455" y="986" on="0"/>
        <pt x="469" y="1002" on="0"/>
        <pt x="477" y="1003" on="1"/>
        <pt x="482" y="1003" on="0"/>
        <pt x="495" y="1015" on="0"/>
        <pt x="507" y="1030" on="0"/>
        <pt x="518" y="1045" on="0"/>
        <pt x="522" y="1048" on="1"/>
        <pt x="529" y="1053" on="0"/>
        <pt x="551" y="1056" on="0"/>
        <pt x="560" y="1062" on="1"/>
        <pt x="568" y="1067" on="0"/>
        <pt x="574" y="1082" on="0"/>
        <pt x="582" y="1085" on="1"/>
        <pt x="600" y="1096" on="0"/>
        <pt x="635" y="1107" on="0"/>
        <pt x="649" y="1115" on="1"/>
        <pt x="671" y="1127" on="0"/>
        <pt x="696" y="1134" on="0"/>
        <pt x="716" y="1134" on="1"/>
        <pt x="746" y="1134" on="0"/>
        <pt x="807" y="1124" on="0"/>
        <pt x="868" y="1110" on="0"/>
        <pt x="930" y="1097" on="0"/>
        <pt x="963" y="1093" on="1"/>
        <pt x="980" y="1091" on="0"/>
        <pt x="1007" y="1091" on="0"/>
        <pt x="1025" y="1089" on="0"/>
        <pt x="1035" y="1080" on="0"/>
        <pt x="1035" y="1068" on="1"/>
        <pt x="1035" y="1054" on="0"/>
        <pt x="1013" y="1031" on="0"/>
        <pt x="1008" y="1026" on="1"/>
        <pt x="999" y="1015" on="0"/>
        <pt x="987" y="991" on="0"/>
        <pt x="974" y="971" on="0"/>
        <pt x="956" y="958" on="0"/>
        <pt x="942" y="958" on="1"/>
        <pt x="932" y="958" on="0"/>
        <pt x="905" y="963" on="0"/>
        <pt x="877" y="971" on="0"/>
        <pt x="848" y="979" on="0"/>
        <pt x="836" y="981" on="1"/>
        <pt x="817" y="984" on="0"/>
        <pt x="779" y="984" on="0"/>
        <pt x="761" y="988" on="1"/>
        <pt x="740" y="992" on="0"/>
        <pt x="669" y="1006" on="0"/>
        <pt x="634" y="1006" on="1"/>
        <pt x="597" y="1006" on="0"/>
        <pt x="574" y="995" on="1"/>
        <pt x="552" y="984" on="0"/>
        <pt x="517" y="965" on="0"/>
        <pt x="483" y="943" on="0"/>
        <pt x="447" y="913" on="0"/>
        <pt x="425" y="891" on="1"/>
        <pt x="413" y="880" on="0"/>
        <pt x="393" y="862" on="0"/>
        <pt x="375" y="844" on="0"/>
        <pt x="359" y="823" on="0"/>
        <pt x="350" y="809" on="1"/>
        <pt x="346" y="803" on="0"/>
        <pt x="347" y="792" on="0"/>
        <pt x="343" y="786" on="1"/>
        <pt x="340" y="782" on="0"/>
        <pt x="330" y="765" on="0"/>
        <pt x="320" y="744" on="0"/>
        <pt x="313" y="721" on="0"/>
        <pt x="313" y="709" on="1"/>
        <pt x="313" y="705" on="0"/>
        <pt x="314" y="698" on="0"/>
        <pt x="314" y="695" on="1"/>
        <pt x="314" y="696" on="0"/>
        <pt x="309" y="682" on="0"/>
        <pt x="302" y="662" on="0"/>
        <pt x="297" y="640" on="0"/>
        <pt x="297" y="633" on="1"/>
        <pt x="297" y="621" on="0"/>
        <pt x="298" y="593" on="0"/>
        <pt x="298" y="579" on="1"/>
        <pt x="298" y="576" on="0"/>
        <pt x="297" y="564" on="0"/>
        <pt x="296" y="550" on="0"/>
        <pt x="293" y="540" on="0"/>
        <pt x="291" y="540" on="1"/>
        <pt x="292" y="526" on="0"/>
        <pt x="305" y="507" on="0"/>
        <pt x="305" y="495" on="1"/>
        <pt x="305" y="478" on="0"/>
        <pt x="291" y="439" on="0"/>
        <pt x="291" y="428" on="1"/>
        <pt x="291" y="417" on="0"/>
        <pt x="306" y="391" on="0"/>
        <pt x="306" y="372" on="1"/>
        <pt x="306" y="364" on="0"/>
        <pt x="304" y="349" on="0"/>
        <pt x="304" y="341" on="1"/>
        <pt x="304" y="323" on="0"/>
        <pt x="328" y="271" on="0"/>
        <pt x="336" y="249" on="1"/>
        <pt x="344" y="227" on="0"/>
        <pt x="354" y="198" on="0"/>
        <pt x="366" y="175" on="0"/>
        <pt x="385" y="156" on="0"/>
        <pt x="403" y="144" on="1"/>
        <pt x="410" y="139" on="0"/>
        <pt x="434" y="121" on="0"/>
        <pt x="462" y="104" on="0"/>
        <pt x="490" y="92" on="0"/>
        <pt x="502" y="92" on="1"/>
        <pt x="504" y="92" on="0"/>
        <pt x="509" y="93" on="0"/>
        <pt x="511" y="93" on="1"/>
        <pt x="516" y="93" on="0"/>
        <pt x="525" y="79" on="0"/>
        <pt x="529" y="77" on="1"/>
        <pt x="539" y="74" on="0"/>
        <pt x="564" y="70" on="0"/>
        <pt x="589" y="67" on="0"/>
        <pt x="613" y="66" on="0"/>
        <pt x="622" y="66" on="1"/>
        <pt x="636" y="66" on="0"/>
        <pt x="666" y="70" on="0"/>
        <pt x="688" y="70" on="1"/>
        <pt x="697" y="70" on="0"/>
        <pt x="712" y="68" on="0"/>
        <pt x="719" y="68" on="1"/>
        <pt x="727" y="68" on="0"/>
        <pt x="752" y="79" on="0"/>
        <pt x="779" y="94" on="0"/>
        <pt x="801" y="109" on="0"/>
        <pt x="806" y="114" on="1"/>
        <pt x="810" y="118" on="0"/>
        <pt x="825" y="141" on="0"/>
        <pt x="840" y="165" on="0"/>
        <pt x="851" y="184" on="0"/>
        <pt x="851" y="184" on="1"/>
        <pt x="851" y="188" on="0"/>
        <pt x="849" y="199" on="0"/>
        <pt x="849" y="204" on="1"/>
        <pt x="849" y="210" on="0"/>
        <pt x="851" y="211" on="1"/>
        <pt x="858" y="219" on="0"/>
        <pt x="856" y="260" on="0"/>
        <pt x="858" y="286" on="1"/>
        <pt x="860" y="328" on="0"/>
        <pt x="876" y="411" on="0"/>
        <pt x="876" y="453" on="1"/>
        <pt x="876" y="470" on="0"/>
        <pt x="871" y="475" on="0"/>
        <pt x="858" y="475" on="1"/>
        <pt x="841" y="475" on="0"/>
        <pt x="778" y="468" on="0"/>
        <pt x="714" y="460" on="0"/>
        <pt x="662" y="451" on="0"/>
        <pt x="656" y="450" on="1"/>
        <pt x="642" y="446" on="0"/>
        <pt x="592" y="424" on="0"/>
        <pt x="574" y="413" on="1"/>
        <pt x="568" y="410" on="0"/>
        <pt x="559" y="398" on="0"/>
        <pt x="550" y="387" on="0"/>
        <pt x="538" y="379" on="0"/>
        <pt x="531" y="379" on="1"/>
        <pt x="524" y="379" on="0"/>
        <pt x="511" y="385" on="0"/>
        <pt x="511" y="396" on="1"/>
        <pt x="511" y="408" on="0"/>
        <pt x="531" y="427" on="0"/>
        <pt x="554" y="445" on="0"/>
        <pt x="574" y="463" on="0"/>
        <pt x="574" y="473" on="1"/>
        <pt x="574" y="478" on="0"/>
        <pt x="583" y="489" on="0"/>
        <pt x="594" y="498" on="0"/>
        <pt x="603" y="504" on="0"/>
        <pt x="604" y="504" on="1"/>
        <pt x="610" y="504" on="0"/>
        <pt x="623" y="502" on="0"/>
        <pt x="627" y="502" on="1"/>
        <pt x="630" y="503" on="0"/>
        <pt x="637" y="513" on="0"/>
        <pt x="646" y="524" on="0"/>
        <pt x="654" y="533" on="0"/>
        <pt x="657" y="533" on="1"/>
        <pt x="659" y="533" on="0"/>
        <pt x="665" y="532" on="0"/>
        <pt x="668" y="532" on="1"/>
        <pt x="672" y="532" on="0"/>
        <pt x="689" y="539" on="0"/>
        <pt x="722" y="548" on="0"/>
        <pt x="772" y="555" on="0"/>
        <pt x="808" y="555" on="1"/>
        <pt x="819" y="555" on="0"/>
        <pt x="830" y="547" on="0"/>
        <pt x="845" y="547" on="1"/>
        <pt x="884" y="547" on="0"/>
        <pt x="949" y="580" on="0"/>
        <pt x="1007" y="621" on="0"/>
        <pt x="1061" y="654" on="0"/>
        <pt x="1089" y="654" on="1"/>
        <pt x="1094" y="654" on="0"/>
      </contour>
    </TTGlyph>
    <TTGlyph name="Gbreve" xMin="153" yMin="-35" xMax="1104" yMax="1399">
      <component glyphName="G" x="0" y="0" flags="0x204"/>
      <component glyphName="breve" x="519" y="284" flags="0x4"/>
    </TTGlyph>
    <TTGlyph name="Gcircumflex" xMin="153" yMin="-35" xMax="1104" yMax="1420">
      <component glyphName="G" x="0" y="0" flags="0x204"/>
      <component glyphName="circumflex" x="492" y="275" flags="0x4"/>
    </TTGlyph>
    <TTGlyph name="Gcommaaccent" xMin="153" yMin="-468" xMax="1104" yMax="1134">
      <component glyphName="G" x="0" y="0" flags="0x204"/>
      <component glyphName="uni0326" x="378" y="0" flags="0x4"/>
    </TTGlyph>
    <TTGlyph name="Gdotaccent" xMin="153" yMin="-35" xMax="1104" yMax="1399">
      <component glyphName="G" x="0" y="0" flags="0x204"/>
      <component glyphName="dotaccent" x="613" y="338" flags="0x4"/>
    </TTGlyph>
    <TTGlyph name="H" xMin="87" yMin="-38" xMax="1231" yMax="1133">
      <contour>
        <pt x="1231" y="1118" on="1"/>
        <pt x="1231" y="1113" on="1"/>
        <pt x="1231" y="1103" on="0"/>
        <pt x="1215" y="1090" on="0"/>
        <pt x="1191" y="1083" on="0"/>
        <pt x="1164" y="1081" on="0"/>
        <pt x="1154" y="1081" on="1"/>
        <pt x="1150" y="1081" on="0"/>
        <pt x="1139" y="1082" on="0"/>
        <pt x="1134" y="1082" on="1"/>
        <pt x="1122" y="1082" on="0"/>
        <pt x="1105" y="1044" on="0"/>
        <pt x="1094" y="982" on="0"/>
        <pt x="1085" y="903" on="0"/>
        <pt x="1077" y="819" on="0"/>
        <pt x="1067" y="739" on="0"/>
        <pt x="1060" y="707" on="1"/>
        <pt x="1056" y="700" on="0"/>
        <pt x="1052" y="700" on="1"/>
        <pt x="1052" y="696" on="1"/>
        <pt x="1052" y="687" on="0"/>
        <pt x="1060" y="670" on="0"/>
        <pt x="1060" y="662" on="1"/>
        <pt x="1056" y="654" on="1"/>
        <pt x="1052" y="646" on="0"/>
        <pt x="1052" y="642" on="1"/>
        <pt x="1052" y="629" on="1"/>
        <pt x="1052" y="615" on="0"/>
        <pt x="1039" y="591" on="0"/>
        <pt x="1037" y="580" on="1"/>
        <pt x="1034" y="554" on="0"/>
        <pt x="1028" y="522" on="0"/>
        <pt x="1028" y="507" on="1"/>
        <pt x="1028" y="499" on="0"/>
        <pt x="1037" y="491" on="0"/>
        <pt x="1037" y="483" on="1"/>
        <pt x="1036" y="473" on="0"/>
        <pt x="1024" y="457" on="0"/>
        <pt x="1022" y="446" on="1"/>
        <pt x="1020" y="435" on="0"/>
        <pt x="1018" y="410" on="0"/>
        <pt x="1018" y="397" on="1"/>
        <pt x="1018" y="389" on="0"/>
        <pt x="1019" y="372" on="0"/>
        <pt x="1019" y="364" on="1"/>
        <pt x="1019" y="350" on="0"/>
        <pt x="1017" y="324" on="0"/>
        <pt x="1015" y="311" on="1"/>
        <pt x="1013" y="300" on="0"/>
        <pt x="999" y="274" on="0"/>
        <pt x="999" y="260" on="1"/>
        <pt x="999" y="254" on="0"/>
        <pt x="1001" y="240" on="0"/>
        <pt x="1001" y="230" on="1"/>
        <pt x="1001" y="213" on="0"/>
        <pt x="987" y="187" on="0"/>
        <pt x="985" y="170" on="1"/>
        <pt x="983" y="159" on="0"/>
        <pt x="980" y="127" on="0"/>
        <pt x="979" y="111" on="1"/>
        <pt x="977" y="93" on="0"/>
        <pt x="977" y="73" on="1"/>
        <pt x="983" y="64" on="0"/>
        <pt x="1002" y="64" on="1"/>
        <pt x="1019" y="64" on="0"/>
        <pt x="1059" y="73" on="0"/>
        <pt x="1074" y="73" on="1"/>
        <pt x="1088" y="73" on="0"/>
        <pt x="1113" y="51" on="0"/>
        <pt x="1113" y="40" on="1"/>
        <pt x="1113" y="30" on="0"/>
        <pt x="1088" y="24" on="0"/>
        <pt x="1049" y="22" on="0"/>
        <pt x="1004" y="19" on="0"/>
        <pt x="985" y="13" on="1"/>
        <pt x="971" y="9" on="0"/>
        <pt x="954" y="-5" on="0"/>
        <pt x="939" y="-19" on="0"/>
        <pt x="924" y="-28" on="0"/>
        <pt x="913" y="-28" on="1"/>
        <pt x="901" y="-28" on="1"/>
        <pt x="892" y="-28" on="0"/>
        <pt x="882" y="-38" on="0"/>
        <pt x="878" y="-38" on="1"/>
        <pt x="873" y="-38" on="0"/>
        <pt x="864" y="-29" on="0"/>
        <pt x="853" y="-19" on="0"/>
        <pt x="837" y="-10" on="0"/>
        <pt x="826" y="-10" on="1"/>
        <pt x="816" y="-10" on="0"/>
        <pt x="773" y="-25" on="0"/>
        <pt x="754" y="-25" on="1"/>
        <pt x="742" y="-25" on="0"/>
        <pt x="723" y="-13" on="0"/>
        <pt x="723" y="3" on="1"/>
        <pt x="723" y="22" on="0"/>
        <pt x="761" y="35" on="1"/>
        <pt x="767" y="37" on="0"/>
        <pt x="787" y="38" on="0"/>
        <pt x="808" y="38" on="0"/>
        <pt x="825" y="39" on="0"/>
        <pt x="828" y="42" on="1"/>
        <pt x="827" y="41" on="0"/>
        <pt x="838" y="77" on="0"/>
        <pt x="853" y="124" on="0"/>
        <pt x="866" y="165" on="0"/>
        <pt x="866" y="168" on="1"/>
        <pt x="866" y="176" on="0"/>
        <pt x="864" y="193" on="0"/>
        <pt x="864" y="203" on="1"/>
        <pt x="864" y="219" on="0"/>
        <pt x="878" y="257" on="0"/>
        <pt x="881" y="274" on="1"/>
        <pt x="882" y="282" on="0"/>
        <pt x="885" y="323" on="0"/>
        <pt x="887" y="370" on="0"/>
        <pt x="889" y="417" on="0"/>
        <pt x="889" y="431" on="1"/>
        <pt x="889" y="443" on="0"/>
        <pt x="884" y="449" on="0"/>
        <pt x="870" y="449" on="1"/>
        <pt x="849" y="449" on="0"/>
        <pt x="768" y="447" on="0"/>
        <pt x="680" y="443" on="0"/>
        <pt x="597" y="439" on="0"/>
        <pt x="574" y="438" on="1"/>
        <pt x="563" y="437" on="0"/>
        <pt x="551" y="432" on="0"/>
        <pt x="536" y="427" on="0"/>
        <pt x="513" y="423" on="0"/>
        <pt x="491" y="423" on="1"/>
        <pt x="477" y="423" on="0"/>
        <pt x="446" y="426" on="0"/>
        <pt x="434" y="426" on="1"/>
        <pt x="417" y="426" on="0"/>
        <pt x="398" y="404" on="0"/>
        <pt x="387" y="370" on="0"/>
        <pt x="382" y="330" on="0"/>
        <pt x="380" y="311" on="1"/>
        <pt x="376" y="276" on="0"/>
        <pt x="370" y="228" on="0"/>
        <pt x="367" y="184" on="0"/>
        <pt x="365" y="135" on="0"/>
        <pt x="365" y="99" on="1"/>
        <pt x="365" y="84" on="0"/>
        <pt x="368" y="67" on="0"/>
        <pt x="380" y="59" on="0"/>
        <pt x="405" y="58" on="0"/>
        <pt x="428" y="58" on="1"/>
        <pt x="433" y="58" on="0"/>
        <pt x="445" y="59" on="0"/>
        <pt x="452" y="59" on="1"/>
        <pt x="459" y="59" on="0"/>
        <pt x="477" y="54" on="0"/>
        <pt x="477" y="45" on="1"/>
        <pt x="477" y="28" on="0"/>
        <pt x="440" y="14" on="0"/>
        <pt x="389" y="9" on="0"/>
        <pt x="336" y="9" on="0"/>
        <pt x="321" y="6" on="1"/>
        <pt x="307" y="3" on="0"/>
        <pt x="278" y="-17" on="0"/>
        <pt x="264" y="-17" on="1"/>
        <pt x="254" y="-17" on="0"/>
        <pt x="247" y="-10" on="0"/>
        <pt x="242" y="-10" on="1"/>
        <pt x="232" y="-10" on="0"/>
        <pt x="209" y="-25" on="0"/>
        <pt x="191" y="-25" on="1"/>
        <pt x="183" y="-25" on="0"/>
        <pt x="173" y="-17" on="0"/>
        <pt x="164" y="-17" on="1"/>
        <pt x="153" y="-18" on="0"/>
        <pt x="126" y="-30" on="0"/>
        <pt x="113" y="-30" on="1"/>
        <pt x="102" y="-30" on="0"/>
        <pt x="92" y="-18" on="0"/>
        <pt x="89" y="-9" on="1"/>
        <pt x="89" y="-10" on="1"/>
        <pt x="87" y="-4" on="0"/>
        <pt x="87" y="0" on="1"/>
        <pt x="87" y="9" on="0"/>
        <pt x="101" y="22" on="0"/>
        <pt x="121" y="30" on="0"/>
        <pt x="145" y="34" on="0"/>
        <pt x="156" y="35" on="1"/>
        <pt x="174" y="36" on="0"/>
        <pt x="195" y="37" on="0"/>
        <pt x="207" y="46" on="0"/>
        <pt x="213" y="67" on="0"/>
        <pt x="216" y="87" on="1"/>
        <pt x="217" y="93" on="0"/>
        <pt x="220" y="102" on="0"/>
        <pt x="223" y="112" on="0"/>
        <pt x="226" y="127" on="0"/>
        <pt x="226" y="141" on="1"/>
        <pt x="226" y="142" on="0"/>
        <pt x="222" y="154" on="0"/>
        <pt x="222" y="164" on="1"/>
        <pt x="222" y="180" on="0"/>
        <pt x="235" y="208" on="0"/>
        <pt x="238" y="222" on="1"/>
        <pt x="243" y="245" on="0"/>
        <pt x="242" y="292" on="0"/>
        <pt x="245" y="319" on="1"/>
        <pt x="247" y="327" on="0"/>
        <pt x="253" y="334" on="0"/>
        <pt x="253" y="336" on="1"/>
        <pt x="253" y="347" on="0"/>
        <pt x="245" y="356" on="0"/>
        <pt x="245" y="364" on="1"/>
        <pt x="247" y="375" on="0"/>
        <pt x="261" y="396" on="0"/>
        <pt x="261" y="409" on="1"/>
        <pt x="261" y="418" on="0"/>
        <pt x="253" y="435" on="0"/>
        <pt x="253" y="445" on="1"/>
        <pt x="257" y="445" on="0"/>
        <pt x="266" y="492" on="0"/>
        <pt x="275" y="550" on="0"/>
        <pt x="282" y="600" on="0"/>
        <pt x="283" y="602" on="1"/>
        <pt x="284" y="605" on="0"/>
        <pt x="291" y="608" on="0"/>
        <pt x="298" y="611" on="0"/>
        <pt x="303" y="618" on="0"/>
        <pt x="303" y="626" on="1"/>
        <pt x="303" y="639" on="0"/>
        <pt x="290" y="670" on="0"/>
        <pt x="290" y="693" on="1"/>
        <pt x="290" y="710" on="0"/>
        <pt x="295" y="755" on="0"/>
        <pt x="298" y="774" on="1"/>
        <pt x="300" y="789" on="0"/>
        <pt x="311" y="812" on="0"/>
        <pt x="313" y="826" on="1"/>
        <pt x="318" y="862" on="0"/>
        <pt x="317" y="932" on="0"/>
        <pt x="321" y="961" on="1"/>
        <pt x="324" y="984" on="0"/>
        <pt x="336" y="1023" on="0"/>
        <pt x="336" y="1040" on="1"/>
        <pt x="336" y="1050" on="0"/>
        <pt x="328" y="1054" on="0"/>
        <pt x="322" y="1054" on="1"/>
        <pt x="308" y="1054" on="0"/>
        <pt x="278" y="1036" on="0"/>
        <pt x="264" y="1036" on="1"/>
        <pt x="258" y="1036" on="0"/>
        <pt x="241" y="1041" on="0"/>
        <pt x="224" y="1050" on="0"/>
        <pt x="213" y="1062" on="0"/>
        <pt x="213" y="1070" on="1"/>
        <pt x="213" y="1083" on="0"/>
        <pt x="239" y="1093" on="0"/>
        <pt x="279" y="1096" on="0"/>
        <pt x="327" y="1098" on="0"/>
        <pt x="350" y="1103" on="1"/>
        <pt x="362" y="1106" on="0"/>
        <pt x="382" y="1116" on="0"/>
        <pt x="403" y="1126" on="0"/>
        <pt x="424" y="1133" on="0"/>
        <pt x="436" y="1133" on="1"/>
        <pt x="452" y="1133" on="0"/>
        <pt x="482" y="1126" on="0"/>
        <pt x="503" y="1126" on="1"/>
        <pt x="520" y="1126" on="0"/>
        <pt x="549" y="1128" on="0"/>
        <pt x="563" y="1128" on="1"/>
        <pt x="578" y="1128" on="0"/>
        <pt x="603" y="1124" on="0"/>
        <pt x="612" y="1118" on="1"/>
        <pt x="605" y="1106" on="0"/>
        <pt x="586" y="1094" on="0"/>
        <pt x="564" y="1088" on="0"/>
        <pt x="537" y="1085" on="0"/>
        <pt x="522" y="1081" on="1"/>
        <pt x="504" y="1081" on="0"/>
        <pt x="488" y="1063" on="0"/>
        <pt x="482" y="1031" on="0"/>
        <pt x="481" y="987" on="0"/>
        <pt x="477" y="961" on="1"/>
        <pt x="472" y="931" on="0"/>
        <pt x="457" y="860" on="0"/>
        <pt x="443" y="793" on="0"/>
        <pt x="432" y="737" on="0"/>
        <pt x="432" y="723" on="1"/>
        <pt x="432" y="709" on="0"/>
        <pt x="434" y="687" on="0"/>
        <pt x="434" y="674" on="1"/>
        <pt x="434" y="662" on="0"/>
        <pt x="428" y="646" on="0"/>
        <pt x="422" y="635" on="0"/>
        <pt x="416" y="626" on="0"/>
        <pt x="416" y="621" on="1"/>
        <pt x="416" y="618" on="0"/>
        <pt x="418" y="611" on="0"/>
        <pt x="418" y="608" on="1"/>
        <pt x="418" y="604" on="0"/>
        <pt x="417" y="602" on="1"/>
        <pt x="417" y="601" on="0"/>
        <pt x="413" y="574" on="0"/>
        <pt x="408" y="544" on="0"/>
        <pt x="403" y="520" on="0"/>
        <pt x="402" y="521" on="1"/>
        <pt x="408" y="512" on="0"/>
        <pt x="431" y="505" on="0"/>
        <pt x="446" y="505" on="1"/>
        <pt x="465" y="505" on="0"/>
        <pt x="505" y="510" on="0"/>
        <pt x="542" y="517" on="0"/>
        <pt x="573" y="522" on="0"/>
        <pt x="582" y="522" on="1"/>
        <pt x="594" y="522" on="0"/>
        <pt x="627" y="513" on="0"/>
        <pt x="634" y="513" on="1"/>
        <pt x="645" y="518" on="0"/>
        <pt x="669" y="522" on="0"/>
        <pt x="682" y="522" on="1"/>
        <pt x="690" y="522" on="0"/>
        <pt x="707" y="521" on="0"/>
        <pt x="715" y="521" on="1"/>
        <pt x="743" y="521" on="0"/>
        <pt x="799" y="523" on="0"/>
        <pt x="828" y="528" on="1"/>
        <pt x="838" y="529" on="0"/>
        <pt x="862" y="535" on="0"/>
        <pt x="885" y="539" on="0"/>
        <pt x="901" y="543" on="0"/>
        <pt x="903" y="543" on="1"/>
        <pt x="905" y="545" on="0"/>
        <pt x="906" y="587" on="0"/>
        <pt x="910" y="610" on="1"/>
        <pt x="913" y="630" on="0"/>
        <pt x="925" y="672" on="0"/>
        <pt x="925" y="683" on="1"/>
        <pt x="925" y="700" on="0"/>
        <pt x="919" y="723" on="0"/>
        <pt x="919" y="737" on="1"/>
        <pt x="919" y="747" on="0"/>
        <pt x="926" y="762" on="0"/>
        <pt x="934" y="776" on="0"/>
        <pt x="941" y="790" on="0"/>
        <pt x="941" y="799" on="1"/>
        <pt x="941" y="807" on="0"/>
        <pt x="939" y="828" on="0"/>
        <pt x="939" y="840" on="1"/>
        <pt x="939" y="863" on="0"/>
        <pt x="955" y="906" on="0"/>
        <pt x="955" y="922" on="1"/>
        <pt x="955" y="934" on="0"/>
        <pt x="951" y="945" on="0"/>
        <pt x="951" y="953" on="1"/>
        <pt x="951" y="963" on="0"/>
        <pt x="955" y="976" on="1"/>
        <pt x="955" y="976" on="0"/>
        <pt x="962" y="987" on="0"/>
        <pt x="969" y="1003" on="0"/>
        <pt x="975" y="1022" on="0"/>
        <pt x="975" y="1031" on="1"/>
        <pt x="975" y="1042" on="0"/>
        <pt x="964" y="1059" on="0"/>
        <pt x="958" y="1059" on="1"/>
        <pt x="950" y="1059" on="0"/>
        <pt x="934" y="1043" on="0"/>
        <pt x="920" y="1043" on="1"/>
        <pt x="905" y="1043" on="0"/>
        <pt x="880" y="1055" on="0"/>
        <pt x="880" y="1067" on="1"/>
        <pt x="880" y="1087" on="0"/>
        <pt x="899" y="1098" on="0"/>
        <pt x="913" y="1098" on="1"/>
        <pt x="921" y="1098" on="0"/>
        <pt x="941" y="1096" on="0"/>
        <pt x="951" y="1096" on="1"/>
        <pt x="962" y="1096" on="0"/>
        <pt x="984" y="1102" on="0"/>
        <pt x="993" y="1110" on="1"/>
        <pt x="1001" y="1127" on="0"/>
        <pt x="1034" y="1133" on="0"/>
        <pt x="1045" y="1133" on="1"/>
        <pt x="1063" y="1133" on="0"/>
        <pt x="1098" y="1117" on="0"/>
        <pt x="1119" y="1117" on="1"/>
        <pt x="1142" y="1117" on="0"/>
        <pt x="1186" y="1127" on="0"/>
        <pt x="1204" y="1127" on="1"/>
        <pt x="1222" y="1127" on="0"/>
      </contour>
    </TTGlyph>
</ttFont>
